<ttFont>
    <TTGlyph name="A" xMin="8" yMin="0" xMax="1462" yMax="1434">
      <contour>
        <pt x="342" y="362" on="1"/>
        <pt x="182" y="0" on="1"/>
        <pt x="8" y="0" on="1"/>
        <pt x="651" y="1434" on="1"/>
        <pt x="821" y="1434" on="1"/>
        <pt x="1462" y="0" on="1"/>
        <pt x="1284" y="0" on="1"/>
        <pt x="1124" y="362" on="1"/>
      </contour>
      <contour>
        <pt x="731" y="1247" on="1"/>
        <pt x="412" y="520" on="1"/>
        <pt x="1055" y="520" on="1"/>
      </contour>
    </TTGlyph>
    <TTGlyph name="AE" xMin="8" yMin="0" xMax="1985" yMax="1434">
      <contour>
        <pt x="1985" y="0" on="1"/>
        <pt x="985" y="0" on="1"/>
        <pt x="985" y="389" on="1"/>
        <pt x="410" y="389" on="1"/>
        <pt x="182" y="0" on="1"/>
        <pt x="8" y="0" on="1"/>
        <pt x="854" y="1434" on="1"/>
        <pt x="1958" y="1434" on="1"/>
        <pt x="1958" y="1276" on="1"/>
        <pt x="1149" y="1276" on="1"/>
        <pt x="1149" y="803" on="1"/>
        <pt x="1874" y="803" on="1"/>
        <pt x="1874" y="647" on="1"/>
        <pt x="1149" y="647" on="1"/>
        <pt x="1149" y="158" on="1"/>
        <pt x="1985" y="158" on="1"/>
      </contour>
      <contour>
        <pt x="985" y="1288" on="1"/>
        <pt x="934" y="1288" on="1"/>
        <pt x="492" y="528" on="1"/>
        <pt x="985" y="528" on="1"/>
      </contour>
    </TTGlyph>
    <TTGlyph name="Aacute" xMin="8" yMin="0" xMax="1462" yMax="1890">
      <component glyphName="A" x="0" y="0" flags="0x1000"/>
      <component glyphName="acute" x="473" y="354" flags="0x1000"/>
    </TTGlyph>
    <TTGlyph name="Abreve" xMin="8" yMin="0" xMax="1462" yMax="1870">
      <component glyphName="A" x="0" y="0" flags="0x1000"/>
      <component glyphName="breve" x="377" y="352" flags="0x1000"/>
    </TTGlyph>
    <TTGlyph name="Acircumflex" xMin="8" yMin="0" xMax="1462" yMax="1882">
      <component glyphName="A" x="0" y="0" flags="0x1000"/>
      <component glyphName="circumflex" x="377" y="350" flags="0x1000"/>
    </TTGlyph>
    <TTGlyph name="Adieresis" xMin="8" yMin="0" xMax="1462" yMax="1860">
      <contour>
        <pt x="524" y="1649" on="0"/>
        <pt x="467" y="1710" on="0"/>
        <pt x="467" y="1755" on="1"/>
        <pt x="467" y="1800" on="0"/>
        <pt x="524" y="1860" on="0"/>
        <pt x="565" y="1860" on="1"/>
        <pt x="606" y="1860" on="0"/>
        <pt x="664" y="1800" on="0"/>
        <pt x="664" y="1755" on="1"/>
        <pt x="664" y="1710" on="0"/>
        <pt x="606" y="1649" on="0"/>
        <pt x="565" y="1649" on="1"/>
      </contour>
      <contour>
        <pt x="864" y="1649" on="0"/>
        <pt x="807" y="1710" on="0"/>
        <pt x="807" y="1755" on="1"/>
        <pt x="807" y="1800" on="0"/>
        <pt x="864" y="1860" on="0"/>
        <pt x="905" y="1860" on="1"/>
        <pt x="946" y="1860" on="0"/>
        <pt x="1004" y="1800" on="0"/>
        <pt x="1004" y="1755" on="1"/>
        <pt x="1004" y="1710" on="0"/>
        <pt x="946" y="1649" on="0"/>
        <pt x="905" y="1649" on="1"/>
      </contour>
      <contour>
        <pt x="342" y="362" on="1"/>
        <pt x="182" y="0" on="1"/>
        <pt x="8" y="0" on="1"/>
        <pt x="651" y="1434" on="1"/>
        <pt x="821" y="1434" on="1"/>
        <pt x="1462" y="0" on="1"/>
        <pt x="1284" y="0" on="1"/>
        <pt x="1124" y="362" on="1"/>
      </contour>
      <contour>
        <pt x="731" y="1247" on="1"/>
        <pt x="412" y="520" on="1"/>
        <pt x="1055" y="520" on="1"/>
      </contour>
    </TTGlyph>
    <TTGlyph name="Agrave" xMin="8" yMin="0" xMax="1462" yMax="1890">
      <component glyphName="A" x="0" y="0" flags="0x1000"/>
      <component glyphName="grave" x="283" y="354" flags="0x1000"/>
    </TTGlyph>
    <TTGlyph name="Amacron" xMin="8" yMin="0" xMax="1462" yMax="1804">
      <component glyphName="A" x="0" y="0" flags="0x1000"/>
      <component glyphName="macron" x="377" y="354" flags="0x1000"/>
    </TTGlyph>
    <TTGlyph name="Aogonek" xMin="10" yMin="-410" xMax="1544" yMax="1434">
      <contour>
        <pt x="1419" y="0" on="1"/>
        <pt x="1310" y="-150" on="0"/>
        <pt x="1311" y="-233" on="1"/>
        <pt x="1311" y="-270" on="0"/>
        <pt x="1352" y="-311" on="0"/>
        <pt x="1384" y="-311" on="1"/>
        <pt x="1435" y="-311" on="0"/>
        <pt x="1493" y="-244" on="1"/>
        <pt x="1544" y="-305" on="1"/>
        <pt x="1513" y="-352" on="0"/>
        <pt x="1419" y="-410" on="0"/>
        <pt x="1368" y="-410" on="1"/>
        <pt x="1305" y="-410" on="0"/>
        <pt x="1217" y="-330" on="0"/>
        <pt x="1217" y="-258" on="1"/>
        <pt x="1217" y="-207" on="0"/>
        <pt x="1272" y="-84" on="0"/>
        <pt x="1329" y="0" on="1"/>
        <pt x="1286" y="0" on="1"/>
        <pt x="1122" y="362" on="1"/>
        <pt x="344" y="362" on="1"/>
        <pt x="182" y="0" on="1"/>
        <pt x="10" y="0" on="1"/>
        <pt x="651" y="1434" on="1"/>
        <pt x="821" y="1434" on="1"/>
        <pt x="1462" y="0" on="1"/>
      </contour>
      <contour>
        <pt x="1063" y="518" on="1"/>
        <pt x="733" y="1249" on="1"/>
        <pt x="403" y="518" on="1"/>
      </contour>
    </TTGlyph>
    <TTGlyph name="Aring" xMin="8" yMin="0" xMax="1462" yMax="1835">
      <contour>
        <pt x="342" y="362" on="1"/>
        <pt x="182" y="0" on="1"/>
        <pt x="8" y="0" on="1"/>
        <pt x="629" y="1382" on="1"/>
        <pt x="568" y="1411" on="0"/>
        <pt x="496" y="1528" on="0"/>
        <pt x="496" y="1595" on="1"/>
        <pt x="496" y="1658" on="0"/>
        <pt x="561" y="1769" on="0"/>
        <pt x="672" y="1835" on="0"/>
        <pt x="737" y="1835" on="1"/>
        <pt x="803" y="1835" on="0"/>
        <pt x="915" y="1769" on="0"/>
        <pt x="981" y="1659" on="0"/>
        <pt x="981" y="1595" on="1"/>
        <pt x="981" y="1525" on="0"/>
        <pt x="907" y="1411" on="0"/>
        <pt x="846" y="1380" on="1"/>
        <pt x="1462" y="0" on="1"/>
        <pt x="1284" y="0" on="1"/>
        <pt x="1124" y="362" on="1"/>
      </contour>
      <contour>
        <pt x="578" y="1532" on="0"/>
        <pt x="672" y="1444" on="0"/>
        <pt x="737" y="1444" on="1"/>
        <pt x="803" y="1444" on="0"/>
        <pt x="899" y="1532" on="0"/>
        <pt x="899" y="1595" on="1"/>
        <pt x="899" y="1656" on="0"/>
        <pt x="803" y="1745" on="0"/>
        <pt x="737" y="1745" on="1"/>
        <pt x="671" y="1745" on="0"/>
        <pt x="578" y="1657" on="0"/>
        <pt x="578" y="1595" on="1"/>
      </contour>
      <contour>
        <pt x="731" y="1247" on="1"/>
        <pt x="412" y="520" on="1"/>
        <pt x="1055" y="520" on="1"/>
      </contour>
    </TTGlyph>
    <TTGlyph name="Atilde" xMin="8" yMin="0" xMax="1462" yMax="1880">
      <component glyphName="A" x="0" y="0" flags="0x1000"/>
      <component glyphName="tilde" x="377" y="354" flags="0x1000"/>
    </TTGlyph>
    <TTGlyph name="B" xMin="217" yMin="0" xMax="1348" yMax="1434">
      <contour>
        <pt x="1038" y="1434" on="0"/>
        <pt x="1284" y="1243" on="0"/>
        <pt x="1284" y="1075" on="1"/>
        <pt x="1284" y="948" on="0"/>
        <pt x="1145" y="778" on="0"/>
        <pt x="1020" y="752" on="1"/>
        <pt x="1176" y="729" on="0"/>
        <pt x="1348" y="537" on="0"/>
        <pt x="1348" y="389" on="1"/>
        <pt x="1348" y="207" on="0"/>
        <pt x="1073" y="0" on="0"/>
        <pt x="831" y="0" on="1"/>
        <pt x="217" y="0" on="1"/>
        <pt x="217" y="1434" on="1"/>
        <pt x="821" y="1434" on="1"/>
      </contour>
      <contour>
        <pt x="381" y="815" on="1"/>
        <pt x="813" y="815" on="1"/>
        <pt x="958" y="815" on="0"/>
        <pt x="1118" y="936" on="0"/>
        <pt x="1118" y="1049" on="1"/>
        <pt x="1118" y="1158" on="0"/>
        <pt x="958" y="1276" on="0"/>
        <pt x="813" y="1276" on="1"/>
        <pt x="381" y="1276" on="1"/>
      </contour>
      <contour>
        <pt x="381" y="156" on="1"/>
        <pt x="813" y="156" on="1"/>
        <pt x="989" y="156" on="0"/>
        <pt x="1182" y="289" on="0"/>
        <pt x="1182" y="412" on="1"/>
        <pt x="1182" y="529" on="0"/>
        <pt x="987" y="659" on="0"/>
        <pt x="813" y="659" on="1"/>
        <pt x="381" y="659" on="1"/>
      </contour>
    </TTGlyph>
    <TTGlyph name="C" xMin="82" yMin="-8" xMax="1356" yMax="1438">
      <contour>
        <pt x="975" y="1438" on="0"/>
        <pt x="1249" y="1327" on="0"/>
        <pt x="1354" y="1229" on="1"/>
        <pt x="1255" y="1104" on="1"/>
        <pt x="1171" y="1188" on="0"/>
        <pt x="948" y="1284" on="0"/>
        <pt x="831" y="1284" on="1"/>
        <pt x="671" y="1284" on="0"/>
        <pt x="403" y="1133" on="0"/>
        <pt x="248" y="874" on="0"/>
        <pt x="248" y="719" on="1"/>
        <pt x="248" y="565" on="0"/>
        <pt x="403" y="305" on="0"/>
        <pt x="672" y="154" on="0"/>
        <pt x="831" y="154" on="1"/>
        <pt x="948" y="154" on="0"/>
        <pt x="1169" y="244" on="0"/>
        <pt x="1255" y="326" on="1"/>
        <pt x="1356" y="213" on="1"/>
        <pt x="1247" y="111" on="0"/>
        <pt x="969" y="-8" on="0"/>
        <pt x="823" y="-8" on="1"/>
        <pt x="620" y="-8" on="0"/>
        <pt x="281" y="186" on="0"/>
        <pt x="82" y="520" on="0"/>
        <pt x="82" y="719" on="1"/>
        <pt x="82" y="916" on="0"/>
        <pt x="283" y="1245" on="0"/>
        <pt x="625" y="1438" on="0"/>
        <pt x="829" y="1438" on="1"/>
      </contour>
    </TTGlyph>
    <TTGlyph name="Cacute" xMin="82" yMin="-8" xMax="1356" yMax="1890">
      <component glyphName="C" x="0" y="0" flags="0x1000"/>
      <component glyphName="acute" x="483" y="354" flags="0x1000"/>
    </TTGlyph>
    <TTGlyph name="Ccaron" xMin="82" yMin="-8" xMax="1356" yMax="1882">
      <component glyphName="C" x="0" y="0" flags="0x1000"/>
      <component glyphName="caron" x="385" y="350" flags="0x1000"/>
    </TTGlyph>
    <TTGlyph name="Ccedilla" xMin="82" yMin="-440" xMax="1356" yMax="1438">
      <contour>
        <pt x="897" y="-111" on="0"/>
        <pt x="977" y="-193" on="0"/>
        <pt x="977" y="-258" on="1"/>
        <pt x="979" y="-340" on="0"/>
        <pt x="866" y="-440" on="0"/>
        <pt x="778" y="-440" on="1"/>
        <pt x="733" y="-440" on="0"/>
        <pt x="643" y="-414" on="0"/>
        <pt x="612" y="-391" on="1"/>
        <pt x="647" y="-303" on="1"/>
        <pt x="672" y="-323" on="0"/>
        <pt x="737" y="-344" on="0"/>
        <pt x="768" y="-344" on="1"/>
        <pt x="817" y="-344" on="0"/>
        <pt x="879" y="-287" on="0"/>
        <pt x="877" y="-248" on="1"/>
        <pt x="877" y="-213" on="0"/>
        <pt x="821" y="-162" on="0"/>
        <pt x="774" y="-162" on="1"/>
        <pt x="735" y="-162" on="0"/>
        <pt x="707" y="-168" on="1"/>
        <pt x="774" y="-6" on="1"/>
        <pt x="581" y="6" on="0"/>
        <pt x="264" y="205" on="0"/>
        <pt x="82" y="526" on="0"/>
        <pt x="82" y="719" on="1"/>
        <pt x="82" y="916" on="0"/>
        <pt x="283" y="1245" on="0"/>
        <pt x="625" y="1438" on="0"/>
        <pt x="829" y="1438" on="1"/>
        <pt x="974" y="1438" on="0"/>
        <pt x="1249" y="1327" on="0"/>
        <pt x="1354" y="1229" on="1"/>
        <pt x="1255" y="1104" on="1"/>
        <pt x="1171" y="1188" on="0"/>
        <pt x="948" y="1284" on="0"/>
        <pt x="831" y="1284" on="1"/>
        <pt x="671" y="1284" on="0"/>
        <pt x="403" y="1133" on="0"/>
        <pt x="248" y="874" on="0"/>
        <pt x="248" y="719" on="1"/>
        <pt x="248" y="565" on="0"/>
        <pt x="403" y="305" on="0"/>
        <pt x="672" y="154" on="0"/>
        <pt x="831" y="154" on="1"/>
        <pt x="948" y="154" on="0"/>
        <pt x="1169" y="244" on="0"/>
        <pt x="1255" y="326" on="1"/>
        <pt x="1356" y="213" on="1"/>
        <pt x="1256" y="119" on="0"/>
        <pt x="1006" y="2" on="0"/>
        <pt x="874" y="-6" on="1"/>
        <pt x="831" y="-102" on="1"/>
      </contour>
    </TTGlyph>
    <TTGlyph name="D" xMin="217" yMin="0" xMax="1534" yMax="1434">
      <contour>
        <pt x="1004" y="1434" on="0"/>
        <pt x="1339" y="1245" on="0"/>
        <pt x="1534" y="918" on="0"/>
        <pt x="1534" y="717" on="1"/>
        <pt x="1534" y="516" on="0"/>
        <pt x="1339" y="188" on="0"/>
        <pt x="999" y="0" on="0"/>
        <pt x="791" y="0" on="1"/>
        <pt x="217" y="0" on="1"/>
        <pt x="217" y="1434" on="1"/>
        <pt x="797" y="1434" on="1"/>
      </contour>
      <contour>
        <pt x="381" y="156" on="1"/>
        <pt x="799" y="156" on="1"/>
        <pt x="957" y="156" on="0"/>
        <pt x="1217" y="301" on="0"/>
        <pt x="1368" y="557" on="0"/>
        <pt x="1368" y="715" on="1"/>
        <pt x="1368" y="873" on="0"/>
        <pt x="1214" y="1128" on="0"/>
        <pt x="952" y="1276" on="0"/>
        <pt x="793" y="1276" on="1"/>
        <pt x="381" y="1276" on="1"/>
      </contour>
    </TTGlyph>
    <TTGlyph name="Dcaron" xMin="217" yMin="0" xMax="1534" yMax="1882">
      <component glyphName="D" x="0" y="0" flags="0x1000"/>
      <component glyphName="caron" x="401" y="350" flags="0x1000"/>
    </TTGlyph>
    <TTGlyph name="Dcroat" xMin="217" yMin="0" xMax="1534" yMax="1804">
      <component glyphName="D" x="0" y="0" flags="0x1000"/>
      <component glyphName="macron" x="406" y="354" flags="0x1000"/>
    </TTGlyph>
    <TTGlyph name="Delta" xMin="8" yMin="0" xMax="1462" yMax="1434">
      <contour>
        <pt x="8" y="0" on="1"/>
        <pt x="651" y="1434" on="1"/>
        <pt x="821" y="1434" on="1"/>
        <pt x="1462" y="0" on="1"/>
      </contour>
      <contour>
        <pt x="731" y="1247" on="1"/>
        <pt x="242" y="137" on="1"/>
        <pt x="1223" y="137" on="1"/>
      </contour>
    </TTGlyph>
    <TTGlyph name="E" xMin="217" yMin="0" xMax="1217" yMax="1434">
      <contour>
        <pt x="381" y="1276" on="1"/>
        <pt x="381" y="805" on="1"/>
        <pt x="1104" y="805" on="1"/>
        <pt x="1104" y="647" on="1"/>
        <pt x="381" y="647" on="1"/>
        <pt x="381" y="156" on="1"/>
        <pt x="1217" y="156" on="1"/>
        <pt x="1217" y="0" on="1"/>
        <pt x="217" y="0" on="1"/>
        <pt x="217" y="1434" on="1"/>
        <pt x="1190" y="1434" on="1"/>
        <pt x="1190" y="1276" on="1"/>
      </contour>
    </TTGlyph>
    <TTGlyph name="Eacute" xMin="217" yMin="0" xMax="1217" yMax="1890">
      <component glyphName="E" x="0" y="0" flags="0x1000"/>
      <component glyphName="acute" x="449" y="354" flags="0x1000"/>
    </TTGlyph>
    <TTGlyph name="Ecaron" xMin="217" yMin="0" xMax="1217" yMax="1882">
      <component glyphName="E" x="0" y="0" flags="0x1000"/>
      <component glyphName="caron" x="348" y="350" flags="0x1000"/>
    </TTGlyph>
    <TTGlyph name="Ecircumflex" xMin="217" yMin="0" xMax="1217" yMax="1882">
      <component glyphName="E" x="0" y="0" flags="0x1000"/>
      <component glyphName="circumflex" x="352" y="350" flags="0x1000"/>
    </TTGlyph>
    <TTGlyph name="Edieresis" xMin="217" yMin="0" xMax="1217" yMax="1860">
      <contour>
        <pt x="582" y="1860" on="0"/>
        <pt x="639" y="1800" on="0"/>
        <pt x="639" y="1755" on="1"/>
        <pt x="639" y="1710" on="0"/>
        <pt x="582" y="1649" on="0"/>
        <pt x="541" y="1649" on="1"/>
        <pt x="500" y="1649" on="0"/>
        <pt x="442" y="1710" on="0"/>
        <pt x="442" y="1755" on="1"/>
        <pt x="442" y="1800" on="0"/>
        <pt x="500" y="1860" on="0"/>
        <pt x="541" y="1860" on="1"/>
      </contour>
      <contour>
        <pt x="922" y="1860" on="0"/>
        <pt x="979" y="1800" on="0"/>
        <pt x="979" y="1755" on="1"/>
        <pt x="979" y="1710" on="0"/>
        <pt x="922" y="1649" on="0"/>
        <pt x="881" y="1649" on="1"/>
        <pt x="840" y="1649" on="0"/>
        <pt x="782" y="1710" on="0"/>
        <pt x="782" y="1755" on="1"/>
        <pt x="782" y="1800" on="0"/>
        <pt x="840" y="1860" on="0"/>
        <pt x="881" y="1860" on="1"/>
      </contour>
      <contour>
        <pt x="381" y="1276" on="1"/>
        <pt x="381" y="805" on="1"/>
        <pt x="1104" y="805" on="1"/>
        <pt x="1104" y="647" on="1"/>
        <pt x="381" y="647" on="1"/>
        <pt x="381" y="156" on="1"/>
        <pt x="1217" y="156" on="1"/>
        <pt x="1217" y="0" on="1"/>
        <pt x="217" y="0" on="1"/>
        <pt x="217" y="1434" on="1"/>
        <pt x="1190" y="1434" on="1"/>
        <pt x="1190" y="1276" on="1"/>
      </contour>
    </TTGlyph>
    <TTGlyph name="Edotaccent" xMin="217" yMin="0" xMax="1217" yMax="1853">
      <component glyphName="E" x="0" y="0" flags="0x1000"/>
      <component glyphName="dotaccent" x="352" y="354" flags="0x1000"/>
    </TTGlyph>
    <TTGlyph name="Egrave" xMin="217" yMin="0" xMax="1217" yMax="1890">
      <component glyphName="E" x="0" y="0" flags="0x1000"/>
      <component glyphName="grave" x="258" y="354" flags="0x1000"/>
    </TTGlyph>
    <TTGlyph name="Emacron" xMin="217" yMin="0" xMax="1217" yMax="1804">
      <component glyphName="E" x="0" y="0" flags="0x1000"/>
      <component glyphName="macron" x="352" y="354" flags="0x1000"/>
    </TTGlyph>
    <TTGlyph name="Eogonek" xMin="217" yMin="-410" xMax="1229" yMax="1434">
      <contour>
        <pt x="381" y="1288" on="1"/>
        <pt x="381" y="803" on="1"/>
        <pt x="1116" y="803" on="1"/>
        <pt x="1116" y="659" on="1"/>
        <pt x="381" y="659" on="1"/>
        <pt x="381" y="143" on="1"/>
        <pt x="1229" y="143" on="1"/>
        <pt x="1229" y="0" on="1"/>
        <pt x="1100" y="0" on="1"/>
        <pt x="1039" y="-82" on="0"/>
        <pt x="989" y="-193" on="0"/>
        <pt x="989" y="-233" on="1"/>
        <pt x="989" y="-270" on="0"/>
        <pt x="1032" y="-311" on="0"/>
        <pt x="1063" y="-311" on="1"/>
        <pt x="1114" y="-311" on="0"/>
        <pt x="1171" y="-244" on="1"/>
        <pt x="1225" y="-305" on="1"/>
        <pt x="1192" y="-352" on="0"/>
        <pt x="1098" y="-410" on="0"/>
        <pt x="1047" y="-410" on="1"/>
        <pt x="984" y="-410" on="0"/>
        <pt x="897" y="-332" on="0"/>
        <pt x="897" y="-258" on="1"/>
        <pt x="897" y="-205" on="0"/>
        <pt x="950" y="-84" on="0"/>
        <pt x="1010" y="0" on="1"/>
        <pt x="217" y="0" on="1"/>
        <pt x="217" y="1434" on="1"/>
        <pt x="1202" y="1434" on="1"/>
        <pt x="1202" y="1288" on="1"/>
      </contour>
    </TTGlyph>
    <TTGlyph name="Eth" xMin="0" yMin="0" xMax="1559" yMax="1434">
      <contour>
        <pt x="1028" y="1434" on="0"/>
        <pt x="1364" y="1245" on="0"/>
        <pt x="1559" y="918" on="0"/>
        <pt x="1559" y="717" on="1"/>
        <pt x="1559" y="516" on="0"/>
        <pt x="1364" y="188" on="0"/>
        <pt x="1024" y="0" on="0"/>
        <pt x="815" y="0" on="1"/>
        <pt x="242" y="0" on="1"/>
        <pt x="242" y="668" on="1"/>
        <pt x="0" y="668" on="1"/>
        <pt x="0" y="774" on="1"/>
        <pt x="242" y="774" on="1"/>
        <pt x="242" y="1434" on="1"/>
        <pt x="821" y="1434" on="1"/>
      </contour>
      <contour>
        <pt x="981" y="156" on="0"/>
        <pt x="1241" y="301" on="0"/>
        <pt x="1393" y="557" on="0"/>
        <pt x="1393" y="715" on="1"/>
        <pt x="1393" y="873" on="0"/>
        <pt x="1239" y="1128" on="0"/>
        <pt x="977" y="1276" on="0"/>
        <pt x="817" y="1276" on="1"/>
        <pt x="406" y="1276" on="1"/>
        <pt x="406" y="774" on="1"/>
        <pt x="862" y="774" on="1"/>
        <pt x="862" y="668" on="1"/>
        <pt x="406" y="668" on="1"/>
        <pt x="406" y="156" on="1"/>
        <pt x="823" y="156" on="1"/>
      </contour>
    </TTGlyph>
    <TTGlyph name="Euro" xMin="88" yMin="-8" xMax="1550" yMax="1438">
      <contour>
        <pt x="1446" y="111" on="0"/>
        <pt x="1165" y="-8" on="0"/>
        <pt x="1020" y="-8" on="1"/>
        <pt x="858" y="-8" on="0"/>
        <pt x="575" y="115" on="0"/>
        <pt x="369" y="336" on="0"/>
        <pt x="319" y="477" on="1"/>
        <pt x="88" y="477" on="1"/>
        <pt x="88" y="582" on="1"/>
        <pt x="291" y="582" on="1"/>
        <pt x="279" y="650" on="0"/>
        <pt x="279" y="719" on="1"/>
        <pt x="279" y="787" on="0"/>
        <pt x="291" y="850" on="1"/>
        <pt x="88" y="850" on="1"/>
        <pt x="88" y="954" on="1"/>
        <pt x="317" y="954" on="1"/>
        <pt x="366" y="1095" on="0"/>
        <pt x="575" y="1315" on="0"/>
        <pt x="862" y="1438" on="0"/>
        <pt x="1026" y="1438" on="1"/>
        <pt x="1171" y="1438" on="0"/>
        <pt x="1448" y="1327" on="0"/>
        <pt x="1548" y="1229" on="1"/>
        <pt x="1454" y="1104" on="1"/>
        <pt x="1368" y="1190" on="0"/>
        <pt x="1147" y="1284" on="0"/>
        <pt x="1028" y="1284" on="1"/>
        <pt x="852" y="1284" on="0"/>
        <pt x="565" y="1104" on="0"/>
        <pt x="496" y="954" on="1"/>
        <pt x="1051" y="954" on="1"/>
        <pt x="1051" y="850" on="1"/>
        <pt x="461" y="850" on="1"/>
        <pt x="445" y="784" on="0"/>
        <pt x="444" y="719" on="1"/>
        <pt x="444" y="651" on="0"/>
        <pt x="461" y="582" on="1"/>
        <pt x="1051" y="582" on="1"/>
        <pt x="1051" y="477" on="1"/>
        <pt x="500" y="477" on="1"/>
        <pt x="572" y="330" on="0"/>
        <pt x="856" y="154" on="0"/>
        <pt x="1028" y="154" on="1"/>
        <pt x="1143" y="154" on="0"/>
        <pt x="1366" y="244" on="0"/>
        <pt x="1454" y="326" on="1"/>
        <pt x="1550" y="213" on="1"/>
      </contour>
    </TTGlyph>
    <TTGlyph name="F" xMin="217" yMin="0" xMax="1128" yMax="1434">
      <contour>
        <pt x="381" y="1276" on="1"/>
        <pt x="381" y="772" on="1"/>
        <pt x="1051" y="772" on="1"/>
        <pt x="1051" y="614" on="1"/>
        <pt x="381" y="614" on="1"/>
        <pt x="381" y="0" on="1"/>
        <pt x="217" y="0" on="1"/>
        <pt x="217" y="1434" on="1"/>
        <pt x="1128" y="1434" on="1"/>
        <pt x="1128" y="1276" on="1"/>
      </contour>
    </TTGlyph>
    <TTGlyph name="G" xMin="82" yMin="-8" xMax="1366" yMax="1438">
      <contour>
        <pt x="1362" y="700" on="1"/>
        <pt x="1362" y="180" on="1"/>
        <pt x="1253" y="94" on="0"/>
        <pt x="971" y="-8" on="0"/>
        <pt x="829" y="-8" on="1"/>
        <pt x="624" y="-8" on="0"/>
        <pt x="283" y="186" on="0"/>
        <pt x="82" y="518" on="0"/>
        <pt x="82" y="717" on="1"/>
        <pt x="82" y="916" on="0"/>
        <pt x="283" y="1245" on="0"/>
        <pt x="631" y="1438" on="0"/>
        <pt x="838" y="1438" on="1"/>
        <pt x="985" y="1438" on="0"/>
        <pt x="1262" y="1333" on="0"/>
        <pt x="1366" y="1241" on="1"/>
        <pt x="1272" y="1118" on="1"/>
        <pt x="1184" y="1196" on="0"/>
        <pt x="956" y="1284" on="0"/>
        <pt x="838" y="1284" on="1"/>
        <pt x="676" y="1284" on="0"/>
        <pt x="406" y="1133" on="0"/>
        <pt x="248" y="872" on="0"/>
        <pt x="248" y="717" on="1"/>
        <pt x="248" y="561" on="0"/>
        <pt x="408" y="299" on="0"/>
        <pt x="678" y="147" on="0"/>
        <pt x="840" y="147" on="1"/>
        <pt x="936" y="147" on="0"/>
        <pt x="1133" y="211" on="0"/>
        <pt x="1217" y="268" on="1"/>
        <pt x="1217" y="700" on="1"/>
      </contour>
    </TTGlyph>
    <TTGlyph name="Gbreve" xMin="82" yMin="-8" xMax="1366" yMax="1870">
      <component glyphName="G" x="0" y="0" flags="0x1000"/>
      <component glyphName="breve" x="428" y="352" flags="0x1000"/>
    </TTGlyph>
    <TTGlyph name="Gcommaaccent" xMin="82" yMin="-453" xMax="1366" yMax="1438">
      <component glyphName="G" x="0" y="0" flags="0x1000"/>
      <component glyphName="uni0326" x="592" y="0" flags="0x1000"/>
    </TTGlyph>
    <TTGlyph name="H" xMin="217" yMin="0" xMax="1409" yMax="1434">
      <contour>
        <pt x="1245" y="0" on="1"/>
        <pt x="1245" y="631" on="1"/>
        <pt x="381" y="631" on="1"/>
        <pt x="381" y="0" on="1"/>
        <pt x="217" y="0" on="1"/>
        <pt x="217" y="1434" on="1"/>
        <pt x="381" y="1434" on="1"/>
        <pt x="381" y="786" on="1"/>
        <pt x="1245" y="786" on="1"/>
        <pt x="1245" y="1434" on="1"/>
        <pt x="1409" y="1434" on="1"/>
        <pt x="1409" y="0" on="1"/>
      </contour>
    </TTGlyph>
    <TTGlyph name="I" xMin="217" yMin="0" xMax="381" yMax="1434">
      <contour>
        <pt x="217" y="0" on="1"/>
        <pt x="217" y="1434" on="1"/>
        <pt x="381" y="1434" on="1"/>
        <pt x="381" y="0" on="1"/>
      </contour>
    </TTGlyph>
    <TTGlyph name="IJ" xMin="217" yMin="-8" xMax="1405" yMax="1434">
      <component glyphName="I" x="0" y="0" flags="0x1000"/>
      <component glyphName="J" x="598" y="0" flags="0x1000"/>
    </TTGlyph>
    <TTGlyph name="Iacute" xMin="189" yMin="0" xMax="596" yMax="1890">
      <component glyphName="I" x="0" y="0" flags="0x1000"/>
      <component glyphName="acute" x="35" y="354" flags="0x1000"/>
    </TTGlyph>
    <TTGlyph name="Icircumflex" xMin="13" yMin="0" xMax="586" yMax="1882">
      <component glyphName="I" x="0" y="0" flags="0x1000"/>
      <component glyphName="circumflex" x="-59" y="350" flags="0x1000"/>
    </TTGlyph>
    <TTGlyph name="Idieresis" xMin="31" yMin="0" xMax="567" yMax="1860">
      <contour>
        <pt x="170" y="1860" on="0"/>
        <pt x="227" y="1800" on="0"/>
        <pt x="227" y="1755" on="1"/>
        <pt x="227" y="1710" on="0"/>
        <pt x="170" y="1649" on="0"/>
        <pt x="129" y="1649" on="1"/>
        <pt x="88" y="1649" on="0"/>
        <pt x="31" y="1710" on="0"/>
        <pt x="31" y="1755" on="1"/>
        <pt x="31" y="1800" on="0"/>
        <pt x="88" y="1860" on="0"/>
        <pt x="129" y="1860" on="1"/>
      </contour>
      <contour>
        <pt x="510" y="1860" on="0"/>
        <pt x="567" y="1800" on="0"/>
        <pt x="567" y="1755" on="1"/>
        <pt x="567" y="1710" on="0"/>
        <pt x="510" y="1649" on="0"/>
        <pt x="469" y="1649" on="1"/>
        <pt x="428" y="1649" on="0"/>
        <pt x="371" y="1710" on="0"/>
        <pt x="371" y="1755" on="1"/>
        <pt x="371" y="1800" on="0"/>
        <pt x="428" y="1860" on="0"/>
        <pt x="469" y="1860" on="1"/>
      </contour>
      <contour>
        <pt x="217" y="0" on="1"/>
        <pt x="217" y="1434" on="1"/>
        <pt x="381" y="1434" on="1"/>
        <pt x="381" y="0" on="1"/>
      </contour>
    </TTGlyph>
    <TTGlyph name="Idotaccent" xMin="195" yMin="0" xMax="404" yMax="1853">
      <component glyphName="I" x="0" y="0" flags="0x1000"/>
      <component glyphName="dotaccent" x="-59" y="354" flags="0x1000"/>
    </TTGlyph>
    <TTGlyph name="Igrave" xMin="-9" yMin="0" xMax="401" yMax="1890">
      <component glyphName="I" x="0" y="0" flags="0x1000"/>
      <component glyphName="grave" x="-154" y="354" flags="0x1000"/>
    </TTGlyph>
    <TTGlyph name="Imacron" xMin="54" yMin="0" xMax="547" yMax="1804">
      <component glyphName="I" x="0" y="0" flags="0x1000"/>
      <component glyphName="macron" x="-59" y="354" flags="0x1000"/>
    </TTGlyph>
    <TTGlyph name="Iogonek" xMin="147" yMin="-410" xMax="475" yMax="1434">
      <contour>
        <pt x="442" y="-354" on="0"/>
        <pt x="348" y="-410" on="0"/>
        <pt x="297" y="-410" on="1"/>
        <pt x="236" y="-410" on="0"/>
        <pt x="147" y="-330" on="0"/>
        <pt x="147" y="-258" on="1"/>
        <pt x="147" y="-205" on="0"/>
        <pt x="205" y="-80" on="0"/>
        <pt x="262" y="2" on="1"/>
        <pt x="217" y="2" on="1"/>
        <pt x="217" y="1434" on="1"/>
        <pt x="381" y="1434" on="1"/>
        <pt x="381" y="0" on="1"/>
        <pt x="350" y="0" on="1"/>
        <pt x="241" y="-147" on="0"/>
        <pt x="242" y="-233" on="1"/>
        <pt x="242" y="-270" on="0"/>
        <pt x="283" y="-311" on="0"/>
        <pt x="313" y="-311" on="1"/>
        <pt x="366" y="-311" on="0"/>
        <pt x="424" y="-244" on="1"/>
        <pt x="475" y="-305" on="1"/>
      </contour>
    </TTGlyph>
    <TTGlyph name="Itilde" xMin="-6" yMin="0" xMax="607" yMax="1880">
      <component glyphName="I" x="0" y="0" flags="0x1000"/>
      <component glyphName="tilde" x="-59" y="354" flags="0x1000"/>
    </TTGlyph>
    <TTGlyph name="J" xMin="0" yMin="-8" xMax="807" yMax="1434">
      <contour>
        <pt x="807" y="221" on="0"/>
        <pt x="590" y="-8" on="0"/>
        <pt x="397" y="-8" on="1"/>
        <pt x="278" y="-8" on="0"/>
        <pt x="76" y="98" on="0"/>
        <pt x="0" y="197" on="1"/>
        <pt x="82" y="328" on="1"/>
        <pt x="150" y="248" on="0"/>
        <pt x="311" y="162" on="0"/>
        <pt x="395" y="162" on="1"/>
        <pt x="514" y="162" on="0"/>
        <pt x="641" y="301" on="0"/>
        <pt x="641" y="434" on="1"/>
        <pt x="641" y="1276" on="1"/>
        <pt x="129" y="1276" on="1"/>
        <pt x="129" y="1434" on="1"/>
        <pt x="807" y="1434" on="1"/>
        <pt x="807" y="430" on="1"/>
      </contour>
    </TTGlyph>
    <TTGlyph name="Jcircumflex" xMin="0" yMin="-8" xMax="807" yMax="1882">
      <component glyphName="J" x="0" y="0" flags="0x1000"/>
      <component glyphName="circumflex" x="102" y="350" flags="0x1000"/>
    </TTGlyph>
    <TTGlyph name="K" xMin="217" yMin="0" xMax="1389" yMax="1434">
      <contour>
        <pt x="659" y="680" on="1"/>
        <pt x="381" y="375" on="1"/>
        <pt x="381" y="0" on="1"/>
        <pt x="217" y="0" on="1"/>
        <pt x="217" y="1434" on="1"/>
        <pt x="381" y="1434" on="1"/>
        <pt x="381" y="608" on="1"/>
        <pt x="1151" y="1434" on="1"/>
        <pt x="1346" y="1434" on="1"/>
        <pt x="778" y="811" on="1"/>
        <pt x="1389" y="0" on="1"/>
        <pt x="1188" y="0" on="1"/>
      </contour>
    </TTGlyph>
    <TTGlyph name="Kcommaaccent" xMin="217" yMin="-453" xMax="1389" yMax="1434">
      <component glyphName="K" x="0" y="0" flags="0x1000"/>
      <component glyphName="uni0326" x="514" y="0" flags="0x1000"/>
    </TTGlyph>
    <TTGlyph name="L" xMin="217" yMin="0" xMax="1010" yMax="1434">
      <contour>
        <pt x="1010" y="156" on="1"/>
        <pt x="1010" y="0" on="1"/>
        <pt x="217" y="0" on="1"/>
        <pt x="217" y="1434" on="1"/>
        <pt x="381" y="1434" on="1"/>
        <pt x="381" y="156" on="1"/>
      </contour>
    </TTGlyph>
    <TTGlyph name="Lacute" xMin="201" yMin="0" xMax="1010" yMax="1890">
      <component glyphName="L" x="0" y="0" flags="0x1000"/>
      <component glyphName="acute" x="47" y="354" flags="0x1000"/>
    </TTGlyph>
    <TTGlyph name="Lcaron" xMin="217" yMin="0" xMax="1010" yMax="1434">
      <component glyphName="L" x="0" y="0" flags="0x1000"/>
      <component glyphName="quoteright" x="674" y="-66" flags="0x1000"/>
    </TTGlyph>
    <TTGlyph name="Lcommaaccent" xMin="217" yMin="-453" xMax="1010" yMax="1434">
      <component glyphName="L" x="0" y="0" flags="0x1000"/>
      <component glyphName="uni0326" x="397" y="0" flags="0x1000"/>
    </TTGlyph>
    <TTGlyph name="Ldot" xMin="217" yMin="0" xMax="1010" yMax="1434">
      <component glyphName="L" x="0" y="0" flags="0x1000"/>
      <component glyphName="periodcentered" x="590" y="344" flags="0x1000"/>
    </TTGlyph>
    <TTGlyph name="Lslash" xMin="35" yMin="0" xMax="1040" yMax="1434">
      <contour>
        <pt x="1040" y="0" on="1"/>
        <pt x="248" y="0" on="1"/>
        <pt x="248" y="805" on="1"/>
        <pt x="66" y="752" on="1"/>
        <pt x="35" y="866" on="1"/>
        <pt x="248" y="930" on="1"/>
        <pt x="248" y="1434" on="1"/>
        <pt x="412" y="1434" on="1"/>
        <pt x="412" y="977" on="1"/>
        <pt x="756" y="1079" on="1"/>
        <pt x="786" y="963" on="1"/>
        <pt x="412" y="852" on="1"/>
        <pt x="410" y="156" on="1"/>
        <pt x="1040" y="156" on="1"/>
      </contour>
    </TTGlyph>
    <TTGlyph name="M" xMin="217" yMin="0" xMax="1667" yMax="1434">
      <contour>
        <pt x="1516" y="0" on="1"/>
        <pt x="1513" y="1182" on="1"/>
        <pt x="991" y="152" on="1"/>
        <pt x="893" y="152" on="1"/>
        <pt x="373" y="1182" on="1"/>
        <pt x="373" y="0" on="1"/>
        <pt x="217" y="0" on="1"/>
        <pt x="217" y="1434" on="1"/>
        <pt x="420" y="1434" on="1"/>
        <pt x="944" y="401" on="1"/>
        <pt x="1466" y="1434" on="1"/>
        <pt x="1667" y="1434" on="1"/>
        <pt x="1667" y="0" on="1"/>
      </contour>
    </TTGlyph>
    <TTGlyph name="N" xMin="217" yMin="0" xMax="1409" yMax="1434">
      <contour>
        <pt x="1241" y="0" on="1"/>
        <pt x="381" y="1151" on="1"/>
        <pt x="381" y="0" on="1"/>
        <pt x="217" y="0" on="1"/>
        <pt x="217" y="1434" on="1"/>
        <pt x="387" y="1434" on="1"/>
        <pt x="1247" y="281" on="1"/>
        <pt x="1247" y="1434" on="1"/>
        <pt x="1409" y="1434" on="1"/>
        <pt x="1409" y="0" on="1"/>
      </contour>
    </TTGlyph>
    <TTGlyph name="Nacute" xMin="217" yMin="0" xMax="1409" yMax="1890">
      <component glyphName="N" x="0" y="0" flags="0x1000"/>
      <component glyphName="acute" x="551" y="354" flags="0x1000"/>
    </TTGlyph>
    <TTGlyph name="Ncaron" xMin="217" yMin="0" xMax="1409" yMax="1882">
      <component glyphName="N" x="0" y="0" flags="0x1000"/>
      <component glyphName="caron" x="453" y="350" flags="0x1000"/>
    </TTGlyph>
    <TTGlyph name="Ncommaaccent" xMin="217" yMin="-453" xMax="1409" yMax="1434">
      <component glyphName="N" x="0" y="0" flags="0x1000"/>
      <component glyphName="uni0326" x="621" y="0" flags="0x1000"/>
    </TTGlyph>
    <TTGlyph name="Ntilde" xMin="217" yMin="0" xMax="1409" yMax="1880">
      <component glyphName="N" x="0" y="0" flags="0x1000"/>
      <component glyphName="tilde" x="455" y="354" flags="0x1000"/>
    </TTGlyph>
    <TTGlyph name="O" xMin="82" yMin="-8" xMax="1583" yMax="1438">
      <contour>
        <pt x="1038" y="1438" on="0"/>
        <pt x="1382" y="1245" on="0"/>
        <pt x="1583" y="915" on="0"/>
        <pt x="1583" y="717" on="1"/>
        <pt x="1583" y="518" on="0"/>
        <pt x="1382" y="186" on="0"/>
        <pt x="1038" y="-8" on="0"/>
        <pt x="834" y="-8" on="1"/>
        <pt x="627" y="-8" on="0"/>
        <pt x="283" y="186" on="0"/>
        <pt x="82" y="518" on="0"/>
        <pt x="82" y="717" on="1"/>
        <pt x="82" y="916" on="0"/>
        <pt x="283" y="1247" on="0"/>
        <pt x="627" y="1438" on="0"/>
        <pt x="834" y="1438" on="1"/>
      </contour>
      <contour>
        <pt x="676" y="1282" on="0"/>
        <pt x="408" y="1130" on="0"/>
        <pt x="248" y="872" on="0"/>
        <pt x="248" y="717" on="1"/>
        <pt x="248" y="561" on="0"/>
        <pt x="408" y="301" on="0"/>
        <pt x="676" y="150" on="0"/>
        <pt x="834" y="150" on="1"/>
        <pt x="992" y="150" on="0"/>
        <pt x="1257" y="301" on="0"/>
        <pt x="1415" y="561" on="0"/>
        <pt x="1415" y="717" on="1"/>
        <pt x="1415" y="873" on="0"/>
        <pt x="1257" y="1130" on="0"/>
        <pt x="991" y="1282" on="0"/>
        <pt x="834" y="1282" on="1"/>
      </contour>
    </TTGlyph>
    <TTGlyph name="OE" xMin="82" yMin="0" xMax="2124" yMax="1434">
      <contour>
        <pt x="2124" y="0" on="1"/>
        <pt x="831" y="0" on="1"/>
        <pt x="626" y="0" on="0"/>
        <pt x="283" y="190" on="0"/>
        <pt x="82" y="520" on="0"/>
        <pt x="82" y="717" on="1"/>
        <pt x="82" y="914" on="0"/>
        <pt x="283" y="1243" on="0"/>
        <pt x="627" y="1434" on="0"/>
        <pt x="831" y="1434" on="1"/>
        <pt x="2097" y="1434" on="1"/>
        <pt x="2097" y="1276" on="1"/>
        <pt x="1286" y="1276" on="1"/>
        <pt x="1286" y="803" on="1"/>
        <pt x="2011" y="803" on="1"/>
        <pt x="2011" y="647" on="1"/>
        <pt x="1286" y="647" on="1"/>
        <pt x="1286" y="158" on="1"/>
        <pt x="2124" y="158" on="1"/>
      </contour>
      <contour>
        <pt x="1124" y="1276" on="1"/>
        <pt x="834" y="1276" on="1"/>
        <pt x="674" y="1276" on="0"/>
        <pt x="403" y="1126" on="0"/>
        <pt x="248" y="870" on="0"/>
        <pt x="248" y="715" on="1"/>
        <pt x="248" y="559" on="0"/>
        <pt x="403" y="303" on="0"/>
        <pt x="674" y="156" on="0"/>
        <pt x="834" y="156" on="1"/>
        <pt x="1124" y="154" on="1"/>
      </contour>
    </TTGlyph>
    <TTGlyph name="Oacute" xMin="82" yMin="-8" xMax="1583" yMax="1890">
      <component glyphName="O" x="0" y="0" flags="0x1000"/>
      <component glyphName="acute" x="563" y="354" flags="0x1000"/>
    </TTGlyph>
    <TTGlyph name="Ocircumflex" xMin="82" yMin="-8" xMax="1583" yMax="1882">
      <component glyphName="O" x="0" y="0" flags="0x1000"/>
      <component glyphName="circumflex" x="469" y="350" flags="0x1000"/>
    </TTGlyph>
    <TTGlyph name="Odieresis" xMin="82" yMin="-8" xMax="1583" yMax="1807">
      <component glyphName="O" x="0" y="0" flags="0x1000"/>
      <component glyphName="dotaccent" x="462" y="392" scale="0.943786621094" flags="0x1000"/>
      <component glyphName="dotaccent" x="462" y="392" scale="0.943786621094" flags="0x1000"/>
    </TTGlyph>
    <TTGlyph name="Ograve" xMin="82" yMin="-8" xMax="1583" yMax="1890">
      <component glyphName="O" x="0" y="0" flags="0x1000"/>
      <component glyphName="grave" x="375" y="354" flags="0x1000"/>
    </TTGlyph>
    <TTGlyph name="Ohungarumlaut" xMin="82" yMin="-8" xMax="1583" yMax="1896">
      <component glyphName="O" x="0" y="0" flags="0x1000"/>
      <component glyphName="hungarumlaut" x="518" y="350" flags="0x1000"/>
    </TTGlyph>
    <TTGlyph name="Omacron" xMin="82" yMin="-8" xMax="1583" yMax="1804">
      <component glyphName="O" x="0" y="0" flags="0x1000"/>
      <component glyphName="macron" x="467" y="354" flags="0x1000"/>
    </TTGlyph>
    <TTGlyph name="Omega" xMin="23" yMin="0" xMax="1821" yMax="1440">
      <contour>
        <pt x="1130" y="1440" on="0"/>
        <pt x="1466" y="1260" on="0"/>
        <pt x="1657" y="944" on="0"/>
        <pt x="1657" y="750" on="1"/>
        <pt x="1657" y="582" on="0"/>
        <pt x="1483" y="244" on="0"/>
        <pt x="1346" y="147" on="1"/>
        <pt x="1821" y="147" on="1"/>
        <pt x="1821" y="0" on="1"/>
        <pt x="1161" y="0" on="1"/>
        <pt x="1161" y="139" on="1"/>
        <pt x="1313" y="221" on="0"/>
        <pt x="1509" y="559" on="0"/>
        <pt x="1509" y="735" on="1"/>
        <pt x="1509" y="893" on="0"/>
        <pt x="1358" y="1145" on="0"/>
        <pt x="1090" y="1288" on="0"/>
        <pt x="922" y="1288" on="1"/>
        <pt x="754" y="1288" on="0"/>
        <pt x="485" y="1145" on="0"/>
        <pt x="334" y="893" on="0"/>
        <pt x="334" y="735" on="1"/>
        <pt x="334" y="559" on="0"/>
        <pt x="530" y="221" on="0"/>
        <pt x="682" y="137" on="1"/>
        <pt x="682" y="0" on="1"/>
        <pt x="23" y="0" on="1"/>
        <pt x="23" y="147" on="1"/>
        <pt x="496" y="147" on="1"/>
        <pt x="359" y="243" on="0"/>
        <pt x="186" y="580" on="0"/>
        <pt x="186" y="750" on="1"/>
        <pt x="186" y="945" on="0"/>
        <pt x="377" y="1260" on="0"/>
        <pt x="713" y="1440" on="0"/>
        <pt x="922" y="1440" on="1"/>
      </contour>
    </TTGlyph>
    <TTGlyph name="Oslash" xMin="82" yMin="-262" xMax="1583" yMax="1665">
      <contour>
        <pt x="1231" y="1350" on="0"/>
        <pt x="1456" y="1149" on="0"/>
        <pt x="1583" y="872" on="0"/>
        <pt x="1583" y="717" on="1"/>
        <pt x="1583" y="518" on="0"/>
        <pt x="1382" y="186" on="0"/>
        <pt x="1038" y="-8" on="0"/>
        <pt x="834" y="-8" on="1"/>
        <pt x="734" y="-8" on="0"/>
        <pt x="627" y="18" on="1"/>
        <pt x="535" y="-262" on="1"/>
        <pt x="430" y="-262" on="1"/>
        <pt x="535" y="51" on="1"/>
        <pt x="330" y="135" on="0"/>
        <pt x="82" y="494" on="0"/>
        <pt x="82" y="717" on="1"/>
        <pt x="82" y="916" on="0"/>
        <pt x="283" y="1247" on="0"/>
        <pt x="627" y="1438" on="0"/>
        <pt x="834" y="1438" on="1"/>
        <pt x="900" y="1438" on="0"/>
        <pt x="989" y="1423" on="1"/>
        <pt x="1069" y="1665" on="1"/>
        <pt x="1174" y="1665" on="1"/>
        <pt x="1085" y="1397" on="1"/>
      </contour>
      <contour>
        <pt x="248" y="549" on="0"/>
        <pt x="432" y="272" on="0"/>
        <pt x="584" y="203" on="1"/>
        <pt x="940" y="1272" on="1"/>
        <pt x="883" y="1282" on="0"/>
        <pt x="834" y="1282" on="1"/>
        <pt x="676" y="1282" on="0"/>
        <pt x="408" y="1130" on="0"/>
        <pt x="248" y="872" on="0"/>
        <pt x="248" y="717" on="1"/>
      </contour>
      <contour>
        <pt x="991" y="150" on="0"/>
        <pt x="1257" y="301" on="0"/>
        <pt x="1415" y="561" on="0"/>
        <pt x="1415" y="717" on="1"/>
        <pt x="1415" y="897" on="0"/>
        <pt x="1204" y="1186" on="0"/>
        <pt x="1034" y="1247" on="1"/>
        <pt x="678" y="170" on="1"/>
        <pt x="748" y="150" on="0"/>
        <pt x="834" y="150" on="1"/>
      </contour>
    </TTGlyph>
    <TTGlyph name="Otilde" xMin="82" yMin="-8" xMax="1583" yMax="1880">
      <component glyphName="O" x="0" y="0" flags="0x1000"/>
      <component glyphName="tilde" x="467" y="354" flags="0x1000"/>
    </TTGlyph>
    <TTGlyph name="P" xMin="217" yMin="0" xMax="1315" yMax="1434">
      <contour>
        <pt x="1022" y="1434" on="0"/>
        <pt x="1315" y="1182" on="0"/>
        <pt x="1315" y="952" on="1"/>
        <pt x="1315" y="714" on="0"/>
        <pt x="1022" y="453" on="0"/>
        <pt x="756" y="453" on="1"/>
        <pt x="381" y="453" on="1"/>
        <pt x="381" y="0" on="1"/>
        <pt x="217" y="0" on="1"/>
        <pt x="217" y="1434" on="1"/>
        <pt x="756" y="1434" on="1"/>
      </contour>
      <contour>
        <pt x="381" y="610" on="1"/>
        <pt x="750" y="610" on="1"/>
        <pt x="947" y="610" on="0"/>
        <pt x="1157" y="782" on="0"/>
        <pt x="1157" y="948" on="1"/>
        <pt x="1157" y="1110" on="0"/>
        <pt x="946" y="1276" on="0"/>
        <pt x="750" y="1276" on="1"/>
        <pt x="381" y="1276" on="1"/>
      </contour>
    </TTGlyph>
    <TTGlyph name="Q" xMin="82" yMin="-295" xMax="1667" yMax="1438">
      <contour>
        <pt x="1585" y="-213" on="0"/>
        <pt x="1395" y="-295" on="0"/>
        <pt x="1300" y="-295" on="1"/>
        <pt x="1056" y="-295" on="0"/>
        <pt x="850" y="-8" on="1"/>
        <pt x="834" y="-8" on="1"/>
        <pt x="627" y="-8" on="0"/>
        <pt x="283" y="186" on="0"/>
        <pt x="82" y="518" on="0"/>
        <pt x="82" y="717" on="1"/>
        <pt x="82" y="916" on="0"/>
        <pt x="283" y="1247" on="0"/>
        <pt x="627" y="1438" on="0"/>
        <pt x="834" y="1438" on="1"/>
        <pt x="1039" y="1438" on="0"/>
        <pt x="1382" y="1245" on="0"/>
        <pt x="1583" y="915" on="0"/>
        <pt x="1583" y="717" on="1"/>
        <pt x="1583" y="551" on="0"/>
        <pt x="1440" y="260" on="0"/>
        <pt x="1188" y="55" on="0"/>
        <pt x="1028" y="16" on="1"/>
        <pt x="1178" y="-144" on="0"/>
        <pt x="1319" y="-143" on="1"/>
        <pt x="1444" y="-143" on="0"/>
        <pt x="1595" y="-14" on="1"/>
        <pt x="1667" y="-137" on="1"/>
      </contour>
      <contour>
        <pt x="248" y="561" on="0"/>
        <pt x="408" y="301" on="0"/>
        <pt x="676" y="150" on="0"/>
        <pt x="834" y="150" on="1"/>
        <pt x="992" y="150" on="0"/>
        <pt x="1257" y="301" on="0"/>
        <pt x="1415" y="561" on="0"/>
        <pt x="1415" y="717" on="1"/>
        <pt x="1415" y="873" on="0"/>
        <pt x="1257" y="1130" on="0"/>
        <pt x="991" y="1282" on="0"/>
        <pt x="834" y="1282" on="1"/>
        <pt x="676" y="1282" on="0"/>
        <pt x="408" y="1130" on="0"/>
        <pt x="248" y="872" on="0"/>
        <pt x="248" y="717" on="1"/>
      </contour>
    </TTGlyph>
    <TTGlyph name="R" xMin="217" yMin="0" xMax="1341" yMax="1434">
      <contour>
        <pt x="858" y="457" on="1"/>
        <pt x="797" y="453" on="0"/>
        <pt x="762" y="453" on="1"/>
        <pt x="381" y="453" on="1"/>
        <pt x="381" y="0" on="1"/>
        <pt x="217" y="0" on="1"/>
        <pt x="217" y="1434" on="1"/>
        <pt x="762" y="1434" on="1"/>
        <pt x="1030" y="1434" on="0"/>
        <pt x="1327" y="1182" on="0"/>
        <pt x="1327" y="952" on="1"/>
        <pt x="1327" y="776" on="0"/>
        <pt x="1161" y="539" on="0"/>
        <pt x="1006" y="487" on="1"/>
        <pt x="1341" y="0" on="1"/>
        <pt x="1155" y="0" on="1"/>
      </contour>
      <contour>
        <pt x="958" y="610" on="0"/>
        <pt x="1169" y="782" on="0"/>
        <pt x="1169" y="948" on="1"/>
        <pt x="1169" y="1110" on="0"/>
        <pt x="958" y="1276" on="0"/>
        <pt x="762" y="1276" on="1"/>
        <pt x="381" y="1276" on="1"/>
        <pt x="381" y="610" on="1"/>
        <pt x="762" y="610" on="1"/>
      </contour>
    </TTGlyph>
    <TTGlyph name="Racute" xMin="217" yMin="0" xMax="1341" yMax="1890">
      <component glyphName="R" x="0" y="0" flags="0x1000"/>
      <component glyphName="acute" x="453" y="354" flags="0x1000"/>
    </TTGlyph>
    <TTGlyph name="Rcaron" xMin="217" yMin="0" xMax="1341" yMax="1882">
      <component glyphName="R" x="0" y="0" flags="0x1000"/>
      <component glyphName="caron" x="354" y="350" flags="0x1000"/>
    </TTGlyph>
    <TTGlyph name="Rcommaaccent" xMin="217" yMin="-453" xMax="1341" yMax="1434">
      <component glyphName="R" x="0" y="0" flags="0x1000"/>
      <component glyphName="uni0326" x="543" y="0" flags="0x1000"/>
    </TTGlyph>
    <TTGlyph name="S" xMin="66" yMin="-6" xMax="1133" yMax="1440">
      <contour>
        <pt x="766" y="1440" on="0"/>
        <pt x="1008" y="1368" on="0"/>
        <pt x="1098" y="1307" on="1"/>
        <pt x="1028" y="1153" on="1"/>
        <pt x="936" y="1214" on="0"/>
        <pt x="727" y="1274" on="0"/>
        <pt x="633" y="1274" on="1"/>
        <pt x="494" y="1274" on="0"/>
        <pt x="328" y="1174" on="0"/>
        <pt x="328" y="1083" on="1"/>
        <pt x="328" y="1005" on="0"/>
        <pt x="420" y="903" on="0"/>
        <pt x="559" y="846" on="0"/>
        <pt x="680" y="809" on="1"/>
        <pt x="827" y="762" on="0"/>
        <pt x="1006" y="680" on="0"/>
        <pt x="1133" y="520" on="0"/>
        <pt x="1133" y="389" on="1"/>
        <pt x="1133" y="270" on="0"/>
        <pt x="1004" y="92" on="0"/>
        <pt x="768" y="-6" on="0"/>
        <pt x="614" y="-6" on="1"/>
        <pt x="460" y="-6" on="0"/>
        <pt x="170" y="113" on="0"/>
        <pt x="66" y="213" on="1"/>
        <pt x="139" y="360" on="1"/>
        <pt x="237" y="264" on="0"/>
        <pt x="494" y="158" on="0"/>
        <pt x="616" y="158" on="1"/>
        <pt x="772" y="158" on="0"/>
        <pt x="952" y="279" on="0"/>
        <pt x="952" y="381" on="1"/>
        <pt x="952" y="461" on="0"/>
        <pt x="858" y="565" on="0"/>
        <pt x="719" y="623" on="0"/>
        <pt x="598" y="659" on="1"/>
        <pt x="453" y="702" on="0"/>
        <pt x="272" y="782" on="0"/>
        <pt x="147" y="940" on="0"/>
        <pt x="147" y="1069" on="1"/>
        <pt x="147" y="1180" on="0"/>
        <pt x="270" y="1348" on="0"/>
        <pt x="496" y="1440" on="0"/>
        <pt x="643" y="1440" on="1"/>
      </contour>
    </TTGlyph>
    <TTGlyph name="Sacute" xMin="66" yMin="-6" xMax="1133" yMax="1890">
      <component glyphName="S" x="0" y="0" flags="0x1000"/>
      <component glyphName="acute" x="365" y="354" flags="0x1000"/>
    </TTGlyph>
    <TTGlyph name="Scaron" xMin="66" yMin="-6" xMax="1133" yMax="1882">
      <component glyphName="S" x="0" y="0" flags="0x1000"/>
      <component glyphName="caron" x="266" y="350" flags="0x1000"/>
    </TTGlyph>
    <TTGlyph name="Scedilla" xMin="66" yMin="-440" xMax="1133" yMax="1440">
      <contour>
        <pt x="328" y="1006" on="0"/>
        <pt x="420" y="903" on="0"/>
        <pt x="559" y="846" on="0"/>
        <pt x="680" y="809" on="1"/>
        <pt x="827" y="762" on="0"/>
        <pt x="1006" y="680" on="0"/>
        <pt x="1133" y="520" on="0"/>
        <pt x="1133" y="389" on="1"/>
        <pt x="1133" y="229" on="0"/>
        <pt x="907" y="23" on="0"/>
        <pt x="715" y="0" on="1"/>
        <pt x="670" y="-102" on="1"/>
        <pt x="736" y="-110" on="0"/>
        <pt x="815" y="-193" on="0"/>
        <pt x="815" y="-258" on="1"/>
        <pt x="817" y="-340" on="0"/>
        <pt x="705" y="-440" on="0"/>
        <pt x="616" y="-440" on="1"/>
        <pt x="571" y="-440" on="0"/>
        <pt x="481" y="-414" on="0"/>
        <pt x="451" y="-391" on="1"/>
        <pt x="485" y="-303" on="1"/>
        <pt x="510" y="-323" on="0"/>
        <pt x="575" y="-344" on="0"/>
        <pt x="606" y="-344" on="1"/>
        <pt x="655" y="-344" on="0"/>
        <pt x="717" y="-287" on="0"/>
        <pt x="715" y="-248" on="1"/>
        <pt x="715" y="-213" on="0"/>
        <pt x="659" y="-162" on="0"/>
        <pt x="612" y="-162" on="1"/>
        <pt x="573" y="-162" on="0"/>
        <pt x="545" y="-168" on="1"/>
        <pt x="612" y="-6" on="1"/>
        <pt x="458" y="-6" on="0"/>
        <pt x="170" y="113" on="0"/>
        <pt x="66" y="213" on="1"/>
        <pt x="139" y="360" on="1"/>
        <pt x="237" y="264" on="0"/>
        <pt x="494" y="158" on="0"/>
        <pt x="616" y="158" on="1"/>
        <pt x="772" y="158" on="0"/>
        <pt x="952" y="279" on="0"/>
        <pt x="952" y="381" on="1"/>
        <pt x="952" y="461" on="0"/>
        <pt x="858" y="565" on="0"/>
        <pt x="719" y="623" on="0"/>
        <pt x="598" y="659" on="1"/>
        <pt x="453" y="702" on="0"/>
        <pt x="272" y="782" on="0"/>
        <pt x="147" y="940" on="0"/>
        <pt x="147" y="1069" on="1"/>
        <pt x="147" y="1180" on="0"/>
        <pt x="270" y="1348" on="0"/>
        <pt x="496" y="1440" on="0"/>
        <pt x="643" y="1440" on="1"/>
        <pt x="766" y="1440" on="0"/>
        <pt x="1008" y="1368" on="0"/>
        <pt x="1098" y="1307" on="1"/>
        <pt x="1028" y="1153" on="1"/>
        <pt x="936" y="1214" on="0"/>
        <pt x="727" y="1274" on="0"/>
        <pt x="633" y="1274" on="1"/>
        <pt x="494" y="1274" on="0"/>
        <pt x="328" y="1174" on="0"/>
        <pt x="328" y="1083" on="1"/>
      </contour>
    </TTGlyph>
    <TTGlyph name="Scommaaccent" xMin="66" yMin="-453" xMax="1133" yMax="1440">
      <component glyphName="S" x="0" y="0" flags="0x1000"/>
      <component glyphName="uni0326" x="438" y="0" flags="0x1000"/>
    </TTGlyph>
    <TTGlyph name="T" xMin="23" yMin="0" xMax="1122" yMax="1434">
      <contour>
        <pt x="653" y="1276" on="1"/>
        <pt x="653" y="0" on="1"/>
        <pt x="489" y="0" on="1"/>
        <pt x="489" y="1276" on="1"/>
        <pt x="23" y="1276" on="1"/>
        <pt x="23" y="1434" on="1"/>
        <pt x="1122" y="1434" on="1"/>
        <pt x="1122" y="1276" on="1"/>
      </contour>
    </TTGlyph>
    <TTGlyph name="Tcaron" xMin="23" yMin="0" xMax="1122" yMax="1882">
      <component glyphName="T" x="0" y="0" flags="0x1000"/>
      <component glyphName="caron" x="219" y="350" flags="0x1000"/>
    </TTGlyph>
    <TTGlyph name="Tcedilla" xMin="23" yMin="-440" xMax="1122" yMax="1434">
      <contour>
        <pt x="580" y="-102" on="1"/>
        <pt x="646" y="-110" on="0"/>
        <pt x="725" y="-193" on="0"/>
        <pt x="725" y="-258" on="1"/>
        <pt x="727" y="-340" on="0"/>
        <pt x="614" y="-440" on="0"/>
        <pt x="526" y="-440" on="1"/>
        <pt x="481" y="-440" on="0"/>
        <pt x="391" y="-414" on="0"/>
        <pt x="360" y="-391" on="1"/>
        <pt x="395" y="-303" on="1"/>
        <pt x="420" y="-323" on="0"/>
        <pt x="485" y="-344" on="0"/>
        <pt x="516" y="-344" on="1"/>
        <pt x="565" y="-344" on="0"/>
        <pt x="627" y="-287" on="0"/>
        <pt x="625" y="-248" on="1"/>
        <pt x="625" y="-213" on="0"/>
        <pt x="569" y="-162" on="0"/>
        <pt x="522" y="-162" on="1"/>
        <pt x="481" y="-162" on="0"/>
        <pt x="455" y="-168" on="1"/>
        <pt x="524" y="0" on="1"/>
        <pt x="489" y="0" on="1"/>
        <pt x="489" y="1276" on="1"/>
        <pt x="23" y="1276" on="1"/>
        <pt x="23" y="1434" on="1"/>
        <pt x="1122" y="1434" on="1"/>
        <pt x="1122" y="1276" on="1"/>
        <pt x="653" y="1276" on="1"/>
        <pt x="653" y="0" on="1"/>
        <pt x="625" y="0" on="1"/>
      </contour>
    </TTGlyph>
    <TTGlyph name="Thorn" xMin="217" yMin="0" xMax="1321" yMax="1434">
      <contour>
        <pt x="1010" y="1221" on="0"/>
        <pt x="1321" y="981" on="0"/>
        <pt x="1321" y="752" on="1"/>
        <pt x="1321" y="514" on="0"/>
        <pt x="1010" y="264" on="0"/>
        <pt x="713" y="264" on="1"/>
        <pt x="381" y="264" on="1"/>
        <pt x="381" y="0" on="1"/>
        <pt x="217" y="0" on="1"/>
        <pt x="217" y="1434" on="1"/>
        <pt x="381" y="1434" on="1"/>
        <pt x="381" y="1221" on="1"/>
        <pt x="713" y="1221" on="1"/>
      </contour>
      <contour>
        <pt x="1153" y="408" on="0"/>
        <pt x="1153" y="748" on="1"/>
        <pt x="1153" y="1078" on="0"/>
        <pt x="707" y="1077" on="1"/>
        <pt x="381" y="1077" on="1"/>
        <pt x="381" y="408" on="1"/>
        <pt x="707" y="408" on="1"/>
      </contour>
    </TTGlyph>
    <TTGlyph name="U" xMin="184" yMin="-8" xMax="1389" yMax="1434">
      <contour>
        <pt x="1389" y="309" on="0"/>
        <pt x="1069" y="-8" on="0"/>
        <pt x="788" y="-8" on="1"/>
        <pt x="505" y="-8" on="0"/>
        <pt x="184" y="309" on="0"/>
        <pt x="184" y="590" on="1"/>
        <pt x="184" y="1434" on="1"/>
        <pt x="348" y="1434" on="1"/>
        <pt x="348" y="590" on="1"/>
        <pt x="348" y="383" on="0"/>
        <pt x="584" y="150" on="0"/>
        <pt x="788" y="150" on="1"/>
        <pt x="993" y="150" on="0"/>
        <pt x="1225" y="381" on="0"/>
        <pt x="1225" y="590" on="1"/>
        <pt x="1225" y="1434" on="1"/>
        <pt x="1389" y="1434" on="1"/>
        <pt x="1389" y="590" on="1"/>
      </contour>
    </TTGlyph>
    <TTGlyph name="Uacute" xMin="184" yMin="-8" xMax="1389" yMax="1890">
      <component glyphName="U" x="0" y="0" flags="0x1000"/>
      <component glyphName="acute" x="524" y="354" flags="0x1000"/>
    </TTGlyph>
    <TTGlyph name="Ucircumflex" xMin="184" yMin="-8" xMax="1389" yMax="1882">
      <component glyphName="U" x="0" y="0" flags="0x1000"/>
      <component glyphName="circumflex" x="428" y="350" flags="0x1000"/>
    </TTGlyph>
    <TTGlyph name="Udieresis" xMin="184" yMin="-8" xMax="1389" yMax="1807">
      <component glyphName="U" x="0" y="0" flags="0x1000"/>
      <component glyphName="dotaccent" x="423" y="392" scale="0.943786621094" flags="0x1000"/>
      <component glyphName="dotaccent" x="423" y="392" scale="0.943786621094" flags="0x1000"/>
    </TTGlyph>
    <TTGlyph name="Ugrave" xMin="184" yMin="-8" xMax="1389" yMax="1890">
      <component glyphName="U" x="0" y="0" flags="0x1000"/>
      <component glyphName="grave" x="336" y="354" flags="0x1000"/>
    </TTGlyph>
    <TTGlyph name="Uhungarumlaut" xMin="184" yMin="-8" xMax="1389" yMax="1896">
      <component glyphName="U" x="0" y="0" flags="0x1000"/>
      <component glyphName="hungarumlaut" x="477" y="350" flags="0x1000"/>
    </TTGlyph>
    <TTGlyph name="Umacron" xMin="184" yMin="-8" xMax="1389" yMax="1804">
      <component glyphName="U" x="0" y="0" flags="0x1000"/>
      <component glyphName="macron" x="428" y="354" flags="0x1000"/>
    </TTGlyph>
    <TTGlyph name="Uogonek" xMin="184" yMin="-410" xMax="1389" yMax="1434">
      <contour>
        <pt x="1389" y="590" on="1"/>
        <pt x="1389" y="363" on="0"/>
        <pt x="1178" y="66" on="0"/>
        <pt x="985" y="16" on="1"/>
        <pt x="864" y="-144" on="0"/>
        <pt x="864" y="-233" on="1"/>
        <pt x="864" y="-270" on="0"/>
        <pt x="905" y="-311" on="0"/>
        <pt x="936" y="-311" on="1"/>
        <pt x="989" y="-311" on="0"/>
        <pt x="1047" y="-244" on="1"/>
        <pt x="1100" y="-305" on="1"/>
        <pt x="1065" y="-354" on="0"/>
        <pt x="971" y="-410" on="0"/>
        <pt x="922" y="-410" on="1"/>
        <pt x="859" y="-410" on="0"/>
        <pt x="772" y="-332" on="0"/>
        <pt x="772" y="-258" on="1"/>
        <pt x="772" y="-205" on="0"/>
        <pt x="825" y="-84" on="0"/>
        <pt x="881" y="-4" on="1"/>
        <pt x="824" y="-8" on="0"/>
        <pt x="788" y="-8" on="1"/>
        <pt x="505" y="-8" on="0"/>
        <pt x="184" y="309" on="0"/>
        <pt x="184" y="590" on="1"/>
        <pt x="184" y="1434" on="1"/>
        <pt x="348" y="1434" on="1"/>
        <pt x="348" y="590" on="1"/>
        <pt x="348" y="383" on="0"/>
        <pt x="584" y="150" on="0"/>
        <pt x="788" y="150" on="1"/>
        <pt x="993" y="150" on="0"/>
        <pt x="1225" y="381" on="0"/>
        <pt x="1225" y="590" on="1"/>
        <pt x="1225" y="1434" on="1"/>
        <pt x="1389" y="1434" on="1"/>
      </contour>
    </TTGlyph>
    <TTGlyph name="Uring" xMin="184" yMin="-8" xMax="1389" yMax="1976">
      <component glyphName="U" x="0" y="0" flags="0x1000"/>
      <component glyphName="ring" x="428" y="354" flags="0x1000"/>
    </TTGlyph>
    <TTGlyph name="V" xMin="12" yMin="0" xMax="1350" yMax="1434">
      <contour>
        <pt x="594" y="0" on="1"/>
        <pt x="12" y="1434" on="1"/>
        <pt x="188" y="1434" on="1"/>
        <pt x="682" y="190" on="1"/>
        <pt x="1178" y="1434" on="1"/>
        <pt x="1350" y="1434" on="1"/>
        <pt x="764" y="0" on="1"/>
      </contour>
    </TTGlyph>
    <TTGlyph name="W" xMin="12" yMin="0" xMax="2087" yMax="1434">
      <contour>
        <pt x="1438" y="0" on="1"/>
        <pt x="1051" y="1208" on="1"/>
        <pt x="659" y="0" on="1"/>
        <pt x="492" y="0" on="1"/>
        <pt x="12" y="1434" on="1"/>
        <pt x="188" y="1434" on="1"/>
        <pt x="582" y="190" on="1"/>
        <pt x="971" y="1432" on="1"/>
        <pt x="1135" y="1434" on="1"/>
        <pt x="1528" y="190" on="1"/>
        <pt x="1917" y="1434" on="1"/>
        <pt x="2087" y="1434" on="1"/>
        <pt x="1606" y="0" on="1"/>
      </contour>
    </TTGlyph>
    <TTGlyph name="Wacute" xMin="12" yMin="0" xMax="2087" yMax="1890">
      <component glyphName="W" x="0" y="0" flags="0x1000"/>
      <component glyphName="acute" x="707" y="354" flags="0x1000"/>
    </TTGlyph>
    <TTGlyph name="Wcircumflex" xMin="12" yMin="0" xMax="2087" yMax="1882">
      <component glyphName="W" x="0" y="0" flags="0x1000"/>
      <component glyphName="circumflex" x="610" y="350" flags="0x1000"/>
    </TTGlyph>
    <TTGlyph name="Wdieresis" xMin="12" yMin="0" xMax="2087" yMax="1860">
      <contour>
        <pt x="840" y="1860" on="0"/>
        <pt x="897" y="1800" on="0"/>
        <pt x="897" y="1755" on="1"/>
        <pt x="897" y="1710" on="0"/>
        <pt x="840" y="1649" on="0"/>
        <pt x="799" y="1649" on="1"/>
        <pt x="758" y="1649" on="0"/>
        <pt x="700" y="1710" on="0"/>
        <pt x="700" y="1755" on="1"/>
        <pt x="700" y="1800" on="0"/>
        <pt x="758" y="1860" on="0"/>
        <pt x="799" y="1860" on="1"/>
      </contour>
      <contour>
        <pt x="1180" y="1860" on="0"/>
        <pt x="1237" y="1800" on="0"/>
        <pt x="1237" y="1755" on="1"/>
        <pt x="1237" y="1710" on="0"/>
        <pt x="1180" y="1649" on="0"/>
        <pt x="1139" y="1649" on="1"/>
        <pt x="1098" y="1649" on="0"/>
        <pt x="1040" y="1710" on="0"/>
        <pt x="1040" y="1755" on="1"/>
        <pt x="1040" y="1800" on="0"/>
        <pt x="1098" y="1860" on="0"/>
        <pt x="1139" y="1860" on="1"/>
      </contour>
      <contour>
        <pt x="1438" y="0" on="1"/>
        <pt x="1051" y="1208" on="1"/>
        <pt x="659" y="0" on="1"/>
        <pt x="492" y="0" on="1"/>
        <pt x="12" y="1434" on="1"/>
        <pt x="188" y="1434" on="1"/>
        <pt x="582" y="190" on="1"/>
        <pt x="971" y="1432" on="1"/>
        <pt x="1135" y="1434" on="1"/>
        <pt x="1528" y="190" on="1"/>
        <pt x="1917" y="1434" on="1"/>
        <pt x="2087" y="1434" on="1"/>
        <pt x="1606" y="0" on="1"/>
      </contour>
    </TTGlyph>
    <TTGlyph name="Wgrave" xMin="12" yMin="0" xMax="2087" yMax="1890">
      <component glyphName="W" x="0" y="0" flags="0x1000"/>
      <component glyphName="grave" x="516" y="354" flags="0x1000"/>
    </TTGlyph>
    <TTGlyph name="X" xMin="45" yMin="0" xMax="1303" yMax="1434">
      <contour>
        <pt x="1303" y="0" on="1"/>
        <pt x="1106" y="0" on="1"/>
        <pt x="670" y="600" on="1"/>
        <pt x="238" y="0" on="1"/>
        <pt x="45" y="0" on="1"/>
        <pt x="571" y="737" on="1"/>
        <pt x="82" y="1434" on="1"/>
        <pt x="274" y="1434" on="1"/>
        <pt x="670" y="881" on="1"/>
        <pt x="1069" y="1434" on="1"/>
        <pt x="1262" y="1434" on="1"/>
        <pt x="774" y="745" on="1"/>
      </contour>
    </TTGlyph>
    <TTGlyph name="Y" xMin="8" yMin="0" xMax="1270" yMax="1434">
      <contour>
        <pt x="725" y="0" on="1"/>
        <pt x="563" y="0" on="1"/>
        <pt x="563" y="485" on="1"/>
        <pt x="8" y="1434" on="1"/>
        <pt x="178" y="1434" on="1"/>
        <pt x="643" y="686" on="1"/>
        <pt x="1102" y="1434" on="1"/>
        <pt x="1270" y="1434" on="1"/>
        <pt x="725" y="492" on="1"/>
      </contour>
    </TTGlyph>
    <TTGlyph name="Yacute" xMin="8" yMin="0" xMax="1270" yMax="1890">
      <component glyphName="Y" x="0" y="0" flags="0x1000"/>
      <component glyphName="acute" x="377" y="354" flags="0x1000"/>
    </TTGlyph>
    <TTGlyph name="Ycircumflex" xMin="8" yMin="0" xMax="1270" yMax="1882">
      <component glyphName="Y" x="0" y="0" flags="0x1000"/>
      <component glyphName="circumflex" x="281" y="350" flags="0x1000"/>
    </TTGlyph>
    <TTGlyph name="Ydieresis" xMin="8" yMin="0" xMax="1270" yMax="1860">
      <contour>
        <pt x="428" y="1649" on="0"/>
        <pt x="371" y="1710" on="0"/>
        <pt x="371" y="1755" on="1"/>
        <pt x="371" y="1800" on="0"/>
        <pt x="428" y="1860" on="0"/>
        <pt x="469" y="1860" on="1"/>
        <pt x="510" y="1860" on="0"/>
        <pt x="567" y="1800" on="0"/>
        <pt x="567" y="1755" on="1"/>
        <pt x="567" y="1710" on="0"/>
        <pt x="510" y="1649" on="0"/>
        <pt x="469" y="1649" on="1"/>
      </contour>
      <contour>
        <pt x="768" y="1649" on="0"/>
        <pt x="711" y="1710" on="0"/>
        <pt x="711" y="1755" on="1"/>
        <pt x="711" y="1800" on="0"/>
        <pt x="768" y="1860" on="0"/>
        <pt x="809" y="1860" on="1"/>
        <pt x="850" y="1860" on="0"/>
        <pt x="907" y="1800" on="0"/>
        <pt x="907" y="1755" on="1"/>
        <pt x="907" y="1710" on="0"/>
        <pt x="850" y="1649" on="0"/>
        <pt x="809" y="1649" on="1"/>
      </contour>
      <contour>
        <pt x="725" y="0" on="1"/>
        <pt x="563" y="0" on="1"/>
        <pt x="563" y="485" on="1"/>
        <pt x="8" y="1434" on="1"/>
        <pt x="178" y="1434" on="1"/>
        <pt x="643" y="686" on="1"/>
        <pt x="1102" y="1434" on="1"/>
        <pt x="1270" y="1434" on="1"/>
        <pt x="725" y="492" on="1"/>
      </contour>
    </TTGlyph>
    <TTGlyph name="Ygrave" xMin="8" yMin="0" xMax="1270" yMax="1890">
      <component glyphName="Y" x="0" y="0" flags="0x1000"/>
      <component glyphName="grave" x="188" y="354" flags="0x1000"/>
    </TTGlyph>
    <TTGlyph name="Z" xMin="88" yMin="0" xMax="1264" yMax="1434">
      <contour>
        <pt x="303" y="156" on="1"/>
        <pt x="1264" y="156" on="1"/>
        <pt x="1262" y="0" on="1"/>
        <pt x="88" y="0" on="1"/>
        <pt x="88" y="131" on="1"/>
        <pt x="1038" y="1276" on="1"/>
        <pt x="115" y="1276" on="1"/>
        <pt x="115" y="1434" on="1"/>
        <pt x="1253" y="1434" on="1"/>
        <pt x="1253" y="1303" on="1"/>
      </contour>
    </TTGlyph>
    <TTGlyph name="Zacute" xMin="88" yMin="0" xMax="1264" yMax="1890">
      <component glyphName="Z" x="0" y="0" flags="0x1000"/>
      <component glyphName="acute" x="424" y="354" flags="0x1000"/>
    </TTGlyph>
    <TTGlyph name="Zcaron" xMin="88" yMin="0" xMax="1264" yMax="1882">
      <component glyphName="Z" x="0" y="0" flags="0x1000"/>
      <component glyphName="caron" x="326" y="350" flags="0x1000"/>
    </TTGlyph>
    <TTGlyph name="Zdotaccent" xMin="88" yMin="0" xMax="1264" yMax="1853">
      <component glyphName="Z" x="0" y="0" flags="0x1000"/>
      <component glyphName="dotaccent" x="328" y="354" flags="0x1000"/>
    </TTGlyph>
    <TTGlyph name="a" xMin="102" yMin="-8" xMax="1020" yMax="1085">
      <contour>
        <pt x="864" y="166" on="1"/>
        <pt x="735" y="-8" on="0"/>
        <pt x="469" y="-8" on="1"/>
        <pt x="360" y="-8" on="0"/>
        <pt x="193" y="78" on="0"/>
        <pt x="102" y="229" on="0"/>
        <pt x="102" y="322" on="1"/>
        <pt x="102" y="463" on="0"/>
        <pt x="315" y="629" on="0"/>
        <pt x="506" y="631" on="1"/>
        <pt x="860" y="631" on="1"/>
        <pt x="860" y="694" on="1"/>
        <pt x="860" y="815" on="0"/>
        <pt x="713" y="946" on="0"/>
        <pt x="571" y="946" on="1"/>
        <pt x="407" y="946" on="0"/>
        <pt x="229" y="823" on="1"/>
        <pt x="162" y="940" on="1"/>
        <pt x="277" y="1016" on="0"/>
        <pt x="471" y="1085" on="0"/>
        <pt x="602" y="1085" on="1"/>
        <pt x="801" y="1085" on="0"/>
        <pt x="1016" y="889" on="0"/>
        <pt x="1018" y="713" on="1"/>
        <pt x="1020" y="0" on="1"/>
        <pt x="864" y="0" on="1"/>
      </contour>
      <contour>
        <pt x="637" y="131" on="0"/>
        <pt x="831" y="260" on="0"/>
        <pt x="862" y="373" on="1"/>
        <pt x="862" y="502" on="1"/>
        <pt x="526" y="502" on="1"/>
        <pt x="252" y="502" on="0"/>
        <pt x="252" y="328" on="1"/>
        <pt x="252" y="238" on="0"/>
        <pt x="387" y="131" on="0"/>
        <pt x="500" y="131" on="1"/>
      </contour>
    </TTGlyph>
    <TTGlyph name="aacute" xMin="102" yMin="-8" xMax="1020" yMax="1536">
      <component glyphName="a" x="0" y="0" flags="0x1000"/>
      <component glyphName="acute" x="319" y="0" flags="0x1000"/>
    </TTGlyph>
    <TTGlyph name="abreve" xMin="102" yMin="-8" xMax="1020" yMax="1516">
      <component glyphName="a" x="0" y="0" flags="0x1000"/>
      <component glyphName="breve" x="223" y="-2" flags="0x1000"/>
    </TTGlyph>
    <TTGlyph name="acircumflex" xMin="102" yMin="-8" xMax="1020" yMax="1528">
      <component glyphName="a" x="0" y="0" flags="0x1000"/>
      <component glyphName="circumflex" x="223" y="-4" flags="0x1000"/>
    </TTGlyph>
    <TTGlyph name="acute" xMin="154" yMin="1257" xMax="561" yMax="1536">
      <contour>
        <pt x="307" y="1257" on="1"/>
        <pt x="154" y="1257" on="1"/>
        <pt x="399" y="1536" on="1"/>
        <pt x="561" y="1458" on="1"/>
      </contour>
    </TTGlyph>
    <TTGlyph name="adieresis" xMin="102" yMin="-8" xMax="1020" yMax="1505">
      <contour>
        <pt x="371" y="1294" on="0"/>
        <pt x="313" y="1356" on="0"/>
        <pt x="313" y="1401" on="1"/>
        <pt x="313" y="1446" on="0"/>
        <pt x="371" y="1505" on="0"/>
        <pt x="412" y="1505" on="1"/>
        <pt x="453" y="1505" on="0"/>
        <pt x="510" y="1446" on="0"/>
        <pt x="510" y="1401" on="1"/>
        <pt x="510" y="1356" on="0"/>
        <pt x="453" y="1294" on="0"/>
        <pt x="412" y="1294" on="1"/>
      </contour>
      <contour>
        <pt x="711" y="1294" on="0"/>
        <pt x="653" y="1356" on="0"/>
        <pt x="653" y="1401" on="1"/>
        <pt x="653" y="1446" on="0"/>
        <pt x="711" y="1505" on="0"/>
        <pt x="752" y="1505" on="1"/>
        <pt x="793" y="1505" on="0"/>
        <pt x="850" y="1446" on="0"/>
        <pt x="850" y="1401" on="1"/>
        <pt x="850" y="1356" on="0"/>
        <pt x="793" y="1294" on="0"/>
        <pt x="752" y="1294" on="1"/>
      </contour>
      <contour>
        <pt x="864" y="166" on="1"/>
        <pt x="735" y="-8" on="0"/>
        <pt x="469" y="-8" on="1"/>
        <pt x="360" y="-8" on="0"/>
        <pt x="193" y="78" on="0"/>
        <pt x="102" y="229" on="0"/>
        <pt x="102" y="322" on="1"/>
        <pt x="102" y="463" on="0"/>
        <pt x="315" y="629" on="0"/>
        <pt x="506" y="631" on="1"/>
        <pt x="860" y="631" on="1"/>
        <pt x="860" y="694" on="1"/>
        <pt x="860" y="815" on="0"/>
        <pt x="713" y="946" on="0"/>
        <pt x="571" y="946" on="1"/>
        <pt x="407" y="946" on="0"/>
        <pt x="229" y="823" on="1"/>
        <pt x="162" y="940" on="1"/>
        <pt x="277" y="1016" on="0"/>
        <pt x="471" y="1085" on="0"/>
        <pt x="602" y="1085" on="1"/>
        <pt x="801" y="1085" on="0"/>
        <pt x="1016" y="889" on="0"/>
        <pt x="1018" y="713" on="1"/>
        <pt x="1020" y="0" on="1"/>
        <pt x="864" y="0" on="1"/>
      </contour>
      <contour>
        <pt x="637" y="131" on="0"/>
        <pt x="831" y="260" on="0"/>
        <pt x="862" y="373" on="1"/>
        <pt x="862" y="502" on="1"/>
        <pt x="526" y="502" on="1"/>
        <pt x="252" y="502" on="0"/>
        <pt x="252" y="328" on="1"/>
        <pt x="252" y="238" on="0"/>
        <pt x="387" y="131" on="0"/>
        <pt x="500" y="131" on="1"/>
      </contour>
    </TTGlyph>
    <TTGlyph name="ae" xMin="102" yMin="-8" xMax="1929" yMax="1085">
      <contour>
        <pt x="1563" y="1085" on="0"/>
        <pt x="1802" y="938" on="0"/>
        <pt x="1929" y="676" on="0"/>
        <pt x="1927" y="506" on="1"/>
        <pt x="1026" y="506" on="1"/>
        <pt x="1038" y="336" on="0"/>
        <pt x="1253" y="133" on="0"/>
        <pt x="1419" y="133" on="1"/>
        <pt x="1519" y="133" on="0"/>
        <pt x="1690" y="203" on="0"/>
        <pt x="1753" y="268" on="1"/>
        <pt x="1841" y="174" on="1"/>
        <pt x="1761" y="88" on="0"/>
        <pt x="1542" y="-6" on="0"/>
        <pt x="1409" y="-6" on="1"/>
        <pt x="1249" y="-6" on="0"/>
        <pt x="1004" y="143" on="0"/>
        <pt x="942" y="276" on="1"/>
        <pt x="876" y="135" on="0"/>
        <pt x="635" y="-8" on="0"/>
        <pt x="469" y="-8" on="1"/>
        <pt x="303" y="-8" on="0"/>
        <pt x="102" y="172" on="0"/>
        <pt x="102" y="313" on="1"/>
        <pt x="102" y="454" on="0"/>
        <pt x="317" y="608" on="0"/>
        <pt x="508" y="608" on="1"/>
        <pt x="864" y="608" on="1"/>
        <pt x="864" y="694" on="1"/>
        <pt x="862" y="815" on="0"/>
        <pt x="715" y="946" on="0"/>
        <pt x="571" y="946" on="1"/>
        <pt x="395" y="946" on="0"/>
        <pt x="207" y="823" on="1"/>
        <pt x="162" y="944" on="1"/>
        <pt x="385" y="1085" on="0"/>
        <pt x="602" y="1085" on="1"/>
        <pt x="745" y="1085" on="0"/>
        <pt x="944" y="979" on="0"/>
        <pt x="989" y="881" on="1"/>
        <pt x="1059" y="977" on="0"/>
        <pt x="1274" y="1085" on="0"/>
        <pt x="1405" y="1085" on="1"/>
      </contour>
      <contour>
        <pt x="1757" y="760" on="0"/>
        <pt x="1563" y="958" on="0"/>
        <pt x="1407" y="958" on="1"/>
        <pt x="1251" y="958" on="0"/>
        <pt x="1042" y="762" on="0"/>
        <pt x="1026" y="602" on="1"/>
        <pt x="1767" y="602" on="1"/>
      </contour>
      <contour>
        <pt x="897" y="417" on="0"/>
        <pt x="893" y="446" on="1"/>
        <pt x="866" y="453" on="1"/>
        <pt x="866" y="512" on="1"/>
        <pt x="537" y="512" on="1"/>
        <pt x="402" y="512" on="0"/>
        <pt x="252" y="416" on="0"/>
        <pt x="252" y="328" on="1"/>
        <pt x="252" y="232" on="0"/>
        <pt x="389" y="115" on="0"/>
        <pt x="502" y="115" on="1"/>
        <pt x="639" y="115" on="0"/>
        <pt x="834" y="246" on="0"/>
        <pt x="889" y="391" on="1"/>
        <pt x="909" y="365" on="1"/>
      </contour>
    </TTGlyph>
    <TTGlyph name="agrave" xMin="102" yMin="-8" xMax="1020" yMax="1536">
      <component glyphName="a" x="0" y="0" flags="0x1000"/>
      <component glyphName="grave" x="131" y="0" flags="0x1000"/>
    </TTGlyph>
    <TTGlyph name="amacron" xMin="102" yMin="-8" xMax="1020" yMax="1450">
      <component glyphName="a" x="0" y="0" flags="0x1000"/>
      <component glyphName="macron" x="223" y="0" flags="0x1000"/>
    </TTGlyph>
    <TTGlyph name="ampersand" xMin="119" yMin="-27" xMax="1315" yMax="1440">
      <contour>
        <pt x="989" y="211" on="1"/>
        <pt x="782" y="-8" on="0"/>
        <pt x="545" y="-8" on="1"/>
        <pt x="428" y="-8" on="0"/>
        <pt x="231" y="94" on="0"/>
        <pt x="119" y="274" on="0"/>
        <pt x="119" y="385" on="1"/>
        <pt x="119" y="526" on="0"/>
        <pt x="291" y="711" on="0"/>
        <pt x="444" y="793" on="1"/>
        <pt x="368" y="889" on="0"/>
        <pt x="297" y="1053" on="0"/>
        <pt x="297" y="1130" on="1"/>
        <pt x="297" y="1265" on="0"/>
        <pt x="492" y="1440" on="0"/>
        <pt x="647" y="1440" on="1"/>
        <pt x="794" y="1440" on="0"/>
        <pt x="979" y="1280" on="0"/>
        <pt x="979" y="1151" on="1"/>
        <pt x="979" y="1061" on="0"/>
        <pt x="883" y="922" on="0"/>
        <pt x="737" y="821" on="0"/>
        <pt x="625" y="762" on="1"/>
        <pt x="734" y="635" on="0"/>
        <pt x="973" y="399" on="1"/>
        <pt x="1055" y="514" on="0"/>
        <pt x="1120" y="678" on="1"/>
        <pt x="1229" y="594" on="1"/>
        <pt x="1155" y="426" on="0"/>
        <pt x="1067" y="307" on="1"/>
        <pt x="1315" y="63" on="1"/>
        <pt x="1229" y="-27" on="1"/>
      </contour>
      <contour>
        <pt x="428" y="1071" on="0"/>
        <pt x="489" y="934" on="0"/>
        <pt x="553" y="848" on="1"/>
        <pt x="700" y="926" on="0"/>
        <pt x="848" y="1055" on="0"/>
        <pt x="848" y="1151" on="1"/>
        <pt x="848" y="1231" on="0"/>
        <pt x="739" y="1329" on="0"/>
        <pt x="647" y="1329" on="1"/>
        <pt x="549" y="1329" on="0"/>
        <pt x="428" y="1217" on="0"/>
        <pt x="428" y="1133" on="1"/>
      </contour>
      <contour>
        <pt x="733" y="123" on="0"/>
        <pt x="897" y="303" on="1"/>
        <pt x="623" y="577" on="0"/>
        <pt x="514" y="705" on="1"/>
        <pt x="389" y="635" on="0"/>
        <pt x="254" y="496" on="0"/>
        <pt x="254" y="397" on="1"/>
        <pt x="254" y="276" on="0"/>
        <pt x="424" y="123" on="0"/>
        <pt x="551" y="123" on="1"/>
      </contour>
    </TTGlyph>
    <TTGlyph name="aogonek" xMin="102" yMin="-410" xMax="1079" yMax="1085">
      <contour>
        <pt x="803" y="1085" on="0"/>
        <pt x="1020" y="887" on="0"/>
        <pt x="1022" y="713" on="1"/>
        <pt x="1022" y="0" on="1"/>
        <pt x="979" y="0" on="1"/>
        <pt x="846" y="-147" on="0"/>
        <pt x="846" y="-233" on="1"/>
        <pt x="846" y="-270" on="0"/>
        <pt x="887" y="-311" on="0"/>
        <pt x="918" y="-311" on="1"/>
        <pt x="967" y="-311" on="0"/>
        <pt x="1028" y="-244" on="1"/>
        <pt x="1079" y="-305" on="1"/>
        <pt x="1044" y="-354" on="0"/>
        <pt x="952" y="-410" on="0"/>
        <pt x="901" y="-410" on="1"/>
        <pt x="838" y="-410" on="0"/>
        <pt x="752" y="-332" on="0"/>
        <pt x="752" y="-258" on="1"/>
        <pt x="752" y="-203" on="0"/>
        <pt x="819" y="-76" on="0"/>
        <pt x="893" y="4" on="1"/>
        <pt x="864" y="4" on="1"/>
        <pt x="864" y="164" on="1"/>
        <pt x="801" y="78" on="0"/>
        <pt x="598" y="-8" on="0"/>
        <pt x="475" y="-8" on="1"/>
        <pt x="362" y="-8" on="0"/>
        <pt x="193" y="78" on="0"/>
        <pt x="102" y="227" on="0"/>
        <pt x="102" y="319" on="1"/>
        <pt x="102" y="462" on="0"/>
        <pt x="315" y="629" on="0"/>
        <pt x="506" y="631" on="1"/>
        <pt x="864" y="631" on="1"/>
        <pt x="864" y="694" on="1"/>
        <pt x="862" y="815" on="0"/>
        <pt x="715" y="946" on="0"/>
        <pt x="573" y="946" on="1"/>
        <pt x="407" y="946" on="0"/>
        <pt x="229" y="823" on="1"/>
        <pt x="162" y="940" on="1"/>
        <pt x="277" y="1016" on="0"/>
        <pt x="473" y="1085" on="0"/>
        <pt x="606" y="1085" on="1"/>
      </contour>
      <contour>
        <pt x="389" y="502" on="0"/>
        <pt x="252" y="416" on="0"/>
        <pt x="252" y="326" on="1"/>
        <pt x="252" y="240" on="0"/>
        <pt x="385" y="131" on="0"/>
        <pt x="506" y="131" on="1"/>
        <pt x="633" y="131" on="0"/>
        <pt x="838" y="262" on="0"/>
        <pt x="864" y="367" on="1"/>
        <pt x="864" y="502" on="1"/>
        <pt x="528" y="502" on="1"/>
      </contour>
    </TTGlyph>
    <TTGlyph name="approxequal" xMin="150" yMin="326" xMax="858" yMax="1022">
      <contour>
        <pt x="371" y="1022" on="0"/>
        <pt x="455" y="987" on="0"/>
        <pt x="514" y="952" on="1"/>
        <pt x="565" y="923" on="0"/>
        <pt x="627" y="897" on="0"/>
        <pt x="655" y="897" on="1"/>
        <pt x="698" y="897" on="0"/>
        <pt x="743" y="954" on="0"/>
        <pt x="743" y="1008" on="1"/>
        <pt x="858" y="1008" on="1"/>
        <pt x="858" y="887" on="0"/>
        <pt x="768" y="762" on="0"/>
        <pt x="682" y="762" on="1"/>
        <pt x="633" y="762" on="0"/>
        <pt x="545" y="799" on="0"/>
        <pt x="487" y="834" on="1"/>
        <pt x="442" y="861" on="0"/>
        <pt x="381" y="889" on="0"/>
        <pt x="352" y="889" on="1"/>
        <pt x="309" y="889" on="0"/>
        <pt x="264" y="831" on="0"/>
        <pt x="264" y="778" on="1"/>
        <pt x="150" y="778" on="1"/>
        <pt x="150" y="897" on="0"/>
        <pt x="240" y="1022" on="0"/>
        <pt x="326" y="1022" on="1"/>
      </contour>
      <contour>
        <pt x="371" y="586" on="0"/>
        <pt x="455" y="551" on="0"/>
        <pt x="514" y="516" on="1"/>
        <pt x="561" y="487" on="0"/>
        <pt x="627" y="459" on="0"/>
        <pt x="655" y="459" on="1"/>
        <pt x="698" y="459" on="0"/>
        <pt x="743" y="516" on="0"/>
        <pt x="743" y="569" on="1"/>
        <pt x="858" y="569" on="1"/>
        <pt x="858" y="450" on="0"/>
        <pt x="768" y="326" on="0"/>
        <pt x="682" y="326" on="1"/>
        <pt x="633" y="326" on="0"/>
        <pt x="545" y="362" on="0"/>
        <pt x="487" y="397" on="1"/>
        <pt x="438" y="426" on="0"/>
        <pt x="381" y="451" on="0"/>
        <pt x="352" y="451" on="1"/>
        <pt x="309" y="451" on="0"/>
        <pt x="264" y="395" on="0"/>
        <pt x="264" y="342" on="1"/>
        <pt x="150" y="342" on="1"/>
        <pt x="150" y="461" on="0"/>
        <pt x="240" y="586" on="0"/>
        <pt x="326" y="586" on="1"/>
      </contour>
    </TTGlyph>
    <TTGlyph name="aring" xMin="102" yMin="-8" xMax="1020" yMax="1622">
      <component glyphName="a" x="0" y="0" flags="0x1000"/>
      <component glyphName="ring" x="223" y="0" flags="0x1000"/>
    </TTGlyph>
    <TTGlyph name="asciicircum" xMin="77" yMin="266" xMax="992" yMax="1079">
      <component glyphName="less" x="-134" y="1151" scalex="0.0" scale01="-0.951110839844" scale10="1.0" scaley="0.0" flags="0x1000"/>
    </TTGlyph>
    <TTGlyph name="asciitilde" xMin="150" yMin="524" xMax="858" yMax="784">
      <contour>
        <pt x="371" y="784" on="0"/>
        <pt x="455" y="750" on="0"/>
        <pt x="514" y="715" on="1"/>
        <pt x="561" y="686" on="0"/>
        <pt x="627" y="657" on="0"/>
        <pt x="655" y="657" on="1"/>
        <pt x="698" y="657" on="0"/>
        <pt x="743" y="715" on="0"/>
        <pt x="743" y="768" on="1"/>
        <pt x="858" y="768" on="1"/>
        <pt x="858" y="649" on="0"/>
        <pt x="768" y="524" on="0"/>
        <pt x="682" y="524" on="1"/>
        <pt x="633" y="524" on="0"/>
        <pt x="545" y="561" on="0"/>
        <pt x="487" y="596" on="1"/>
        <pt x="438" y="625" on="0"/>
        <pt x="381" y="649" on="0"/>
        <pt x="352" y="649" on="1"/>
        <pt x="309" y="649" on="0"/>
        <pt x="264" y="594" on="0"/>
        <pt x="264" y="541" on="1"/>
        <pt x="150" y="541" on="1"/>
        <pt x="150" y="660" on="0"/>
        <pt x="240" y="784" on="0"/>
        <pt x="326" y="784" on="1"/>
      </contour>
    </TTGlyph>
    <TTGlyph name="asterisk" xMin="55" yMin="870" xMax="616" yMax="1477">
      <contour>
        <pt x="381" y="870" on="1"/>
        <pt x="291" y="870" on="1"/>
        <pt x="293" y="1092" on="1"/>
        <pt x="100" y="979" on="1"/>
        <pt x="55" y="1065" on="1"/>
        <pt x="248" y="1176" on="1"/>
        <pt x="55" y="1282" on="1"/>
        <pt x="100" y="1370" on="1"/>
        <pt x="293" y="1257" on="1"/>
        <pt x="291" y="1477" on="1"/>
        <pt x="381" y="1477" on="1"/>
        <pt x="381" y="1257" on="1"/>
        <pt x="571" y="1368" on="1"/>
        <pt x="616" y="1282" on="1"/>
        <pt x="422" y="1176" on="1"/>
        <pt x="616" y="1065" on="1"/>
        <pt x="571" y="979" on="1"/>
        <pt x="379" y="1092" on="1"/>
      </contour>
    </TTGlyph>
    <TTGlyph name="at" xMin="82" yMin="-330" xMax="1937" yMax="1450">
      <contour>
        <pt x="1282" y="1450" on="0"/>
        <pt x="1700" y="1219" on="0"/>
        <pt x="1937" y="807" on="0"/>
        <pt x="1937" y="549" on="1"/>
        <pt x="1937" y="391" on="0"/>
        <pt x="1847" y="154" on="0"/>
        <pt x="1686" y="23" on="0"/>
        <pt x="1579" y="23" on="1"/>
        <pt x="1489" y="23" on="0"/>
        <pt x="1368" y="119" on="0"/>
        <pt x="1360" y="209" on="1"/>
        <pt x="1358" y="276" on="1"/>
        <pt x="1297" y="170" on="0"/>
        <pt x="1085" y="53" on="0"/>
        <pt x="956" y="53" on="1"/>
        <pt x="821" y="53" on="0"/>
        <pt x="596" y="180" on="0"/>
        <pt x="465" y="406" on="0"/>
        <pt x="465" y="549" on="1"/>
        <pt x="465" y="690" on="0"/>
        <pt x="586" y="920" on="0"/>
        <pt x="803" y="1053" on="0"/>
        <pt x="942" y="1053" on="1"/>
        <pt x="1034" y="1053" on="0"/>
        <pt x="1194" y="991" on="0"/>
        <pt x="1303" y="895" on="0"/>
        <pt x="1325" y="848" on="1"/>
        <pt x="1325" y="1036" on="1"/>
        <pt x="1477" y="1036" on="1"/>
        <pt x="1477" y="270" on="1"/>
        <pt x="1477" y="204" on="0"/>
        <pt x="1542" y="135" on="0"/>
        <pt x="1593" y="135" on="1"/>
        <pt x="1654" y="135" on="0"/>
        <pt x="1757" y="240" on="0"/>
        <pt x="1815" y="426" on="0"/>
        <pt x="1815" y="545" on="1"/>
        <pt x="1815" y="766" on="0"/>
        <pt x="1616" y="1120" on="0"/>
        <pt x="1253" y="1323" on="0"/>
        <pt x="1020" y="1323" on="1"/>
        <pt x="793" y="1323" on="0"/>
        <pt x="420" y="1118" on="0"/>
        <pt x="207" y="762" on="0"/>
        <pt x="207" y="545" on="1"/>
        <pt x="207" y="332" on="0"/>
        <pt x="412" y="-8" on="0"/>
        <pt x="772" y="-201" on="0"/>
        <pt x="993" y="-201" on="1"/>
        <pt x="1087" y="-201" on="0"/>
        <pt x="1303" y="-141" on="0"/>
        <pt x="1378" y="-88" on="1"/>
        <pt x="1436" y="-203" on="1"/>
        <pt x="1352" y="-260" on="0"/>
        <pt x="1102" y="-330" on="0"/>
        <pt x="993" y="-330" on="1"/>
        <pt x="735" y="-330" on="0"/>
        <pt x="319" y="-102" on="0"/>
        <pt x="82" y="297" on="0"/>
        <pt x="82" y="545" on="1"/>
        <pt x="82" y="799" on="0"/>
        <pt x="328" y="1212" on="0"/>
        <pt x="758" y="1450" on="0"/>
        <pt x="1020" y="1450" on="1"/>
      </contour>
      <contour>
        <pt x="870" y="899" on="0"/>
        <pt x="715" y="809" on="0"/>
        <pt x="629" y="653" on="0"/>
        <pt x="629" y="557" on="1"/>
        <pt x="629" y="459" on="0"/>
        <pt x="715" y="297" on="0"/>
        <pt x="872" y="203" on="0"/>
        <pt x="971" y="203" on="1"/>
        <pt x="1071" y="203" on="0"/>
        <pt x="1229" y="295" on="0"/>
        <pt x="1317" y="457" on="0"/>
        <pt x="1317" y="555" on="1"/>
        <pt x="1317" y="651" on="0"/>
        <pt x="1229" y="809" on="0"/>
        <pt x="1071" y="899" on="0"/>
        <pt x="969" y="899" on="1"/>
      </contour>
    </TTGlyph>
    <TTGlyph name="atilde" xMin="102" yMin="-8" xMax="1020" yMax="1526">
      <component glyphName="a" x="0" y="0" flags="0x1000"/>
      <component glyphName="tilde" x="223" y="0" flags="0x1000"/>
    </TTGlyph>
    <TTGlyph name="b" xMin="205" yMin="-6" xMax="1298" yMax="1520">
      <contour>
        <pt x="932" y="1085" on="0"/>
        <pt x="1167" y="946" on="0"/>
        <pt x="1298" y="696" on="0"/>
        <pt x="1298" y="537" on="1"/>
        <pt x="1298" y="379" on="0"/>
        <pt x="1169" y="131" on="0"/>
        <pt x="936" y="-6" on="0"/>
        <pt x="784" y="-6" on="1"/>
        <pt x="641" y="-6" on="0"/>
        <pt x="426" y="119" on="0"/>
        <pt x="365" y="231" on="1"/>
        <pt x="365" y="0" on="1"/>
        <pt x="205" y="0" on="1"/>
        <pt x="205" y="1520" on="1"/>
        <pt x="365" y="1520" on="1"/>
        <pt x="365" y="846" on="1"/>
        <pt x="424" y="961" on="0"/>
        <pt x="639" y="1085" on="0"/>
        <pt x="780" y="1085" on="1"/>
      </contour>
      <contour>
        <pt x="862" y="139" on="0"/>
        <pt x="1038" y="242" on="0"/>
        <pt x="1137" y="426" on="0"/>
        <pt x="1137" y="541" on="1"/>
        <pt x="1137" y="656" on="0"/>
        <pt x="1038" y="838" on="0"/>
        <pt x="862" y="942" on="0"/>
        <pt x="752" y="942" on="1"/>
        <pt x="639" y="942" on="0"/>
        <pt x="463" y="840" on="0"/>
        <pt x="365" y="655" on="0"/>
        <pt x="365" y="541" on="1"/>
        <pt x="365" y="424" on="0"/>
        <pt x="463" y="242" on="0"/>
        <pt x="639" y="139" on="0"/>
        <pt x="752" y="139" on="1"/>
      </contour>
    </TTGlyph>
    <TTGlyph name="backslash" xMin="133" yMin="-250" xMax="914" yMax="1679">
      <component glyphName="slash" x="891" y="0" scalex="-1.0" scaley="1.0" flags="0x1000"/>
    </TTGlyph>
    <TTGlyph name="bar" xMin="193" yMin="-248" xMax="319" yMax="1669">
      <contour>
        <pt x="193" y="-248" on="1"/>
        <pt x="193" y="1669" on="1"/>
        <pt x="319" y="1669" on="1"/>
        <pt x="319" y="-248" on="1"/>
      </contour>
    </TTGlyph>
    <TTGlyph name="braceleft" xMin="88" yMin="-258" xMax="590" yMax="1522">
      <contour>
        <pt x="385" y="743" on="0"/>
        <pt x="330" y="651" on="0"/>
        <pt x="266" y="631" on="1"/>
        <pt x="329" y="613" on="0"/>
        <pt x="385" y="520" on="0"/>
        <pt x="385" y="430" on="1"/>
        <pt x="385" y="31" on="1"/>
        <pt x="385" y="-49" on="0"/>
        <pt x="479" y="-121" on="0"/>
        <pt x="590" y="-121" on="1"/>
        <pt x="590" y="-258" on="1"/>
        <pt x="532" y="-258" on="1"/>
        <pt x="376" y="-258" on="0"/>
        <pt x="240" y="-145" on="0"/>
        <pt x="240" y="-14" on="1"/>
        <pt x="240" y="438" on="1"/>
        <pt x="240" y="501" on="0"/>
        <pt x="193" y="561" on="0"/>
        <pt x="141" y="561" on="1"/>
        <pt x="88" y="561" on="1"/>
        <pt x="88" y="702" on="1"/>
        <pt x="141" y="702" on="1"/>
        <pt x="192" y="702" on="0"/>
        <pt x="240" y="760" on="0"/>
        <pt x="240" y="823" on="1"/>
        <pt x="240" y="1278" on="1"/>
        <pt x="240" y="1409" on="0"/>
        <pt x="377" y="1522" on="0"/>
        <pt x="532" y="1522" on="1"/>
        <pt x="590" y="1522" on="1"/>
        <pt x="590" y="1384" on="1"/>
        <pt x="481" y="1384" on="0"/>
        <pt x="385" y="1311" on="0"/>
        <pt x="385" y="1231" on="1"/>
        <pt x="385" y="834" on="1"/>
      </contour>
    </TTGlyph>
    <TTGlyph name="braceright" xMin="184" yMin="-258" xMax="686" yMax="1522">
      <component glyphName="braceleft" x="774" y="0" scalex="-1.0" scaley="1.0" flags="0x1000"/>
    </TTGlyph>
    <TTGlyph name="bracketleft" xMin="217" yMin="-254" xMax="621" yMax="1520">
      <contour>
        <pt x="362" y="1382" on="1"/>
        <pt x="362" y="-117" on="1"/>
        <pt x="621" y="-117" on="1"/>
        <pt x="621" y="-254" on="1"/>
        <pt x="217" y="-254" on="1"/>
        <pt x="217" y="1520" on="1"/>
        <pt x="621" y="1520" on="1"/>
        <pt x="621" y="1382" on="1"/>
      </contour>
    </TTGlyph>
    <TTGlyph name="bracketright" xMin="223" yMin="-254" xMax="627" yMax="1520">
      <component glyphName="bracketleft" x="844" y="0" scalex="-1.0" scaley="1.0" flags="0x1000"/>
    </TTGlyph>
    <TTGlyph name="breve" xMin="98" yMin="1253" xMax="618" yMax="1518">
      <contour>
        <pt x="614" y="1401" on="0"/>
        <pt x="467" y="1253" on="0"/>
        <pt x="358" y="1253" on="1"/>
        <pt x="249" y="1253" on="0"/>
        <pt x="102" y="1401" on="0"/>
        <pt x="98" y="1518" on="1"/>
        <pt x="211" y="1518" on="1"/>
        <pt x="215" y="1455" on="0"/>
        <pt x="297" y="1370" on="0"/>
        <pt x="358" y="1370" on="1"/>
        <pt x="419" y="1370" on="0"/>
        <pt x="502" y="1454" on="0"/>
        <pt x="506" y="1518" on="1"/>
        <pt x="618" y="1518" on="1"/>
      </contour>
    </TTGlyph>
    <TTGlyph name="brokenbar" xMin="193" yMin="-248" xMax="319" yMax="1669">
      <contour>
        <pt x="193" y="954" on="1"/>
        <pt x="193" y="1669" on="1"/>
        <pt x="319" y="1669" on="1"/>
        <pt x="319" y="954" on="1"/>
      </contour>
      <contour>
        <pt x="193" y="-248" on="1"/>
        <pt x="193" y="467" on="1"/>
        <pt x="319" y="467" on="1"/>
        <pt x="319" y="-248" on="1"/>
      </contour>
    </TTGlyph>
    <TTGlyph name="bullet" xMin="104" yMin="387" xMax="403" yMax="707">
      <contour>
        <pt x="317" y="707" on="0"/>
        <pt x="403" y="616" on="0"/>
        <pt x="403" y="549" on="1"/>
        <pt x="403" y="479" on="0"/>
        <pt x="317" y="387" on="0"/>
        <pt x="254" y="387" on="1"/>
        <pt x="191" y="387" on="0"/>
        <pt x="104" y="479" on="0"/>
        <pt x="104" y="549" on="1"/>
        <pt x="104" y="617" on="0"/>
        <pt x="190" y="707" on="0"/>
        <pt x="254" y="707" on="1"/>
      </contour>
    </TTGlyph>
    <TTGlyph name="bulletoperator" xMin="104" yMin="387" xMax="403" yMax="707">
      <contour>
        <pt x="317" y="707" on="0"/>
        <pt x="403" y="616" on="0"/>
        <pt x="403" y="549" on="1"/>
        <pt x="403" y="479" on="0"/>
        <pt x="317" y="387" on="0"/>
        <pt x="254" y="387" on="1"/>
        <pt x="191" y="387" on="0"/>
        <pt x="104" y="479" on="0"/>
        <pt x="104" y="549" on="1"/>
        <pt x="104" y="617" on="0"/>
        <pt x="190" y="707" on="0"/>
        <pt x="254" y="707" on="1"/>
      </contour>
    </TTGlyph>
    <TTGlyph name="c" xMin="86" yMin="-6" xMax="1053" yMax="1083">
      <contour>
        <pt x="754" y="1083" on="0"/>
        <pt x="963" y="999" on="0"/>
        <pt x="1036" y="924" on="1"/>
        <pt x="948" y="811" on="1"/>
        <pt x="817" y="936" on="0"/>
        <pt x="627" y="936" on="1"/>
        <pt x="516" y="936" on="0"/>
        <pt x="342" y="836" on="0"/>
        <pt x="244" y="655" on="0"/>
        <pt x="244" y="539" on="1"/>
        <pt x="244" y="422" on="0"/>
        <pt x="342" y="242" on="0"/>
        <pt x="516" y="139" on="0"/>
        <pt x="627" y="139" on="1"/>
        <pt x="733" y="139" on="0"/>
        <pt x="903" y="211" on="0"/>
        <pt x="961" y="279" on="1"/>
        <pt x="1053" y="180" on="1"/>
        <pt x="979" y="92" on="0"/>
        <pt x="758" y="-6" on="0"/>
        <pt x="621" y="-6" on="1"/>
        <pt x="465" y="-6" on="0"/>
        <pt x="223" y="131" on="0"/>
        <pt x="86" y="379" on="0"/>
        <pt x="86" y="539" on="1"/>
        <pt x="86" y="699" on="0"/>
        <pt x="225" y="946" on="0"/>
        <pt x="473" y="1083" on="0"/>
        <pt x="629" y="1083" on="1"/>
      </contour>
    </TTGlyph>
    <TTGlyph name="cacute" xMin="86" yMin="-6" xMax="1053" yMax="1536">
      <component glyphName="c" x="0" y="0" flags="0x1000"/>
      <component glyphName="acute" x="319" y="0" flags="0x1000"/>
    </TTGlyph>
    <TTGlyph name="caron" xMin="61" yMin="1251" xMax="655" yMax="1532">
      <contour>
        <pt x="211" y="1532" on="1"/>
        <pt x="358" y="1339" on="1"/>
        <pt x="506" y="1532" on="1"/>
        <pt x="655" y="1532" on="1"/>
        <pt x="442" y="1251" on="1"/>
        <pt x="274" y="1251" on="1"/>
        <pt x="61" y="1532" on="1"/>
      </contour>
    </TTGlyph>
    <TTGlyph name="ccaron" xMin="86" yMin="-6" xMax="1053" yMax="1528">
      <component glyphName="c" x="0" y="0" flags="0x1000"/>
      <component glyphName="caron" x="221" y="-4" flags="0x1000"/>
    </TTGlyph>
    <TTGlyph name="ccedilla" xMin="86" yMin="-440" xMax="1053" yMax="1083">
      <contour>
        <pt x="985" y="100" on="0"/>
        <pt x="793" y="4" on="0"/>
        <pt x="672" y="-4" on="1"/>
        <pt x="629" y="-102" on="1"/>
        <pt x="695" y="-110" on="0"/>
        <pt x="774" y="-193" on="0"/>
        <pt x="774" y="-258" on="1"/>
        <pt x="776" y="-340" on="0"/>
        <pt x="664" y="-440" on="0"/>
        <pt x="575" y="-440" on="1"/>
        <pt x="530" y="-440" on="0"/>
        <pt x="440" y="-414" on="0"/>
        <pt x="410" y="-391" on="1"/>
        <pt x="444" y="-303" on="1"/>
        <pt x="469" y="-323" on="0"/>
        <pt x="535" y="-344" on="0"/>
        <pt x="565" y="-344" on="1"/>
        <pt x="614" y="-344" on="0"/>
        <pt x="676" y="-287" on="0"/>
        <pt x="674" y="-248" on="1"/>
        <pt x="674" y="-213" on="0"/>
        <pt x="618" y="-162" on="0"/>
        <pt x="571" y="-162" on="1"/>
        <pt x="532" y="-162" on="0"/>
        <pt x="504" y="-168" on="1"/>
        <pt x="571" y="-4" on="1"/>
        <pt x="428" y="6" on="0"/>
        <pt x="209" y="150" on="0"/>
        <pt x="86" y="389" on="0"/>
        <pt x="86" y="539" on="1"/>
        <pt x="86" y="699" on="0"/>
        <pt x="225" y="946" on="0"/>
        <pt x="473" y="1083" on="0"/>
        <pt x="629" y="1083" on="1"/>
        <pt x="754" y="1083" on="0"/>
        <pt x="963" y="999" on="0"/>
        <pt x="1036" y="924" on="1"/>
        <pt x="948" y="811" on="1"/>
        <pt x="817" y="936" on="0"/>
        <pt x="627" y="936" on="1"/>
        <pt x="516" y="936" on="0"/>
        <pt x="342" y="836" on="0"/>
        <pt x="244" y="655" on="0"/>
        <pt x="244" y="539" on="1"/>
        <pt x="244" y="422" on="0"/>
        <pt x="342" y="242" on="0"/>
        <pt x="516" y="139" on="0"/>
        <pt x="627" y="139" on="1"/>
        <pt x="733" y="139" on="0"/>
        <pt x="903" y="211" on="0"/>
        <pt x="961" y="279" on="1"/>
        <pt x="1053" y="180" on="1"/>
      </contour>
    </TTGlyph>
    <TTGlyph name="cedilla" xMin="176" yMin="-440" xMax="543" yMax="18">
      <contour>
        <pt x="461" y="-111" on="0"/>
        <pt x="541" y="-193" on="0"/>
        <pt x="541" y="-258" on="1"/>
        <pt x="543" y="-340" on="0"/>
        <pt x="430" y="-440" on="0"/>
        <pt x="342" y="-440" on="1"/>
        <pt x="297" y="-440" on="0"/>
        <pt x="207" y="-414" on="0"/>
        <pt x="176" y="-391" on="1"/>
        <pt x="211" y="-303" on="1"/>
        <pt x="236" y="-323" on="0"/>
        <pt x="301" y="-344" on="0"/>
        <pt x="332" y="-344" on="1"/>
        <pt x="381" y="-344" on="0"/>
        <pt x="442" y="-287" on="0"/>
        <pt x="440" y="-248" on="1"/>
        <pt x="440" y="-213" on="0"/>
        <pt x="385" y="-162" on="0"/>
        <pt x="338" y="-162" on="1"/>
        <pt x="299" y="-162" on="0"/>
        <pt x="270" y="-168" on="1"/>
        <pt x="348" y="18" on="1"/>
        <pt x="449" y="18" on="1"/>
        <pt x="395" y="-102" on="1"/>
      </contour>
    </TTGlyph>
    <TTGlyph name="cent" xMin="86" yMin="-274" xMax="1053" yMax="1378">
      <contour>
        <pt x="987" y="100" on="0"/>
        <pt x="795" y="4" on="0"/>
        <pt x="676" y="-4" on="1"/>
        <pt x="676" y="-274" on="1"/>
        <pt x="551" y="-274" on="1"/>
        <pt x="551" y="-2" on="1"/>
        <pt x="414" y="12" on="0"/>
        <pt x="203" y="158" on="0"/>
        <pt x="86" y="391" on="0"/>
        <pt x="86" y="539" on="1"/>
        <pt x="86" y="684" on="0"/>
        <pt x="203" y="920" on="0"/>
        <pt x="414" y="1065" on="0"/>
        <pt x="551" y="1079" on="1"/>
        <pt x="551" y="1378" on="1"/>
        <pt x="676" y="1378" on="1"/>
        <pt x="676" y="1081" on="1"/>
        <pt x="901" y="1065" on="0"/>
        <pt x="1036" y="924" on="1"/>
        <pt x="948" y="811" on="1"/>
        <pt x="833" y="920" on="0"/>
        <pt x="676" y="934" on="1"/>
        <pt x="676" y="141" on="1"/>
        <pt x="858" y="157" on="0"/>
        <pt x="961" y="279" on="1"/>
        <pt x="1053" y="180" on="1"/>
      </contour>
      <contour>
        <pt x="244" y="383" on="0"/>
        <pt x="414" y="170" on="0"/>
        <pt x="551" y="145" on="1"/>
        <pt x="551" y="930" on="1"/>
        <pt x="412" y="905" on="0"/>
        <pt x="244" y="694" on="0"/>
        <pt x="244" y="539" on="1"/>
      </contour>
    </TTGlyph>
    <TTGlyph name="circumflex" xMin="72" yMin="1266" xMax="645" yMax="1532">
      <contour>
        <pt x="506" y="1266" on="1"/>
        <pt x="358" y="1450" on="1"/>
        <pt x="211" y="1266" on="1"/>
        <pt x="72" y="1266" on="1"/>
        <pt x="281" y="1532" on="1"/>
        <pt x="436" y="1532" on="1"/>
        <pt x="645" y="1266" on="1"/>
      </contour>
    </TTGlyph>
    <TTGlyph name="colon" xMin="104" yMin="-16" xMax="303" yMax="805">
      <component glyphName="period" x="0" y="608" flags="0x1000"/>
      <component glyphName="period" x="0" y="0" flags="0x1000"/>
    </TTGlyph>
    <TTGlyph name="comma" xMin="86" yMin="-147" xMax="303" yMax="193">
      <contour>
        <pt x="246" y="193" on="0"/>
        <pt x="303" y="135" on="0"/>
        <pt x="303" y="88" on="1"/>
        <pt x="303" y="47" on="0"/>
        <pt x="272" y="0" on="1"/>
        <pt x="176" y="-147" on="1"/>
        <pt x="86" y="-147" on="1"/>
        <pt x="154" y="2" on="1"/>
        <pt x="109" y="29" on="0"/>
        <pt x="109" y="90" on="1"/>
        <pt x="109" y="135" on="0"/>
        <pt x="164" y="193" on="0"/>
        <pt x="205" y="193" on="1"/>
      </contour>
    </TTGlyph>
    <TTGlyph name="copyright" xMin="82" yMin="18" xMax="1468" yMax="1411">
      <contour>
        <pt x="967" y="1411" on="0"/>
        <pt x="1284" y="1225" on="0"/>
        <pt x="1468" y="905" on="0"/>
        <pt x="1468" y="717" on="1"/>
        <pt x="1468" y="531" on="0"/>
        <pt x="1284" y="209" on="0"/>
        <pt x="965" y="18" on="0"/>
        <pt x="772" y="18" on="1"/>
        <pt x="582" y="18" on="0"/>
        <pt x="264" y="207" on="0"/>
        <pt x="82" y="526" on="0"/>
        <pt x="82" y="713" on="1"/>
        <pt x="82" y="899" on="0"/>
        <pt x="266" y="1221" on="0"/>
        <pt x="584" y="1411" on="0"/>
        <pt x="776" y="1411" on="1"/>
      </contour>
      <contour>
        <pt x="608" y="1317" on="0"/>
        <pt x="330" y="1153" on="0"/>
        <pt x="170" y="877" on="0"/>
        <pt x="170" y="713" on="1"/>
        <pt x="170" y="549" on="0"/>
        <pt x="328" y="274" on="0"/>
        <pt x="604" y="113" on="0"/>
        <pt x="772" y="113" on="1"/>
        <pt x="940" y="113" on="0"/>
        <pt x="1221" y="276" on="0"/>
        <pt x="1382" y="553" on="0"/>
        <pt x="1382" y="717" on="1"/>
        <pt x="1382" y="881" on="0"/>
        <pt x="1223" y="1155" on="0"/>
        <pt x="944" y="1317" on="0"/>
        <pt x="776" y="1317" on="1"/>
      </contour>
      <contour>
        <pt x="860" y="1073" on="0"/>
        <pt x="999" y="1016" on="0"/>
        <pt x="1053" y="967" on="1"/>
        <pt x="997" y="901" on="1"/>
        <pt x="905" y="987" on="0"/>
        <pt x="786" y="987" on="1"/>
        <pt x="708" y="987" on="0"/>
        <pt x="578" y="915" on="0"/>
        <pt x="502" y="791" on="0"/>
        <pt x="502" y="717" on="1"/>
        <pt x="502" y="641" on="0"/>
        <pt x="578" y="514" on="0"/>
        <pt x="709" y="440" on="0"/>
        <pt x="786" y="440" on="1"/>
        <pt x="841" y="440" on="0"/>
        <pt x="954" y="485" on="0"/>
        <pt x="997" y="524" on="1"/>
        <pt x="1053" y="465" on="1"/>
        <pt x="998" y="412" on="0"/>
        <pt x="856" y="352" on="0"/>
        <pt x="782" y="352" on="1"/>
        <pt x="680" y="352" on="0"/>
        <pt x="510" y="449" on="0"/>
        <pt x="412" y="614" on="0"/>
        <pt x="412" y="715" on="1"/>
        <pt x="412" y="813" on="0"/>
        <pt x="512" y="977" on="0"/>
        <pt x="684" y="1073" on="0"/>
        <pt x="786" y="1073" on="1"/>
      </contour>
    </TTGlyph>
    <TTGlyph name="currency" xMin="86" yMin="0" xMax="1382" yMax="1300">
      <contour>
        <pt x="1296" y="557" on="0"/>
        <pt x="1231" y="383" on="0"/>
        <pt x="1171" y="313" on="1"/>
        <pt x="1382" y="100" on="1"/>
        <pt x="1290" y="0" on="1"/>
        <pt x="1071" y="217" on="1"/>
        <pt x="919" y="108" on="0"/>
        <pt x="733" y="109" on="1"/>
        <pt x="641" y="109" on="0"/>
        <pt x="469" y="166" on="0"/>
        <pt x="399" y="219" on="1"/>
        <pt x="178" y="0" on="1"/>
        <pt x="86" y="100" on="1"/>
        <pt x="297" y="313" on="1"/>
        <pt x="176" y="463" on="0"/>
        <pt x="176" y="651" on="1"/>
        <pt x="176" y="837" on="0"/>
        <pt x="295" y="989" on="1"/>
        <pt x="86" y="1200" on="1"/>
        <pt x="178" y="1300" on="1"/>
        <pt x="395" y="1085" on="1"/>
        <pt x="547" y="1198" on="0"/>
        <pt x="733" y="1198" on="1"/>
        <pt x="923" y="1198" on="0"/>
        <pt x="1075" y="1085" on="1"/>
        <pt x="1290" y="1300" on="1"/>
        <pt x="1382" y="1200" on="1"/>
        <pt x="1176" y="991" on="1"/>
        <pt x="1233" y="919" on="0"/>
        <pt x="1296" y="745" on="0"/>
        <pt x="1296" y="651" on="1"/>
      </contour>
      <contour>
        <pt x="305" y="543" on="0"/>
        <pt x="420" y="360" on="0"/>
        <pt x="616" y="254" on="0"/>
        <pt x="733" y="254" on="1"/>
        <pt x="852" y="254" on="0"/>
        <pt x="1051" y="360" on="0"/>
        <pt x="1167" y="543" on="0"/>
        <pt x="1167" y="651" on="1"/>
        <pt x="1167" y="762" on="0"/>
        <pt x="1051" y="946" on="0"/>
        <pt x="852" y="1055" on="0"/>
        <pt x="733" y="1055" on="1"/>
        <pt x="616" y="1055" on="0"/>
        <pt x="420" y="946" on="0"/>
        <pt x="305" y="762" on="0"/>
        <pt x="305" y="651" on="1"/>
      </contour>
    </TTGlyph>
    <TTGlyph name="d" xMin="86" yMin="-8" xMax="1186" yMax="1520">
      <contour>
        <pt x="1186" y="0" on="1"/>
        <pt x="1026" y="0" on="1"/>
        <pt x="1026" y="231" on="1"/>
        <pt x="965" y="116" on="0"/>
        <pt x="750" y="-8" on="0"/>
        <pt x="606" y="-8" on="1"/>
        <pt x="454" y="-8" on="0"/>
        <pt x="217" y="131" on="0"/>
        <pt x="86" y="381" on="0"/>
        <pt x="86" y="541" on="1"/>
        <pt x="86" y="701" on="0"/>
        <pt x="217" y="948" on="0"/>
        <pt x="453" y="1087" on="0"/>
        <pt x="604" y="1087" on="1"/>
        <pt x="747" y="1087" on="0"/>
        <pt x="967" y="963" on="0"/>
        <pt x="1026" y="846" on="1"/>
        <pt x="1026" y="1520" on="1"/>
        <pt x="1186" y="1520" on="1"/>
      </contour>
      <contour>
        <pt x="750" y="135" on="0"/>
        <pt x="926" y="238" on="0"/>
        <pt x="1026" y="422" on="0"/>
        <pt x="1026" y="537" on="1"/>
        <pt x="1026" y="654" on="0"/>
        <pt x="926" y="838" on="0"/>
        <pt x="750" y="942" on="0"/>
        <pt x="637" y="942" on="1"/>
        <pt x="524" y="942" on="0"/>
        <pt x="346" y="838" on="0"/>
        <pt x="246" y="653" on="0"/>
        <pt x="246" y="537" on="1"/>
        <pt x="246" y="422" on="0"/>
        <pt x="346" y="238" on="0"/>
        <pt x="524" y="135" on="0"/>
        <pt x="637" y="135" on="1"/>
      </contour>
    </TTGlyph>
    <TTGlyph name="dagger" xMin="27" yMin="-391" xMax="1026" yMax="1432">
      <contour>
        <pt x="1026" y="979" on="1"/>
        <pt x="1026" y="821" on="1"/>
        <pt x="600" y="821" on="1"/>
        <pt x="600" y="-391" on="1"/>
        <pt x="449" y="-391" on="1"/>
        <pt x="449" y="821" on="1"/>
        <pt x="27" y="821" on="1"/>
        <pt x="27" y="979" on="1"/>
        <pt x="449" y="979" on="1"/>
        <pt x="449" y="1432" on="1"/>
        <pt x="600" y="1432" on="1"/>
        <pt x="600" y="979" on="1"/>
      </contour>
    </TTGlyph>
    <TTGlyph name="daggerdbl" xMin="27" yMin="-391" xMax="1026" yMax="1432">
      <contour>
        <pt x="600" y="272" on="1"/>
        <pt x="1026" y="272" on="1"/>
        <pt x="1026" y="117" on="1"/>
        <pt x="600" y="117" on="1"/>
        <pt x="600" y="-391" on="1"/>
        <pt x="449" y="-391" on="1"/>
        <pt x="449" y="117" on="1"/>
        <pt x="27" y="117" on="1"/>
        <pt x="27" y="272" on="1"/>
        <pt x="449" y="272" on="1"/>
        <pt x="449" y="821" on="1"/>
        <pt x="27" y="821" on="1"/>
        <pt x="27" y="979" on="1"/>
        <pt x="449" y="979" on="1"/>
        <pt x="449" y="1432" on="1"/>
        <pt x="600" y="1432" on="1"/>
        <pt x="600" y="979" on="1"/>
        <pt x="1026" y="979" on="1"/>
        <pt x="1026" y="821" on="1"/>
        <pt x="600" y="821" on="1"/>
      </contour>
    </TTGlyph>
    <TTGlyph name="dcaron" xMin="86" yMin="-8" xMax="1518" yMax="1520">
      <contour>
        <pt x="1186" y="1520" on="1"/>
        <pt x="1186" y="0" on="1"/>
        <pt x="1026" y="0" on="1"/>
        <pt x="1026" y="231" on="1"/>
        <pt x="965" y="116" on="0"/>
        <pt x="750" y="-8" on="0"/>
        <pt x="606" y="-8" on="1"/>
        <pt x="454" y="-8" on="0"/>
        <pt x="217" y="131" on="0"/>
        <pt x="86" y="381" on="0"/>
        <pt x="86" y="541" on="1"/>
        <pt x="86" y="701" on="0"/>
        <pt x="217" y="948" on="0"/>
        <pt x="453" y="1087" on="0"/>
        <pt x="604" y="1087" on="1"/>
        <pt x="747" y="1087" on="0"/>
        <pt x="967" y="963" on="0"/>
        <pt x="1026" y="846" on="1"/>
        <pt x="1026" y="1520" on="1"/>
      </contour>
      <contour>
        <pt x="1462" y="1411" on="0"/>
        <pt x="1518" y="1354" on="0"/>
        <pt x="1518" y="1309" on="1"/>
        <pt x="1518" y="1268" on="0"/>
        <pt x="1489" y="1221" on="1"/>
        <pt x="1393" y="1071" on="1"/>
        <pt x="1303" y="1071" on="1"/>
        <pt x="1370" y="1221" on="1"/>
        <pt x="1323" y="1250" on="0"/>
        <pt x="1323" y="1309" on="1"/>
        <pt x="1323" y="1354" on="0"/>
        <pt x="1380" y="1411" on="0"/>
        <pt x="1421" y="1411" on="1"/>
      </contour>
      <contour>
        <pt x="750" y="135" on="0"/>
        <pt x="926" y="238" on="0"/>
        <pt x="1026" y="422" on="0"/>
        <pt x="1026" y="537" on="1"/>
        <pt x="1026" y="654" on="0"/>
        <pt x="926" y="838" on="0"/>
        <pt x="750" y="942" on="0"/>
        <pt x="637" y="942" on="1"/>
        <pt x="524" y="942" on="0"/>
        <pt x="346" y="838" on="0"/>
        <pt x="246" y="653" on="0"/>
        <pt x="246" y="537" on="1"/>
        <pt x="246" y="422" on="0"/>
        <pt x="346" y="238" on="0"/>
        <pt x="524" y="135" on="0"/>
        <pt x="637" y="135" on="1"/>
      </contour>
    </TTGlyph>
    <TTGlyph name="dcroat" xMin="86" yMin="-8" xMax="1331" yMax="1520">
      <contour>
        <pt x="1186" y="1290" on="1"/>
        <pt x="1186" y="0" on="1"/>
        <pt x="1026" y="0" on="1"/>
        <pt x="1026" y="231" on="1"/>
        <pt x="965" y="116" on="0"/>
        <pt x="750" y="-8" on="0"/>
        <pt x="606" y="-8" on="1"/>
        <pt x="454" y="-8" on="0"/>
        <pt x="217" y="131" on="0"/>
        <pt x="86" y="381" on="0"/>
        <pt x="86" y="541" on="1"/>
        <pt x="86" y="701" on="0"/>
        <pt x="217" y="948" on="0"/>
        <pt x="453" y="1087" on="0"/>
        <pt x="604" y="1087" on="1"/>
        <pt x="747" y="1087" on="0"/>
        <pt x="967" y="963" on="0"/>
        <pt x="1026" y="846" on="1"/>
        <pt x="1026" y="1290" on="1"/>
        <pt x="805" y="1290" on="1"/>
        <pt x="805" y="1393" on="1"/>
        <pt x="1026" y="1393" on="1"/>
        <pt x="1026" y="1520" on="1"/>
        <pt x="1186" y="1520" on="1"/>
        <pt x="1186" y="1393" on="1"/>
        <pt x="1331" y="1393" on="1"/>
        <pt x="1331" y="1290" on="1"/>
      </contour>
      <contour>
        <pt x="750" y="135" on="0"/>
        <pt x="926" y="238" on="0"/>
        <pt x="1026" y="422" on="0"/>
        <pt x="1026" y="537" on="1"/>
        <pt x="1026" y="654" on="0"/>
        <pt x="926" y="838" on="0"/>
        <pt x="750" y="942" on="0"/>
        <pt x="637" y="942" on="1"/>
        <pt x="524" y="942" on="0"/>
        <pt x="346" y="838" on="0"/>
        <pt x="246" y="653" on="0"/>
        <pt x="246" y="537" on="1"/>
        <pt x="246" y="422" on="0"/>
        <pt x="346" y="238" on="0"/>
        <pt x="524" y="135" on="0"/>
        <pt x="637" y="135" on="1"/>
      </contour>
    </TTGlyph>
    <TTGlyph name="degree" xMin="162" yMin="1188" xMax="633" yMax="1649">
      <contour>
        <pt x="492" y="1649" on="0"/>
        <pt x="633" y="1511" on="0"/>
        <pt x="633" y="1417" on="1"/>
        <pt x="633" y="1323" on="0"/>
        <pt x="492" y="1188" on="0"/>
        <pt x="395" y="1188" on="1"/>
        <pt x="299" y="1188" on="0"/>
        <pt x="162" y="1323" on="0"/>
        <pt x="162" y="1417" on="1"/>
        <pt x="162" y="1511" on="0"/>
        <pt x="301" y="1649" on="0"/>
        <pt x="395" y="1649" on="1"/>
      </contour>
      <contour>
        <pt x="332" y="1567" on="0"/>
        <pt x="240" y="1477" on="0"/>
        <pt x="240" y="1417" on="1"/>
        <pt x="240" y="1358" on="0"/>
        <pt x="332" y="1270" on="0"/>
        <pt x="395" y="1270" on="1"/>
        <pt x="461" y="1270" on="0"/>
        <pt x="555" y="1358" on="0"/>
        <pt x="555" y="1417" on="1"/>
        <pt x="555" y="1476" on="0"/>
        <pt x="461" y="1567" on="0"/>
        <pt x="395" y="1567" on="1"/>
      </contour>
    </TTGlyph>
    <TTGlyph name="dieresis" xMin="98" yMin="1291" xMax="617" yMax="1500">
      <component glyphName="dotaccent" x="180" y="85" scale="0.943786621094" flags="0x1000"/>
      <component glyphName="dotaccent" x="-141" y="85" scale="0.943786621094" flags="0x1000"/>
    </TTGlyph>
    <TTGlyph name="divide" xMin="76" yMin="209" xMax="930" yMax="1143">
      <contour>
        <pt x="541" y="1143" on="0"/>
        <pt x="598" y="1083" on="0"/>
        <pt x="598" y="1038" on="1"/>
        <pt x="598" y="993" on="0"/>
        <pt x="541" y="932" on="0"/>
        <pt x="500" y="932" on="1"/>
        <pt x="459" y="932" on="0"/>
        <pt x="401" y="993" on="0"/>
        <pt x="401" y="1038" on="1"/>
        <pt x="401" y="1083" on="0"/>
        <pt x="459" y="1143" on="0"/>
        <pt x="500" y="1143" on="1"/>
      </contour>
      <contour>
        <pt x="76" y="602" on="1"/>
        <pt x="76" y="721" on="1"/>
        <pt x="930" y="721" on="1"/>
        <pt x="930" y="602" on="1"/>
      </contour>
      <contour>
        <pt x="541" y="420" on="0"/>
        <pt x="598" y="358" on="0"/>
        <pt x="598" y="313" on="1"/>
        <pt x="598" y="268" on="0"/>
        <pt x="541" y="209" on="0"/>
        <pt x="500" y="209" on="1"/>
        <pt x="459" y="209" on="0"/>
        <pt x="401" y="268" on="0"/>
        <pt x="401" y="313" on="1"/>
        <pt x="401" y="358" on="0"/>
        <pt x="459" y="420" on="0"/>
        <pt x="500" y="420" on="1"/>
      </contour>
    </TTGlyph>
    <TTGlyph name="divisionslash" xMin="-23" yMin="-250" xMax="758" yMax="1679">
      <component glyphName="slash" x="0" y="0" flags="0x1000"/>
    </TTGlyph>
    <TTGlyph name="dollar" xMin="66" yMin="-274" xMax="1133" yMax="1686">
      <contour>
        <pt x="831" y="762" on="0"/>
        <pt x="1010" y="678" on="0"/>
        <pt x="1133" y="518" on="0"/>
        <pt x="1133" y="391" on="1"/>
        <pt x="1133" y="227" on="0"/>
        <pt x="893" y="14" on="0"/>
        <pt x="692" y="-2" on="1"/>
        <pt x="692" y="-274" on="1"/>
        <pt x="567" y="-274" on="1"/>
        <pt x="567" y="-4" on="1"/>
        <pt x="426" y="4" on="0"/>
        <pt x="162" y="121" on="0"/>
        <pt x="66" y="213" on="1"/>
        <pt x="139" y="360" on="1"/>
        <pt x="227" y="274" on="0"/>
        <pt x="453" y="170" on="0"/>
        <pt x="567" y="160" on="1"/>
        <pt x="567" y="668" on="1"/>
        <pt x="436" y="707" on="0"/>
        <pt x="262" y="791" on="0"/>
        <pt x="147" y="946" on="0"/>
        <pt x="147" y="1069" on="1"/>
        <pt x="147" y="1223" on="0"/>
        <pt x="375" y="1419" on="0"/>
        <pt x="567" y="1436" on="1"/>
        <pt x="567" y="1686" on="1"/>
        <pt x="692" y="1686" on="1"/>
        <pt x="692" y="1438" on="1"/>
        <pt x="803" y="1432" on="0"/>
        <pt x="1016" y="1362" on="0"/>
        <pt x="1098" y="1307" on="1"/>
        <pt x="1028" y="1153" on="1"/>
        <pt x="950" y="1204" on="0"/>
        <pt x="776" y="1264" on="0"/>
        <pt x="692" y="1272" on="1"/>
        <pt x="692" y="805" on="1"/>
      </contour>
      <contour>
        <pt x="328" y="991" on="0"/>
        <pt x="451" y="885" on="0"/>
        <pt x="567" y="844" on="1"/>
        <pt x="567" y="1270" on="1"/>
        <pt x="454" y="1260" on="0"/>
        <pt x="328" y="1161" on="0"/>
        <pt x="328" y="1083" on="1"/>
      </contour>
      <contour>
        <pt x="952" y="477" on="0"/>
        <pt x="819" y="588" on="0"/>
        <pt x="692" y="629" on="1"/>
        <pt x="692" y="162" on="1"/>
        <pt x="815" y="176" on="0"/>
        <pt x="952" y="291" on="0"/>
        <pt x="952" y="379" on="1"/>
      </contour>
    </TTGlyph>
    <TTGlyph name="dotaccent" xMin="254" yMin="1278" xMax="463" yMax="1499">
      <contour>
        <pt x="403" y="1499" on="0"/>
        <pt x="463" y="1436" on="0"/>
        <pt x="463" y="1389" on="1"/>
        <pt x="463" y="1342" on="0"/>
        <pt x="403" y="1278" on="0"/>
        <pt x="358" y="1278" on="1"/>
        <pt x="313" y="1278" on="0"/>
        <pt x="254" y="1341" on="0"/>
        <pt x="254" y="1389" on="1"/>
        <pt x="254" y="1436" on="0"/>
        <pt x="313" y="1499" on="0"/>
        <pt x="358" y="1499" on="1"/>
      </contour>
    </TTGlyph>
    <TTGlyph name="dotlessi" xMin="195" yMin="0" xMax="352" yMax="1079">
      <contour>
        <pt x="195" y="0" on="1"/>
        <pt x="195" y="1079" on="1"/>
        <pt x="352" y="1079" on="1"/>
        <pt x="352" y="0" on="1"/>
      </contour>
    </TTGlyph>
    <TTGlyph name="dotlessj" xMin="-188" yMin="-403" xMax="348" yMax="1079">
      <contour>
        <pt x="348" y="-221" on="0"/>
        <pt x="197" y="-403" on="0"/>
        <pt x="57" y="-403" on="1"/>
        <pt x="-74" y="-403" on="0"/>
        <pt x="-188" y="-328" on="1"/>
        <pt x="-141" y="-203" on="1"/>
        <pt x="-61" y="-260" on="0"/>
        <pt x="27" y="-260" on="1"/>
        <pt x="107" y="-260" on="0"/>
        <pt x="188" y="-143" on="0"/>
        <pt x="188" y="-33" on="1"/>
        <pt x="188" y="1079" on="1"/>
        <pt x="348" y="1079" on="1"/>
        <pt x="348" y="-53" on="1"/>
      </contour>
    </TTGlyph>
    <TTGlyph name="e" xMin="86" yMin="-6" xMax="1137" yMax="1083">
      <contour>
        <pt x="879" y="1083" on="0"/>
        <pt x="1137" y="758" on="0"/>
        <pt x="1124" y="477" on="1"/>
        <pt x="244" y="477" on="1"/>
        <pt x="264" y="319" on="0"/>
        <pt x="477" y="133" on="0"/>
        <pt x="635" y="133" on="1"/>
        <pt x="735" y="133" on="0"/>
        <pt x="905" y="203" on="0"/>
        <pt x="969" y="268" on="1"/>
        <pt x="1057" y="174" on="1"/>
        <pt x="979" y="88" on="0"/>
        <pt x="756" y="-6" on="0"/>
        <pt x="623" y="-6" on="1"/>
        <pt x="465" y="-6" on="0"/>
        <pt x="221" y="131" on="0"/>
        <pt x="86" y="379" on="0"/>
        <pt x="86" y="539" on="1"/>
        <pt x="86" y="699" on="0"/>
        <pt x="223" y="946" on="0"/>
        <pt x="469" y="1083" on="0"/>
        <pt x="625" y="1083" on="1"/>
      </contour>
      <contour>
        <pt x="973" y="764" on="0"/>
        <pt x="778" y="946" on="0"/>
        <pt x="621" y="946" on="1"/>
        <pt x="467" y="946" on="0"/>
        <pt x="262" y="762" on="0"/>
        <pt x="244" y="608" on="1"/>
        <pt x="981" y="608" on="1"/>
      </contour>
    </TTGlyph>
    <TTGlyph name="eacute" xMin="86" yMin="-6" xMax="1137" yMax="1536">
      <component glyphName="e" x="0" y="0" flags="0x1000"/>
      <component glyphName="acute" x="346" y="0" flags="0x1000"/>
    </TTGlyph>
    <TTGlyph name="ecaron" xMin="86" yMin="-6" xMax="1137" yMax="1528">
      <component glyphName="e" x="0" y="0" flags="0x1000"/>
      <component glyphName="caron" x="246" y="-4" flags="0x1000"/>
    </TTGlyph>
    <TTGlyph name="ecircumflex" xMin="86" yMin="-6" xMax="1137" yMax="1528">
      <component glyphName="e" x="0" y="0" flags="0x1000"/>
      <component glyphName="circumflex" x="250" y="-4" flags="0x1000"/>
    </TTGlyph>
    <TTGlyph name="edieresis" xMin="86" yMin="-6" xMax="1137" yMax="1505">
      <contour>
        <pt x="397" y="1294" on="0"/>
        <pt x="340" y="1356" on="0"/>
        <pt x="340" y="1401" on="1"/>
        <pt x="340" y="1446" on="0"/>
        <pt x="397" y="1505" on="0"/>
        <pt x="438" y="1505" on="1"/>
        <pt x="479" y="1505" on="0"/>
        <pt x="537" y="1446" on="0"/>
        <pt x="537" y="1401" on="1"/>
        <pt x="537" y="1356" on="0"/>
        <pt x="479" y="1294" on="0"/>
        <pt x="438" y="1294" on="1"/>
      </contour>
      <contour>
        <pt x="737" y="1294" on="0"/>
        <pt x="680" y="1356" on="0"/>
        <pt x="680" y="1401" on="1"/>
        <pt x="680" y="1446" on="0"/>
        <pt x="737" y="1505" on="0"/>
        <pt x="778" y="1505" on="1"/>
        <pt x="819" y="1505" on="0"/>
        <pt x="877" y="1446" on="0"/>
        <pt x="877" y="1401" on="1"/>
        <pt x="877" y="1356" on="0"/>
        <pt x="819" y="1294" on="0"/>
        <pt x="778" y="1294" on="1"/>
      </contour>
      <contour>
        <pt x="879" y="1083" on="0"/>
        <pt x="1137" y="758" on="0"/>
        <pt x="1124" y="477" on="1"/>
        <pt x="244" y="477" on="1"/>
        <pt x="264" y="319" on="0"/>
        <pt x="477" y="133" on="0"/>
        <pt x="635" y="133" on="1"/>
        <pt x="735" y="133" on="0"/>
        <pt x="905" y="203" on="0"/>
        <pt x="969" y="268" on="1"/>
        <pt x="1057" y="174" on="1"/>
        <pt x="979" y="88" on="0"/>
        <pt x="756" y="-6" on="0"/>
        <pt x="623" y="-6" on="1"/>
        <pt x="465" y="-6" on="0"/>
        <pt x="221" y="131" on="0"/>
        <pt x="86" y="379" on="0"/>
        <pt x="86" y="539" on="1"/>
        <pt x="86" y="699" on="0"/>
        <pt x="223" y="946" on="0"/>
        <pt x="469" y="1083" on="0"/>
        <pt x="625" y="1083" on="1"/>
      </contour>
      <contour>
        <pt x="973" y="764" on="0"/>
        <pt x="778" y="946" on="0"/>
        <pt x="621" y="946" on="1"/>
        <pt x="467" y="946" on="0"/>
        <pt x="262" y="762" on="0"/>
        <pt x="244" y="608" on="1"/>
        <pt x="981" y="608" on="1"/>
      </contour>
    </TTGlyph>
    <TTGlyph name="edotaccent" xMin="86" yMin="-6" xMax="1137" yMax="1499">
      <component glyphName="e" x="0" y="0" flags="0x1000"/>
      <component glyphName="dotaccent" x="250" y="0" flags="0x1000"/>
    </TTGlyph>
    <TTGlyph name="egrave" xMin="86" yMin="-6" xMax="1137" yMax="1536">
      <component glyphName="e" x="0" y="0" flags="0x1000"/>
      <component glyphName="grave" x="158" y="0" flags="0x1000"/>
    </TTGlyph>
    <TTGlyph name="eight" xMin="102" yMin="-8" xMax="1159" yMax="1440">
      <contour>
        <pt x="846" y="1440" on="0"/>
        <pt x="1092" y="1247" on="0"/>
        <pt x="1092" y="1079" on="1"/>
        <pt x="1092" y="970" on="0"/>
        <pt x="969" y="809" on="0"/>
        <pt x="858" y="766" on="1"/>
        <pt x="999" y="723" on="0"/>
        <pt x="1159" y="535" on="0"/>
        <pt x="1159" y="401" on="1"/>
        <pt x="1159" y="211" on="0"/>
        <pt x="877" y="-8" on="0"/>
        <pt x="633" y="-8" on="1"/>
        <pt x="387" y="-8" on="0"/>
        <pt x="102" y="209" on="0"/>
        <pt x="102" y="397" on="1"/>
        <pt x="102" y="532" on="0"/>
        <pt x="266" y="723" on="0"/>
        <pt x="412" y="766" on="1"/>
        <pt x="297" y="811" on="0"/>
        <pt x="172" y="975" on="0"/>
        <pt x="172" y="1083" on="1"/>
        <pt x="172" y="1249" on="0"/>
        <pt x="420" y="1440" on="0"/>
        <pt x="631" y="1440" on="1"/>
      </contour>
      <contour>
        <pt x="481" y="1313" on="0"/>
        <pt x="313" y="1184" on="0"/>
        <pt x="313" y="1069" on="1"/>
        <pt x="313" y="954" on="0"/>
        <pt x="481" y="825" on="0"/>
        <pt x="633" y="825" on="1"/>
        <pt x="783" y="825" on="0"/>
        <pt x="950" y="954" on="0"/>
        <pt x="950" y="1069" on="1"/>
        <pt x="950" y="1184" on="0"/>
        <pt x="782" y="1313" on="0"/>
        <pt x="633" y="1313" on="1"/>
      </contour>
      <contour>
        <pt x="457" y="688" on="0"/>
        <pt x="258" y="543" on="0"/>
        <pt x="258" y="416" on="1"/>
        <pt x="258" y="281" on="0"/>
        <pt x="457" y="131" on="0"/>
        <pt x="633" y="131" on="1"/>
        <pt x="807" y="131" on="0"/>
        <pt x="1006" y="281" on="0"/>
        <pt x="1006" y="416" on="1"/>
        <pt x="1006" y="543" on="0"/>
        <pt x="807" y="688" on="0"/>
        <pt x="631" y="688" on="1"/>
      </contour>
    </TTGlyph>
    <TTGlyph name="eight.dnom" xMin="84" yMin="-4" xMax="739" yMax="846">
      <contour>
        <pt x="543" y="846" on="0"/>
        <pt x="696" y="731" on="0"/>
        <pt x="696" y="631" on="1"/>
        <pt x="696" y="570" on="0"/>
        <pt x="625" y="475" on="0"/>
        <pt x="561" y="451" on="1"/>
        <pt x="645" y="424" on="0"/>
        <pt x="739" y="311" on="0"/>
        <pt x="739" y="236" on="1"/>
        <pt x="739" y="123" on="0"/>
        <pt x="563" y="-4" on="0"/>
        <pt x="412" y="-4" on="1"/>
        <pt x="260" y="-4" on="0"/>
        <pt x="84" y="123" on="0"/>
        <pt x="84" y="233" on="1"/>
        <pt x="84" y="311" on="0"/>
        <pt x="182" y="424" on="0"/>
        <pt x="268" y="451" on="1"/>
        <pt x="198" y="478" on="0"/>
        <pt x="125" y="571" on="0"/>
        <pt x="125" y="635" on="1"/>
        <pt x="125" y="733" on="0"/>
        <pt x="279" y="846" on="0"/>
        <pt x="412" y="846" on="1"/>
      </contour>
      <contour>
        <pt x="326" y="758" on="0"/>
        <pt x="229" y="688" on="0"/>
        <pt x="229" y="625" on="1"/>
        <pt x="229" y="562" on="0"/>
        <pt x="326" y="492" on="0"/>
        <pt x="412" y="492" on="1"/>
        <pt x="498" y="492" on="0"/>
        <pt x="594" y="561" on="0"/>
        <pt x="594" y="625" on="1"/>
        <pt x="594" y="688" on="0"/>
        <pt x="498" y="758" on="0"/>
        <pt x="412" y="758" on="1"/>
      </contour>
      <contour>
        <pt x="311" y="395" on="0"/>
        <pt x="199" y="317" on="0"/>
        <pt x="199" y="248" on="1"/>
        <pt x="199" y="172" on="0"/>
        <pt x="309" y="92" on="0"/>
        <pt x="412" y="92" on="1"/>
        <pt x="512" y="92" on="0"/>
        <pt x="625" y="172" on="0"/>
        <pt x="625" y="246" on="1"/>
        <pt x="625" y="318" on="0"/>
        <pt x="512" y="395" on="0"/>
        <pt x="412" y="395" on="1"/>
      </contour>
    </TTGlyph>
    <TTGlyph name="eight.numr" xMin="84" yMin="588" xMax="739" yMax="1438">
      <contour>
        <pt x="543" y="1438" on="0"/>
        <pt x="696" y="1323" on="0"/>
        <pt x="696" y="1223" on="1"/>
        <pt x="696" y="1162" on="0"/>
        <pt x="625" y="1067" on="0"/>
        <pt x="561" y="1040" on="1"/>
        <pt x="645" y="1015" on="0"/>
        <pt x="739" y="903" on="0"/>
        <pt x="739" y="827" on="1"/>
        <pt x="739" y="714" on="0"/>
        <pt x="565" y="588" on="0"/>
        <pt x="412" y="588" on="1"/>
        <pt x="258" y="588" on="0"/>
        <pt x="84" y="713" on="0"/>
        <pt x="84" y="825" on="1"/>
        <pt x="84" y="903" on="0"/>
        <pt x="182" y="1016" on="0"/>
        <pt x="268" y="1040" on="1"/>
        <pt x="198" y="1069" on="0"/>
        <pt x="125" y="1163" on="0"/>
        <pt x="125" y="1227" on="1"/>
        <pt x="125" y="1325" on="0"/>
        <pt x="279" y="1438" on="0"/>
        <pt x="412" y="1438" on="1"/>
      </contour>
      <contour>
        <pt x="326" y="1350" on="0"/>
        <pt x="229" y="1280" on="0"/>
        <pt x="229" y="1217" on="1"/>
        <pt x="229" y="1154" on="0"/>
        <pt x="326" y="1083" on="0"/>
        <pt x="412" y="1083" on="1"/>
        <pt x="498" y="1083" on="0"/>
        <pt x="594" y="1153" on="0"/>
        <pt x="594" y="1217" on="1"/>
        <pt x="594" y="1280" on="0"/>
        <pt x="498" y="1350" on="0"/>
        <pt x="412" y="1350" on="1"/>
      </contour>
      <contour>
        <pt x="311" y="987" on="0"/>
        <pt x="199" y="909" on="0"/>
        <pt x="199" y="840" on="1"/>
        <pt x="199" y="764" on="0"/>
        <pt x="309" y="684" on="0"/>
        <pt x="412" y="684" on="1"/>
        <pt x="512" y="684" on="0"/>
        <pt x="625" y="764" on="0"/>
        <pt x="625" y="838" on="1"/>
        <pt x="625" y="910" on="0"/>
        <pt x="512" y="987" on="0"/>
        <pt x="412" y="987" on="1"/>
      </contour>
    </TTGlyph>
    <TTGlyph name="ellipsis" xMin="103" yMin="-16" xMax="1027" yMax="192">
      <component glyphName="period" x="2" y="0" scale="0.971862792969" flags="0x1000"/>
      <component glyphName="period" x="366" y="0" scale="0.971862792969" flags="0x1000"/>
      <component glyphName="period" x="732" y="0" scale="0.971862792969" flags="0x1000"/>
    </TTGlyph>
    <TTGlyph name="emacron" xMin="86" yMin="-6" xMax="1137" yMax="1450">
      <component glyphName="e" x="0" y="0" flags="0x1000"/>
      <component glyphName="macron" x="250" y="0" flags="0x1000"/>
    </TTGlyph>
    <TTGlyph name="emdash" xMin="0" yMin="471" xMax="1470" yMax="592">
      <contour>
        <pt x="0" y="471" on="1"/>
        <pt x="0" y="592" on="1"/>
        <pt x="1470" y="592" on="1"/>
        <pt x="1470" y="471" on="1"/>
      </contour>
    </TTGlyph>
    <TTGlyph name="endash" xMin="0" yMin="471" xMax="825" yMax="592">
      <contour>
        <pt x="0" y="471" on="1"/>
        <pt x="0" y="592" on="1"/>
        <pt x="825" y="592" on="1"/>
        <pt x="825" y="471" on="1"/>
      </contour>
    </TTGlyph>
    <TTGlyph name="eogonek" xMin="86" yMin="-410" xMax="1133" yMax="1083">
      <contour>
        <pt x="662" y="1083" on="0"/>
        <pt x="770" y="1083" on="0"/>
        <pt x="633" y="1083" on="1"/>
        <pt x="795" y="1083" on="0"/>
        <pt x="1022" y="934" on="0"/>
        <pt x="1133" y="662" on="0"/>
        <pt x="1124" y="477" on="1"/>
        <pt x="246" y="477" on="1"/>
        <pt x="262" y="321" on="0"/>
        <pt x="473" y="131" on="0"/>
        <pt x="635" y="131" on="1"/>
        <pt x="733" y="131" on="0"/>
        <pt x="905" y="203" on="0"/>
        <pt x="969" y="268" on="1"/>
        <pt x="1057" y="174" on="1"/>
        <pt x="850" y="-82" on="0"/>
        <pt x="850" y="-231" on="1"/>
        <pt x="850" y="-270" on="0"/>
        <pt x="889" y="-311" on="0"/>
        <pt x="922" y="-311" on="1"/>
        <pt x="975" y="-311" on="0"/>
        <pt x="1030" y="-244" on="1"/>
        <pt x="1081" y="-305" on="1"/>
        <pt x="1048" y="-352" on="0"/>
        <pt x="956" y="-410" on="0"/>
        <pt x="905" y="-410" on="1"/>
        <pt x="844" y="-410" on="0"/>
        <pt x="756" y="-332" on="0"/>
        <pt x="756" y="-256" on="1"/>
        <pt x="756" y="-113" on="0"/>
        <pt x="895" y="74" on="1"/>
        <pt x="770" y="-6" on="0"/>
        <pt x="618" y="-6" on="1"/>
        <pt x="464" y="-6" on="0"/>
        <pt x="221" y="133" on="0"/>
        <pt x="86" y="383" on="0"/>
        <pt x="86" y="543" on="1"/>
        <pt x="86" y="637" on="0"/>
        <pt x="199" y="809" on="0"/>
        <pt x="295" y="911" on="1"/>
        <pt x="342" y="962" on="0"/>
        <pt x="385" y="1018" on="0"/>
        <pt x="385" y="1036" on="1"/>
        <pt x="385" y="1040" on="0"/>
        <pt x="381" y="1063" on="0"/>
        <pt x="479" y="1075" on="0"/>
        <pt x="592" y="1081" on="1"/>
      </contour>
      <contour>
        <pt x="467" y="946" on="0"/>
        <pt x="256" y="758" on="0"/>
        <pt x="244" y="608" on="1"/>
        <pt x="981" y="608" on="1"/>
        <pt x="973" y="760" on="0"/>
        <pt x="778" y="946" on="0"/>
        <pt x="623" y="946" on="1"/>
      </contour>
    </TTGlyph>
    <TTGlyph name="equal" xMin="76" yMin="389" xMax="930" yMax="934">
      <contour>
        <pt x="76" y="813" on="1"/>
        <pt x="76" y="934" on="1"/>
        <pt x="930" y="934" on="1"/>
        <pt x="930" y="813" on="1"/>
      </contour>
      <contour>
        <pt x="76" y="389" on="1"/>
        <pt x="76" y="510" on="1"/>
        <pt x="930" y="510" on="1"/>
        <pt x="930" y="389" on="1"/>
      </contour>
    </TTGlyph>
    <TTGlyph name="estimated" xMin="143" yMin="37" xMax="1516" yMax="1272">
      <contour>
        <pt x="393" y="639" on="0"/>
        <pt x="393" y="631" on="1"/>
        <pt x="393" y="295" on="1"/>
        <pt x="393" y="277" on="0"/>
        <pt x="410" y="256" on="1"/>
        <pt x="490" y="170" on="0"/>
        <pt x="709" y="74" on="0"/>
        <pt x="831" y="74" on="1"/>
        <pt x="960" y="74" on="0"/>
        <pt x="1192" y="182" on="0"/>
        <pt x="1272" y="276" on="1"/>
        <pt x="1372" y="276" on="1"/>
        <pt x="1278" y="165" on="0"/>
        <pt x="991" y="37" on="0"/>
        <pt x="829" y="37" on="1"/>
        <pt x="643" y="37" on="0"/>
        <pt x="328" y="203" on="0"/>
        <pt x="143" y="485" on="0"/>
        <pt x="143" y="653" on="1"/>
        <pt x="143" y="821" on="0"/>
        <pt x="328" y="1106" on="0"/>
        <pt x="643" y="1272" on="0"/>
        <pt x="829" y="1272" on="1"/>
        <pt x="1015" y="1272" on="0"/>
        <pt x="1331" y="1106" on="0"/>
        <pt x="1516" y="821" on="0"/>
        <pt x="1516" y="653" on="1"/>
        <pt x="1516" y="639" on="1"/>
        <pt x="403" y="639" on="1"/>
      </contour>
      <contour>
        <pt x="1265" y="1043" on="0"/>
        <pt x="1247" y="1061" on="1"/>
        <pt x="1165" y="1143" on="0"/>
        <pt x="950" y="1235" on="0"/>
        <pt x="831" y="1235" on="1"/>
        <pt x="710" y="1235" on="0"/>
        <pt x="494" y="1139" on="0"/>
        <pt x="412" y="1055" on="1"/>
        <pt x="394" y="1037" on="0"/>
        <pt x="393" y="1014" on="1"/>
        <pt x="393" y="682" on="1"/>
        <pt x="393" y="672" on="0"/>
        <pt x="403" y="672" on="1"/>
        <pt x="1255" y="672" on="1"/>
        <pt x="1265" y="672" on="0"/>
        <pt x="1266" y="682" on="1"/>
        <pt x="1266" y="1020" on="1"/>
      </contour>
    </TTGlyph>
    <TTGlyph name="eth" xMin="94" yMin="-8" xMax="1106" yMax="1526">
      <contour>
        <pt x="930" y="1092" on="0"/>
        <pt x="1106" y="711" on="0"/>
        <pt x="1106" y="516" on="1"/>
        <pt x="1106" y="358" on="0"/>
        <pt x="977" y="121" on="0"/>
        <pt x="737" y="-8" on="0"/>
        <pt x="578" y="-8" on="1"/>
        <pt x="433" y="-8" on="0"/>
        <pt x="213" y="106" on="0"/>
        <pt x="94" y="319" on="0"/>
        <pt x="94" y="459" on="1"/>
        <pt x="94" y="662" on="0"/>
        <pt x="346" y="903" on="0"/>
        <pt x="559" y="903" on="1"/>
        <pt x="686" y="903" on="0"/>
        <pt x="895" y="797" on="0"/>
        <pt x="944" y="707" on="1"/>
        <pt x="905" y="836" on="0"/>
        <pt x="737" y="1094" on="0"/>
        <pt x="618" y="1204" on="1"/>
        <pt x="319" y="1108" on="1"/>
        <pt x="293" y="1200" on="1"/>
        <pt x="532" y="1278" on="1"/>
        <pt x="405" y="1378" on="0"/>
        <pt x="279" y="1442" on="1"/>
        <pt x="383" y="1526" on="1"/>
        <pt x="551" y="1442" on="0"/>
        <pt x="684" y="1327" on="1"/>
        <pt x="942" y="1411" on="1"/>
        <pt x="971" y="1317" on="1"/>
        <pt x="768" y="1251" on="1"/>
      </contour>
      <contour>
        <pt x="748" y="143" on="0"/>
        <pt x="938" y="313" on="0"/>
        <pt x="938" y="457" on="1"/>
        <pt x="938" y="602" on="0"/>
        <pt x="748" y="778" on="0"/>
        <pt x="590" y="778" on="1"/>
        <pt x="434" y="778" on="0"/>
        <pt x="248" y="610" on="0"/>
        <pt x="248" y="469" on="1"/>
        <pt x="248" y="319" on="0"/>
        <pt x="434" y="143" on="0"/>
        <pt x="590" y="143" on="1"/>
      </contour>
    </TTGlyph>
    <TTGlyph name="exclam" xMin="127" yMin="-16" xMax="326" yMax="1409">
      <contour>
        <pt x="279" y="432" on="1"/>
        <pt x="172" y="432" on="1"/>
        <pt x="150" y="1063" on="1"/>
        <pt x="150" y="1409" on="1"/>
        <pt x="303" y="1409" on="1"/>
        <pt x="303" y="1063" on="1"/>
      </contour>
      <contour>
        <pt x="268" y="197" on="0"/>
        <pt x="326" y="135" on="0"/>
        <pt x="326" y="90" on="1"/>
        <pt x="326" y="45" on="0"/>
        <pt x="268" y="-16" on="0"/>
        <pt x="225" y="-16" on="1"/>
        <pt x="184" y="-16" on="0"/>
        <pt x="127" y="45" on="0"/>
        <pt x="127" y="90" on="1"/>
        <pt x="127" y="135" on="0"/>
        <pt x="184" y="197" on="0"/>
        <pt x="225" y="197" on="1"/>
      </contour>
    </TTGlyph>
    <TTGlyph name="exclamdown" xMin="125" yMin="-332" xMax="324" yMax="1093">
      <component glyphName="exclam" x="451" y="1077" scale="-1.0" flags="0x1000"/>
    </TTGlyph>
    <TTGlyph name="f" xMin="88" yMin="0" xMax="805" yMax="1528">
      <contour>
        <pt x="494" y="1378" on="0"/>
        <pt x="385" y="1276" on="0"/>
        <pt x="385" y="1186" on="1"/>
        <pt x="385" y="1047" on="1"/>
        <pt x="694" y="1047" on="1"/>
        <pt x="694" y="915" on="1"/>
        <pt x="385" y="915" on="1"/>
        <pt x="385" y="0" on="1"/>
        <pt x="227" y="0" on="1"/>
        <pt x="227" y="915" on="1"/>
        <pt x="88" y="915" on="1"/>
        <pt x="88" y="1047" on="1"/>
        <pt x="227" y="1047" on="1"/>
        <pt x="227" y="1165" on="1"/>
        <pt x="227" y="1278" on="0"/>
        <pt x="324" y="1444" on="0"/>
        <pt x="481" y="1528" on="0"/>
        <pt x="573" y="1528" on="1"/>
        <pt x="708" y="1524" on="0"/>
        <pt x="805" y="1452" on="1"/>
        <pt x="739" y="1323" on="1"/>
        <pt x="661" y="1378" on="0"/>
        <pt x="575" y="1378" on="1"/>
      </contour>
    </TTGlyph>
    <TTGlyph name="fi" xMin="88" yMin="0" xMax="1040" yMax="1534">
      <contour>
        <pt x="227" y="1286" on="0"/>
        <pt x="324" y="1450" on="0"/>
        <pt x="483" y="1534" on="0"/>
        <pt x="573" y="1534" on="1"/>
        <pt x="686" y="1530" on="0"/>
        <pt x="768" y="1479" on="1"/>
        <pt x="764" y="1329" on="1"/>
        <pt x="664" y="1382" on="0"/>
        <pt x="571" y="1382" on="1"/>
        <pt x="489" y="1382" on="0"/>
        <pt x="385" y="1282" on="0"/>
        <pt x="385" y="1192" on="1"/>
        <pt x="385" y="1053" on="1"/>
        <pt x="694" y="1053" on="1"/>
        <pt x="694" y="922" on="1"/>
        <pt x="385" y="922" on="1"/>
        <pt x="385" y="0" on="1"/>
        <pt x="227" y="0" on="1"/>
        <pt x="227" y="922" on="1"/>
        <pt x="88" y="922" on="1"/>
        <pt x="88" y="1053" on="1"/>
        <pt x="227" y="1053" on="1"/>
        <pt x="227" y="1171" on="1"/>
      </contour>
      <contour>
        <pt x="891" y="1278" on="0"/>
        <pt x="831" y="1341" on="0"/>
        <pt x="831" y="1389" on="1"/>
        <pt x="831" y="1436" on="0"/>
        <pt x="891" y="1499" on="0"/>
        <pt x="936" y="1499" on="1"/>
        <pt x="981" y="1499" on="0"/>
        <pt x="1040" y="1436" on="0"/>
        <pt x="1040" y="1389" on="1"/>
        <pt x="1040" y="1342" on="0"/>
        <pt x="981" y="1278" on="0"/>
        <pt x="936" y="1278" on="1"/>
      </contour>
      <contour>
        <pt x="1016" y="1079" on="1"/>
        <pt x="1016" y="0" on="1"/>
        <pt x="858" y="0" on="1"/>
        <pt x="858" y="1079" on="1"/>
      </contour>
    </TTGlyph>
    <TTGlyph name="firsttonechinese" xMin="113" yMin="1323" xMax="606" yMax="1450">
      <component glyphName="macron" x="0" y="0" flags="0x1000"/>
    </TTGlyph>
    <TTGlyph name="five" xMin="68" yMin="-4" xMax="1057" yMax="1434">
      <contour>
        <pt x="322" y="1276" on="1"/>
        <pt x="322" y="872" on="1"/>
        <pt x="445" y="892" on="0"/>
        <pt x="563" y="893" on="1"/>
        <pt x="710" y="893" on="0"/>
        <pt x="936" y="784" on="0"/>
        <pt x="1057" y="592" on="0"/>
        <pt x="1057" y="469" on="1"/>
        <pt x="1057" y="328" on="0"/>
        <pt x="932" y="113" on="0"/>
        <pt x="702" y="-4" on="0"/>
        <pt x="551" y="-4" on="1"/>
        <pt x="432" y="-4" on="0"/>
        <pt x="170" y="80" on="0"/>
        <pt x="68" y="152" on="1"/>
        <pt x="135" y="291" on="1"/>
        <pt x="223" y="223" on="0"/>
        <pt x="436" y="147" on="0"/>
        <pt x="535" y="147" on="1"/>
        <pt x="697" y="147" on="0"/>
        <pt x="883" y="315" on="0"/>
        <pt x="883" y="459" on="1"/>
        <pt x="883" y="586" on="0"/>
        <pt x="696" y="735" on="0"/>
        <pt x="539" y="735" on="1"/>
        <pt x="465" y="735" on="0"/>
        <pt x="244" y="715" on="0"/>
        <pt x="170" y="700" on="1"/>
        <pt x="170" y="1434" on="1"/>
        <pt x="1001" y="1434" on="1"/>
        <pt x="1001" y="1276" on="1"/>
      </contour>
    </TTGlyph>
    <TTGlyph name="five.dnom" xMin="61" yMin="-4" xMax="676" yMax="842">
      <contour>
        <pt x="238" y="498" on="1"/>
        <pt x="312" y="516" on="0"/>
        <pt x="373" y="516" on="1"/>
        <pt x="512" y="516" on="0"/>
        <pt x="676" y="385" on="0"/>
        <pt x="676" y="276" on="1"/>
        <pt x="676" y="149" on="0"/>
        <pt x="506" y="-4" on="0"/>
        <pt x="362" y="-4" on="1"/>
        <pt x="288" y="-4" on="0"/>
        <pt x="125" y="47" on="0"/>
        <pt x="61" y="90" on="1"/>
        <pt x="113" y="190" on="1"/>
        <pt x="162" y="145" on="0"/>
        <pt x="291" y="94" on="0"/>
        <pt x="350" y="94" on="1"/>
        <pt x="442" y="94" on="0"/>
        <pt x="549" y="186" on="0"/>
        <pt x="549" y="268" on="1"/>
        <pt x="549" y="338" on="0"/>
        <pt x="442" y="420" on="0"/>
        <pt x="350" y="420" on="1"/>
        <pt x="307" y="420" on="0"/>
        <pt x="168" y="406" on="0"/>
        <pt x="125" y="393" on="1"/>
        <pt x="125" y="842" on="1"/>
        <pt x="643" y="842" on="1"/>
        <pt x="643" y="739" on="1"/>
        <pt x="238" y="739" on="1"/>
      </contour>
    </TTGlyph>
    <TTGlyph name="five.numr" xMin="61" yMin="588" xMax="676" yMax="1434">
      <contour>
        <pt x="238" y="1087" on="1"/>
        <pt x="306" y="1107" on="0"/>
        <pt x="373" y="1108" on="1"/>
        <pt x="512" y="1108" on="0"/>
        <pt x="676" y="977" on="0"/>
        <pt x="676" y="868" on="1"/>
        <pt x="676" y="741" on="0"/>
        <pt x="506" y="588" on="0"/>
        <pt x="362" y="588" on="1"/>
        <pt x="288" y="588" on="0"/>
        <pt x="125" y="639" on="0"/>
        <pt x="61" y="682" on="1"/>
        <pt x="113" y="780" on="1"/>
        <pt x="162" y="737" on="0"/>
        <pt x="291" y="686" on="0"/>
        <pt x="350" y="686" on="1"/>
        <pt x="442" y="686" on="0"/>
        <pt x="549" y="778" on="0"/>
        <pt x="549" y="860" on="1"/>
        <pt x="549" y="930" on="0"/>
        <pt x="442" y="1010" on="0"/>
        <pt x="350" y="1010" on="1"/>
        <pt x="305" y="1010" on="0"/>
        <pt x="168" y="995" on="0"/>
        <pt x="125" y="985" on="1"/>
        <pt x="125" y="1434" on="1"/>
        <pt x="643" y="1434" on="1"/>
        <pt x="643" y="1331" on="1"/>
        <pt x="238" y="1331" on="1"/>
      </contour>
    </TTGlyph>
    <TTGlyph name="fiveeighths" xMin="61" yMin="-4" xMax="1716" yMax="1434">
      <component glyphName="five.numr" x="0" y="0" flags="0x1000"/>
      <component glyphName="fraction" x="819" y="0" flags="0x1000"/>
      <component glyphName="eight.dnom" x="977" y="0" flags="0x1000"/>
    </TTGlyph>
    <TTGlyph name="fl" xMin="88" yMin="0" xMax="1044" yMax="1540">
      <contour>
        <pt x="227" y="1290" on="0"/>
        <pt x="315" y="1450" on="0"/>
        <pt x="473" y="1540" on="0"/>
        <pt x="569" y="1540" on="1"/>
        <pt x="622" y="1540" on="0"/>
        <pt x="729" y="1511" on="0"/>
        <pt x="770" y="1489" on="1"/>
        <pt x="766" y="1339" on="1"/>
        <pt x="682" y="1396" on="0"/>
        <pt x="598" y="1397" on="1"/>
        <pt x="508" y="1397" on="0"/>
        <pt x="385" y="1268" on="0"/>
        <pt x="385" y="1169" on="1"/>
        <pt x="385" y="1053" on="1"/>
        <pt x="694" y="1053" on="1"/>
        <pt x="694" y="924" on="1"/>
        <pt x="385" y="924" on="1"/>
        <pt x="385" y="0" on="1"/>
        <pt x="227" y="0" on="1"/>
        <pt x="227" y="924" on="1"/>
        <pt x="88" y="924" on="1"/>
        <pt x="88" y="1053" on="1"/>
        <pt x="227" y="1053" on="1"/>
        <pt x="227" y="1192" on="1"/>
      </contour>
      <contour>
        <pt x="1044" y="0" on="1"/>
        <pt x="885" y="0" on="1"/>
        <pt x="885" y="1520" on="1"/>
        <pt x="1044" y="1520" on="1"/>
      </contour>
    </TTGlyph>
    <TTGlyph name="florin" xMin="-252" yMin="-406" xMax="864" yMax="1540">
      <contour>
        <pt x="557" y="1397" on="0"/>
        <pt x="442" y="1282" on="0"/>
        <pt x="430" y="1184" on="1"/>
        <pt x="401" y="948" on="1"/>
        <pt x="711" y="948" on="1"/>
        <pt x="696" y="827" on="1"/>
        <pt x="387" y="827" on="1"/>
        <pt x="276" y="-70" on="1"/>
        <pt x="256" y="-228" on="0"/>
        <pt x="94" y="-406" on="0"/>
        <pt x="-41" y="-406" on="1"/>
        <pt x="-96" y="-406" on="0"/>
        <pt x="-211" y="-362" on="0"/>
        <pt x="-252" y="-328" on="1"/>
        <pt x="-201" y="-203" on="1"/>
        <pt x="-174" y="-230" on="0"/>
        <pt x="-90" y="-262" on="0"/>
        <pt x="-55" y="-262" on="1"/>
        <pt x="95" y="-262" on="0"/>
        <pt x="121" y="-47" on="1"/>
        <pt x="227" y="827" on="1"/>
        <pt x="92" y="827" on="1"/>
        <pt x="104" y="948" on="1"/>
        <pt x="244" y="948" on="1"/>
        <pt x="274" y="1206" on="1"/>
        <pt x="292" y="1358" on="0"/>
        <pt x="483" y="1540" on="0"/>
        <pt x="623" y="1540" on="1"/>
        <pt x="684" y="1540" on="0"/>
        <pt x="815" y="1497" on="0"/>
        <pt x="864" y="1462" on="1"/>
        <pt x="801" y="1339" on="1"/>
        <pt x="766" y="1364" on="0"/>
        <pt x="678" y="1397" on="0"/>
        <pt x="641" y="1397" on="1"/>
      </contour>
    </TTGlyph>
    <TTGlyph name="four" xMin="63" yMin="0" xMax="1122" yMax="1434">
      <contour>
        <pt x="752" y="535" on="1"/>
        <pt x="752" y="913" on="1"/>
        <pt x="905" y="913" on="1"/>
        <pt x="905" y="535" on="1"/>
        <pt x="1122" y="535" on="1"/>
        <pt x="1122" y="377" on="1"/>
        <pt x="905" y="377" on="1"/>
        <pt x="905" y="0" on="1"/>
        <pt x="752" y="0" on="1"/>
        <pt x="752" y="377" on="1"/>
        <pt x="63" y="377" on="1"/>
        <pt x="63" y="512" on="1"/>
        <pt x="578" y="1434" on="1"/>
        <pt x="739" y="1434" on="1"/>
        <pt x="240" y="535" on="1"/>
      </contour>
    </TTGlyph>
    <TTGlyph name="four.dnom" xMin="61" yMin="0" xMax="723" yMax="842">
      <contour>
        <pt x="479" y="535" on="1"/>
        <pt x="594" y="535" on="1"/>
        <pt x="594" y="309" on="1"/>
        <pt x="723" y="309" on="1"/>
        <pt x="723" y="213" on="1"/>
        <pt x="594" y="213" on="1"/>
        <pt x="594" y="0" on="1"/>
        <pt x="479" y="0" on="1"/>
        <pt x="479" y="213" on="1"/>
        <pt x="61" y="213" on="1"/>
        <pt x="61" y="307" on="1"/>
        <pt x="367" y="842" on="1"/>
        <pt x="485" y="842" on="1"/>
        <pt x="184" y="309" on="1"/>
        <pt x="479" y="309" on="1"/>
      </contour>
    </TTGlyph>
    <TTGlyph name="four.numr" xMin="61" yMin="592" xMax="723" yMax="1434">
      <contour>
        <pt x="479" y="1124" on="1"/>
        <pt x="594" y="1124" on="1"/>
        <pt x="594" y="901" on="1"/>
        <pt x="723" y="901" on="1"/>
        <pt x="723" y="805" on="1"/>
        <pt x="594" y="805" on="1"/>
        <pt x="594" y="592" on="1"/>
        <pt x="479" y="592" on="1"/>
        <pt x="479" y="805" on="1"/>
        <pt x="61" y="805" on="1"/>
        <pt x="61" y="899" on="1"/>
        <pt x="367" y="1434" on="1"/>
        <pt x="485" y="1434" on="1"/>
        <pt x="184" y="901" on="1"/>
        <pt x="479" y="901" on="1"/>
      </contour>
    </TTGlyph>
    <TTGlyph name="fraction" xMin="-569" yMin="0" xMax="662" yMax="1434">
      <contour>
        <pt x="504" y="1434" on="1"/>
        <pt x="662" y="1434" on="1"/>
        <pt x="-410" y="0" on="1"/>
        <pt x="-569" y="0" on="1"/>
      </contour>
    </TTGlyph>
    <TTGlyph name="g" xMin="86" yMin="-401" xMax="1135" yMax="1085">
      <contour>
        <pt x="1135" y="113" on="1"/>
        <pt x="1135" y="-43" on="0"/>
        <pt x="999" y="-276" on="0"/>
        <pt x="754" y="-401" on="0"/>
        <pt x="592" y="-401" on="1"/>
        <pt x="352" y="-399" on="0"/>
        <pt x="150" y="-246" on="1"/>
        <pt x="223" y="-123" on="1"/>
        <pt x="305" y="-191" on="0"/>
        <pt x="481" y="-258" on="0"/>
        <pt x="586" y="-260" on="1"/>
        <pt x="762" y="-260" on="0"/>
        <pt x="975" y="-59" on="0"/>
        <pt x="975" y="109" on="1"/>
        <pt x="975" y="272" on="1"/>
        <pt x="918" y="163" on="0"/>
        <pt x="713" y="47" on="0"/>
        <pt x="578" y="47" on="1"/>
        <pt x="435" y="47" on="0"/>
        <pt x="211" y="180" on="0"/>
        <pt x="86" y="418" on="0"/>
        <pt x="86" y="569" on="1"/>
        <pt x="86" y="719" on="0"/>
        <pt x="209" y="952" on="0"/>
        <pt x="430" y="1085" on="0"/>
        <pt x="573" y="1085" on="1"/>
        <pt x="710" y="1085" on="0"/>
        <pt x="915" y="969" on="0"/>
        <pt x="975" y="860" on="1"/>
        <pt x="975" y="1079" on="1"/>
        <pt x="1135" y="1079" on="1"/>
      </contour>
      <contour>
        <pt x="713" y="182" on="0"/>
        <pt x="881" y="281" on="0"/>
        <pt x="975" y="455" on="0"/>
        <pt x="975" y="563" on="1"/>
        <pt x="975" y="674" on="0"/>
        <pt x="881" y="848" on="0"/>
        <pt x="713" y="946" on="0"/>
        <pt x="606" y="946" on="1"/>
        <pt x="500" y="946" on="0"/>
        <pt x="332" y="848" on="0"/>
        <pt x="236" y="674" on="0"/>
        <pt x="236" y="563" on="1"/>
        <pt x="236" y="454" on="0"/>
        <pt x="332" y="281" on="0"/>
        <pt x="500" y="182" on="0"/>
        <pt x="606" y="182" on="1"/>
      </contour>
    </TTGlyph>
    <TTGlyph name="gbreve" xMin="86" yMin="-401" xMax="1135" yMax="1516">
      <component glyphName="g" x="0" y="0" flags="0x1000"/>
      <component glyphName="breve" x="293" y="-2" flags="0x1000"/>
    </TTGlyph>
    <TTGlyph name="gcommaaccent" xMin="86" yMin="-401" xMax="1135" yMax="1532">
      <component glyphName="g" x="0" y="0" flags="0x1000"/>
      <component glyphName="uni0326" x="846" y="1079" scale="-1.0" flags="0x1000"/>
    </TTGlyph>
    <TTGlyph name="germandbls" xMin="184" yMin="0" xMax="1210" yMax="1528">
      <contour>
        <pt x="813" y="1528" on="0"/>
        <pt x="1018" y="1432" on="0"/>
        <pt x="1133" y="1255" on="0"/>
        <pt x="1133" y="1139" on="1"/>
        <pt x="1133" y="1010" on="0"/>
        <pt x="989" y="813" on="0"/>
        <pt x="868" y="778" on="1"/>
        <pt x="1026" y="751" on="0"/>
        <pt x="1210" y="567" on="0"/>
        <pt x="1210" y="422" on="1"/>
        <pt x="1210" y="299" on="0"/>
        <pt x="1083" y="106" on="0"/>
        <pt x="848" y="0" on="0"/>
        <pt x="692" y="0" on="1"/>
        <pt x="584" y="0" on="1"/>
        <pt x="584" y="133" on="1"/>
        <pt x="702" y="133" on="1"/>
        <pt x="860" y="133" on="0"/>
        <pt x="1055" y="291" on="0"/>
        <pt x="1055" y="416" on="1"/>
        <pt x="1055" y="545" on="0"/>
        <pt x="844" y="694" on="0"/>
        <pt x="666" y="694" on="1"/>
        <pt x="645" y="694" on="1"/>
        <pt x="645" y="825" on="1"/>
        <pt x="797" y="825" on="0"/>
        <pt x="977" y="983" on="0"/>
        <pt x="977" y="1116" on="1"/>
        <pt x="977" y="1241" on="0"/>
        <pt x="813" y="1389" on="0"/>
        <pt x="678" y="1389" on="1"/>
        <pt x="524" y="1389" on="0"/>
        <pt x="344" y="1184" on="0"/>
        <pt x="344" y="1014" on="1"/>
        <pt x="344" y="0" on="1"/>
        <pt x="184" y="0" on="1"/>
        <pt x="184" y="1004" on="1"/>
        <pt x="184" y="1162" on="0"/>
        <pt x="305" y="1399" on="0"/>
        <pt x="528" y="1528" on="0"/>
        <pt x="680" y="1528" on="1"/>
      </contour>
    </TTGlyph>
    <TTGlyph name="grave" xMin="145" yMin="1257" xMax="555" yMax="1536">
      <contour>
        <pt x="401" y="1257" on="1"/>
        <pt x="145" y="1460" on="1"/>
        <pt x="309" y="1536" on="1"/>
        <pt x="555" y="1257" on="1"/>
      </contour>
    </TTGlyph>
    <TTGlyph name="greater" xMin="76" yMin="217" xMax="930" yMax="1133">
      <contour>
        <pt x="819" y="676" on="1"/>
        <pt x="76" y="999" on="1"/>
        <pt x="76" y="1133" on="1"/>
        <pt x="930" y="752" on="1"/>
        <pt x="930" y="598" on="1"/>
        <pt x="76" y="217" on="1"/>
        <pt x="76" y="352" on="1"/>
      </contour>
    </TTGlyph>
    <TTGlyph name="greaterequal" xMin="76" yMin="67" xMax="930" yMax="1249">
      <component glyphName="greater" x="0" y="131" scalex="1.0" scaley="0.985900878906" flags="0x1000"/>
      <component glyphName="minus" x="0" y="-535" flags="0x1000"/>
    </TTGlyph>
    <TTGlyph name="guillemotleft" xMin="76" yMin="182" xMax="761" yMax="866">
      <component glyphName="guilsinglleft" x="0" y="0" flags="0x1000"/>
      <component glyphName="guilsinglleft" x="315" y="0" flags="0x1000"/>
    </TTGlyph>
    <TTGlyph name="guillemotright" xMin="156" yMin="182" xMax="841" yMax="868">
      <component glyphName="guilsinglright" x="0" y="0" flags="0x1000"/>
      <component glyphName="guilsinglright" x="315" y="0" flags="0x1000"/>
    </TTGlyph>
    <TTGlyph name="guilsinglleft" xMin="76" yMin="182" xMax="446" yMax="866">
      <contour>
        <pt x="446" y="182" on="1"/>
        <pt x="307" y="182" on="1"/>
        <pt x="76" y="522" on="1"/>
        <pt x="307" y="866" on="1"/>
        <pt x="446" y="866" on="1"/>
        <pt x="227" y="522" on="1"/>
      </contour>
    </TTGlyph>
    <TTGlyph name="guilsinglright" xMin="156" yMin="182" xMax="526" yMax="868">
      <contour>
        <pt x="156" y="868" on="1"/>
        <pt x="295" y="868" on="1"/>
        <pt x="526" y="526" on="1"/>
        <pt x="295" y="182" on="1"/>
        <pt x="156" y="182" on="1"/>
        <pt x="377" y="526" on="1"/>
      </contour>
    </TTGlyph>
    <TTGlyph name="h" xMin="205" yMin="0" xMax="1194" yMax="1520">
      <contour>
        <pt x="977" y="1085" on="0"/>
        <pt x="1194" y="862" on="0"/>
        <pt x="1194" y="666" on="1"/>
        <pt x="1194" y="0" on="1"/>
        <pt x="1034" y="0" on="1"/>
        <pt x="1034" y="623" on="1"/>
        <pt x="1034" y="766" on="0"/>
        <pt x="872" y="926" on="0"/>
        <pt x="729" y="926" on="1"/>
        <pt x="559" y="924" on="0"/>
        <pt x="365" y="707" on="0"/>
        <pt x="365" y="530" on="1"/>
        <pt x="365" y="0" on="1"/>
        <pt x="205" y="0" on="1"/>
        <pt x="205" y="1520" on="1"/>
        <pt x="365" y="1520" on="1"/>
        <pt x="365" y="838" on="1"/>
        <pt x="471" y="1082" on="0"/>
        <pt x="784" y="1085" on="1"/>
      </contour>
    </TTGlyph>
    <TTGlyph name="hbar" xMin="27" yMin="0" xMax="1194" yMax="1520">
      <contour>
        <pt x="977" y="1085" on="0"/>
        <pt x="1194" y="862" on="0"/>
        <pt x="1194" y="666" on="1"/>
        <pt x="1194" y="0" on="1"/>
        <pt x="1034" y="0" on="1"/>
        <pt x="1034" y="623" on="1"/>
        <pt x="1034" y="766" on="0"/>
        <pt x="872" y="926" on="0"/>
        <pt x="729" y="926" on="1"/>
        <pt x="559" y="924" on="0"/>
        <pt x="365" y="707" on="0"/>
        <pt x="365" y="530" on="1"/>
        <pt x="365" y="0" on="1"/>
        <pt x="205" y="0" on="1"/>
        <pt x="205" y="1225" on="1"/>
        <pt x="27" y="1225" on="1"/>
        <pt x="27" y="1331" on="1"/>
        <pt x="205" y="1331" on="1"/>
        <pt x="205" y="1520" on="1"/>
        <pt x="365" y="1520" on="1"/>
        <pt x="365" y="1331" on="1"/>
        <pt x="684" y="1331" on="1"/>
        <pt x="684" y="1225" on="1"/>
        <pt x="365" y="1225" on="1"/>
        <pt x="365" y="838" on="1"/>
        <pt x="471" y="1082" on="0"/>
        <pt x="784" y="1085" on="1"/>
      </contour>
    </TTGlyph>
    <TTGlyph name="hungarumlaut" xMin="47" yMin="1257" xMax="670" yMax="1546">
      <contour>
        <pt x="180" y="1257" on="1"/>
        <pt x="47" y="1257" on="1"/>
        <pt x="233" y="1546" on="1"/>
        <pt x="369" y="1477" on="1"/>
      </contour>
      <contour>
        <pt x="481" y="1257" on="1"/>
        <pt x="348" y="1257" on="1"/>
        <pt x="535" y="1546" on="1"/>
        <pt x="670" y="1477" on="1"/>
      </contour>
    </TTGlyph>
    <TTGlyph name="hyphen" xMin="131" yMin="561" xMax="612" yMax="680">
      <contour>
        <pt x="131" y="561" on="1"/>
        <pt x="131" y="680" on="1"/>
        <pt x="612" y="680" on="1"/>
        <pt x="612" y="561" on="1"/>
      </contour>
    </TTGlyph>
    <TTGlyph name="i" xMin="168" yMin="0" xMax="377" yMax="1499">
      <component glyphName="dotlessi" x="0" y="0" flags="0x1000"/>
      <component glyphName="dotaccent" x="-86" y="0" flags="0x1000"/>
    </TTGlyph>
    <TTGlyph name="iacute" xMin="164" yMin="0" xMax="571" yMax="1536">
      <component glyphName="dotlessi" x="0" y="0" flags="0x1000"/>
      <component glyphName="acute" x="10" y="0" flags="0x1000"/>
    </TTGlyph>
    <TTGlyph name="icircumflex" xMin="-14" yMin="0" xMax="559" yMax="1528">
      <component glyphName="dotlessi" x="0" y="0" flags="0x1000"/>
      <component glyphName="circumflex" x="-86" y="-4" flags="0x1000"/>
    </TTGlyph>
    <TTGlyph name="idieresis" xMin="4" yMin="0" xMax="541" yMax="1505">
      <contour>
        <pt x="143" y="1505" on="0"/>
        <pt x="201" y="1446" on="0"/>
        <pt x="201" y="1401" on="1"/>
        <pt x="201" y="1356" on="0"/>
        <pt x="143" y="1294" on="0"/>
        <pt x="102" y="1294" on="1"/>
        <pt x="61" y="1294" on="0"/>
        <pt x="4" y="1356" on="0"/>
        <pt x="4" y="1401" on="1"/>
        <pt x="4" y="1446" on="0"/>
        <pt x="61" y="1505" on="0"/>
        <pt x="102" y="1505" on="1"/>
      </contour>
      <contour>
        <pt x="483" y="1505" on="0"/>
        <pt x="541" y="1446" on="0"/>
        <pt x="541" y="1401" on="1"/>
        <pt x="541" y="1356" on="0"/>
        <pt x="483" y="1294" on="0"/>
        <pt x="442" y="1294" on="1"/>
        <pt x="401" y="1294" on="0"/>
        <pt x="344" y="1356" on="0"/>
        <pt x="344" y="1401" on="1"/>
        <pt x="344" y="1446" on="0"/>
        <pt x="401" y="1505" on="0"/>
        <pt x="442" y="1505" on="1"/>
      </contour>
      <contour>
        <pt x="195" y="0" on="1"/>
        <pt x="195" y="1079" on="1"/>
        <pt x="352" y="1079" on="1"/>
        <pt x="352" y="0" on="1"/>
      </contour>
    </TTGlyph>
    <TTGlyph name="igrave" xMin="-33" yMin="0" xMax="377" yMax="1536">
      <component glyphName="dotlessi" x="0" y="0" flags="0x1000"/>
      <component glyphName="grave" x="-178" y="0" flags="0x1000"/>
    </TTGlyph>
    <TTGlyph name="ij" xMin="168" yMin="-403" xMax="924" yMax="1501">
      <contour>
        <pt x="862" y="1501" on="0"/>
        <pt x="924" y="1436" on="0"/>
        <pt x="924" y="1389" on="1"/>
        <pt x="924" y="1342" on="0"/>
        <pt x="862" y="1276" on="0"/>
        <pt x="815" y="1276" on="1"/>
        <pt x="770" y="1276" on="0"/>
        <pt x="707" y="1341" on="0"/>
        <pt x="707" y="1389" on="1"/>
        <pt x="707" y="1436" on="0"/>
        <pt x="770" y="1501" on="0"/>
        <pt x="815" y="1501" on="1"/>
      </contour>
      <contour>
        <pt x="317" y="1499" on="0"/>
        <pt x="377" y="1436" on="0"/>
        <pt x="377" y="1389" on="1"/>
        <pt x="377" y="1342" on="0"/>
        <pt x="317" y="1278" on="0"/>
        <pt x="272" y="1278" on="1"/>
        <pt x="227" y="1278" on="0"/>
        <pt x="168" y="1341" on="0"/>
        <pt x="168" y="1389" on="1"/>
        <pt x="168" y="1436" on="0"/>
        <pt x="227" y="1499" on="0"/>
        <pt x="272" y="1499" on="1"/>
      </contour>
      <contour>
        <pt x="195" y="0" on="1"/>
        <pt x="195" y="1079" on="1"/>
        <pt x="352" y="1079" on="1"/>
        <pt x="352" y="0" on="1"/>
      </contour>
      <contour>
        <pt x="895" y="-217" on="0"/>
        <pt x="723" y="-403" on="0"/>
        <pt x="590" y="-403" on="1"/>
        <pt x="469" y="-403" on="0"/>
        <pt x="367" y="-330" on="1"/>
        <pt x="424" y="-199" on="1"/>
        <pt x="500" y="-254" on="0"/>
        <pt x="580" y="-254" on="1"/>
        <pt x="654" y="-254" on="0"/>
        <pt x="735" y="-158" on="0"/>
        <pt x="735" y="-61" on="1"/>
        <pt x="735" y="1079" on="1"/>
        <pt x="895" y="1079" on="1"/>
        <pt x="895" y="-41" on="1"/>
      </contour>
    </TTGlyph>
    <TTGlyph name="imacron" xMin="27" yMin="0" xMax="520" yMax="1450">
      <component glyphName="dotlessi" x="0" y="0" flags="0x1000"/>
      <component glyphName="macron" x="-86" y="0" flags="0x1000"/>
    </TTGlyph>
    <TTGlyph name="infinity" xMin="86" yMin="225" xMax="1735" yMax="1016">
      <contour>
        <pt x="1460" y="1016" on="0"/>
        <pt x="1634" y="913" on="0"/>
        <pt x="1735" y="733" on="0"/>
        <pt x="1735" y="623" on="1"/>
        <pt x="1735" y="510" on="0"/>
        <pt x="1634" y="330" on="0"/>
        <pt x="1460" y="227" on="0"/>
        <pt x="1354" y="227" on="1"/>
        <pt x="1241" y="227" on="0"/>
        <pt x="1079" y="305" on="0"/>
        <pt x="969" y="428" on="0"/>
        <pt x="911" y="518" on="1"/>
        <pt x="854" y="426" on="0"/>
        <pt x="743" y="303" on="0"/>
        <pt x="580" y="225" on="0"/>
        <pt x="467" y="225" on="1"/>
        <pt x="361" y="225" on="0"/>
        <pt x="186" y="330" on="0"/>
        <pt x="86" y="510" on="0"/>
        <pt x="86" y="621" on="1"/>
        <pt x="86" y="732" on="0"/>
        <pt x="186" y="911" on="0"/>
        <pt x="360" y="1016" on="0"/>
        <pt x="467" y="1016" on="1"/>
        <pt x="580" y="1016" on="0"/>
        <pt x="741" y="938" on="0"/>
        <pt x="852" y="815" on="0"/>
        <pt x="909" y="723" on="1"/>
        <pt x="995" y="862" on="0"/>
        <pt x="1190" y="1016" on="0"/>
        <pt x="1354" y="1016" on="1"/>
      </contour>
      <contour>
        <pt x="602" y="352" on="0"/>
        <pt x="768" y="492" on="0"/>
        <pt x="848" y="623" on="1"/>
        <pt x="770" y="752" on="0"/>
        <pt x="602" y="889" on="0"/>
        <pt x="467" y="889" on="1"/>
        <pt x="352" y="889" on="0"/>
        <pt x="201" y="735" on="0"/>
        <pt x="201" y="621" on="1"/>
        <pt x="201" y="504" on="0"/>
        <pt x="352" y="352" on="0"/>
        <pt x="467" y="352" on="1"/>
      </contour>
      <contour>
        <pt x="1468" y="354" on="0"/>
        <pt x="1620" y="506" on="0"/>
        <pt x="1620" y="623" on="1"/>
        <pt x="1620" y="738" on="0"/>
        <pt x="1468" y="889" on="0"/>
        <pt x="1354" y="889" on="1"/>
        <pt x="1219" y="889" on="0"/>
        <pt x="1053" y="752" on="0"/>
        <pt x="973" y="621" on="1"/>
        <pt x="1051" y="492" on="0"/>
        <pt x="1219" y="354" on="0"/>
        <pt x="1354" y="354" on="1"/>
      </contour>
    </TTGlyph>
    <TTGlyph name="integral" xMin="-2" yMin="-250" xMax="637" yMax="1712">
      <contour>
        <pt x="567" y="1581" on="0"/>
        <pt x="516" y="1581" on="1"/>
        <pt x="434" y="1581" on="0"/>
        <pt x="365" y="1460" on="0"/>
        <pt x="365" y="1317" on="1"/>
        <pt x="365" y="1184" on="0"/>
        <pt x="385" y="758" on="1"/>
        <pt x="405" y="316" on="0"/>
        <pt x="406" y="160" on="1"/>
        <pt x="406" y="-61" on="0"/>
        <pt x="287" y="-250" on="0"/>
        <pt x="145" y="-250" on="1"/>
        <pt x="104" y="-250" on="0"/>
        <pt x="37" y="-231" on="0"/>
        <pt x="-2" y="-211" on="1"/>
        <pt x="25" y="-92" on="1"/>
        <pt x="76" y="-121" on="0"/>
        <pt x="129" y="-121" on="1"/>
        <pt x="211" y="-121" on="0"/>
        <pt x="283" y="4" on="0"/>
        <pt x="283" y="150" on="1"/>
        <pt x="283" y="345" on="0"/>
        <pt x="260" y="741" on="1"/>
        <pt x="240" y="1167" on="0"/>
        <pt x="240" y="1305" on="1"/>
        <pt x="240" y="1524" on="0"/>
        <pt x="360" y="1712" on="0"/>
        <pt x="500" y="1712" on="1"/>
        <pt x="561" y="1712" on="0"/>
        <pt x="637" y="1677" on="1"/>
        <pt x="612" y="1559" on="1"/>
      </contour>
    </TTGlyph>
    <TTGlyph name="iogonek" xMin="115" yMin="-410" xMax="442" yMax="1501">
      <contour>
        <pt x="305" y="1501" on="0"/>
        <pt x="365" y="1436" on="0"/>
        <pt x="365" y="1389" on="1"/>
        <pt x="365" y="1340" on="0"/>
        <pt x="305" y="1276" on="0"/>
        <pt x="260" y="1276" on="1"/>
        <pt x="217" y="1276" on="0"/>
        <pt x="156" y="1339" on="0"/>
        <pt x="156" y="1389" on="1"/>
        <pt x="156" y="1436" on="0"/>
        <pt x="217" y="1501" on="0"/>
        <pt x="260" y="1501" on="1"/>
      </contour>
      <contour>
        <pt x="311" y="0" on="1"/>
        <pt x="209" y="-145" on="0"/>
        <pt x="209" y="-233" on="1"/>
        <pt x="209" y="-270" on="0"/>
        <pt x="248" y="-311" on="0"/>
        <pt x="281" y="-311" on="1"/>
        <pt x="332" y="-311" on="0"/>
        <pt x="389" y="-244" on="1"/>
        <pt x="442" y="-305" on="1"/>
        <pt x="409" y="-352" on="0"/>
        <pt x="315" y="-410" on="0"/>
        <pt x="264" y="-410" on="1"/>
        <pt x="201" y="-410" on="0"/>
        <pt x="115" y="-332" on="0"/>
        <pt x="115" y="-258" on="1"/>
        <pt x="115" y="-207" on="0"/>
        <pt x="166" y="-84" on="0"/>
        <pt x="221" y="0" on="1"/>
        <pt x="182" y="0" on="1"/>
        <pt x="182" y="1079" on="1"/>
        <pt x="342" y="1079" on="1"/>
        <pt x="342" y="0" on="1"/>
      </contour>
    </TTGlyph>
    <TTGlyph name="itilde" xMin="-33" yMin="0" xMax="580" yMax="1526">
      <component glyphName="dotlessi" x="0" y="0" flags="0x1000"/>
      <component glyphName="tilde" x="-86" y="0" flags="0x1000"/>
    </TTGlyph>
    <TTGlyph name="j" xMin="-180" yMin="-403" xMax="377" yMax="1501">
      <contour>
        <pt x="315" y="1501" on="0"/>
        <pt x="377" y="1436" on="0"/>
        <pt x="377" y="1389" on="1"/>
        <pt x="377" y="1342" on="0"/>
        <pt x="315" y="1276" on="0"/>
        <pt x="268" y="1276" on="1"/>
        <pt x="223" y="1276" on="0"/>
        <pt x="160" y="1341" on="0"/>
        <pt x="160" y="1389" on="1"/>
        <pt x="160" y="1436" on="0"/>
        <pt x="223" y="1501" on="0"/>
        <pt x="268" y="1501" on="1"/>
      </contour>
      <contour>
        <pt x="348" y="-217" on="0"/>
        <pt x="176" y="-403" on="0"/>
        <pt x="43" y="-403" on="1"/>
        <pt x="-80" y="-403" on="0"/>
        <pt x="-180" y="-330" on="1"/>
        <pt x="-123" y="-199" on="1"/>
        <pt x="-47" y="-254" on="0"/>
        <pt x="33" y="-254" on="1"/>
        <pt x="107" y="-254" on="0"/>
        <pt x="188" y="-158" on="0"/>
        <pt x="188" y="-61" on="1"/>
        <pt x="188" y="1079" on="1"/>
        <pt x="348" y="1079" on="1"/>
        <pt x="348" y="-41" on="1"/>
      </contour>
    </TTGlyph>
    <TTGlyph name="jcircumflex" xMin="-188" yMin="-403" xMax="549" yMax="1528">
      <component glyphName="dotlessj" x="0" y="0" flags="0x1000"/>
      <component glyphName="circumflex" x="-96" y="-4" flags="0x1000"/>
    </TTGlyph>
    <TTGlyph name="k" xMin="205" yMin="0" xMax="1151" yMax="1520">
      <contour>
        <pt x="365" y="309" on="1"/>
        <pt x="365" y="0" on="1"/>
        <pt x="205" y="0" on="1"/>
        <pt x="205" y="1520" on="1"/>
        <pt x="365" y="1520" on="1"/>
        <pt x="365" y="526" on="1"/>
        <pt x="920" y="1079" on="1"/>
        <pt x="1108" y="1079" on="1"/>
        <pt x="705" y="662" on="1"/>
        <pt x="1151" y="0" on="1"/>
        <pt x="961" y="0" on="1"/>
        <pt x="592" y="545" on="1"/>
      </contour>
    </TTGlyph>
    <TTGlyph name="kcedilla" xMin="53" yMin="-434" xMax="1151" yMax="1520">
      <contour>
        <pt x="274" y="-94" on="1"/>
        <pt x="337" y="-100" on="0"/>
        <pt x="420" y="-190" on="0"/>
        <pt x="420" y="-252" on="1"/>
        <pt x="420" y="-334" on="0"/>
        <pt x="307" y="-434" on="0"/>
        <pt x="215" y="-434" on="1"/>
        <pt x="176" y="-434" on="0"/>
        <pt x="86" y="-408" on="0"/>
        <pt x="53" y="-385" on="1"/>
        <pt x="88" y="-299" on="1"/>
        <pt x="111" y="-315" on="0"/>
        <pt x="174" y="-338" on="0"/>
        <pt x="203" y="-338" on="1"/>
        <pt x="254" y="-338" on="0"/>
        <pt x="319" y="-281" on="0"/>
        <pt x="319" y="-233" on="1"/>
        <pt x="319" y="-190" on="0"/>
        <pt x="262" y="-137" on="0"/>
        <pt x="217" y="-137" on="1"/>
        <pt x="154" y="-139" on="1"/>
        <pt x="217" y="0" on="1"/>
        <pt x="205" y="0" on="1"/>
        <pt x="205" y="1520" on="1"/>
        <pt x="365" y="1520" on="1"/>
        <pt x="365" y="526" on="1"/>
        <pt x="920" y="1079" on="1"/>
        <pt x="1108" y="1079" on="1"/>
        <pt x="705" y="662" on="1"/>
        <pt x="1151" y="0" on="1"/>
        <pt x="961" y="0" on="1"/>
        <pt x="592" y="545" on="1"/>
        <pt x="365" y="309" on="1"/>
        <pt x="365" y="0" on="1"/>
        <pt x="317" y="0" on="1"/>
      </contour>
    </TTGlyph>
    <TTGlyph name="kgreenlandic" xMin="195" yMin="0" xMax="1143" yMax="1079">
      <contour>
        <pt x="352" y="307" on="1"/>
        <pt x="352" y="0" on="1"/>
        <pt x="195" y="0" on="1"/>
        <pt x="195" y="1079" on="1"/>
        <pt x="352" y="1079" on="1"/>
        <pt x="352" y="522" on="1"/>
        <pt x="911" y="1079" on="1"/>
        <pt x="1100" y="1079" on="1"/>
        <pt x="694" y="662" on="1"/>
        <pt x="1143" y="0" on="1"/>
        <pt x="952" y="0" on="1"/>
        <pt x="584" y="545" on="1"/>
      </contour>
    </TTGlyph>
    <TTGlyph name="l" xMin="205" yMin="0" xMax="365" yMax="1520">
      <contour>
        <pt x="205" y="0" on="1"/>
        <pt x="205" y="1520" on="1"/>
        <pt x="365" y="1520" on="1"/>
        <pt x="365" y="0" on="1"/>
      </contour>
    </TTGlyph>
    <TTGlyph name="lacute" xMin="177" yMin="0" xMax="584" yMax="1976">
      <component glyphName="l" x="0" y="0" flags="0x1000"/>
      <component glyphName="acute" x="23" y="440" flags="0x1000"/>
    </TTGlyph>
    <TTGlyph name="lcaron" xMin="205" yMin="0" xMax="678" yMax="1520">
      <contour>
        <pt x="365" y="1520" on="1"/>
        <pt x="365" y="0" on="1"/>
        <pt x="205" y="0" on="1"/>
        <pt x="205" y="1520" on="1"/>
      </contour>
      <contour>
        <pt x="621" y="1411" on="0"/>
        <pt x="678" y="1354" on="0"/>
        <pt x="678" y="1309" on="1"/>
        <pt x="678" y="1266" on="0"/>
        <pt x="647" y="1221" on="1"/>
        <pt x="551" y="1071" on="1"/>
        <pt x="461" y="1071" on="1"/>
        <pt x="528" y="1221" on="1"/>
        <pt x="481" y="1250" on="0"/>
        <pt x="481" y="1309" on="1"/>
        <pt x="481" y="1354" on="0"/>
        <pt x="539" y="1411" on="0"/>
        <pt x="580" y="1411" on="1"/>
      </contour>
    </TTGlyph>
    <TTGlyph name="lcommaaccent" xMin="176" yMin="-453" xMax="393" yMax="1520">
      <component glyphName="l" x="0" y="0" flags="0x1000"/>
      <component glyphName="uni0326" x="90" y="0" flags="0x1000"/>
    </TTGlyph>
    <TTGlyph name="ldot" xMin="205" yMin="0" xMax="664" yMax="1520">
      <contour>
        <pt x="205" y="0" on="1"/>
        <pt x="205" y="1520" on="1"/>
        <pt x="365" y="1520" on="1"/>
        <pt x="365" y="0" on="1"/>
      </contour>
      <contour>
        <pt x="606" y="735" on="0"/>
        <pt x="664" y="676" on="0"/>
        <pt x="664" y="631" on="1"/>
        <pt x="664" y="586" on="0"/>
        <pt x="606" y="526" on="0"/>
        <pt x="565" y="526" on="1"/>
        <pt x="524" y="526" on="0"/>
        <pt x="467" y="586" on="0"/>
        <pt x="467" y="631" on="1"/>
        <pt x="467" y="676" on="0"/>
        <pt x="524" y="735" on="0"/>
        <pt x="565" y="735" on="1"/>
      </contour>
    </TTGlyph>
    <TTGlyph name="less" xMin="76" yMin="211" xMax="930" yMax="1126">
      <contour>
        <pt x="186" y="668" on="1"/>
        <pt x="930" y="344" on="1"/>
        <pt x="930" y="211" on="1"/>
        <pt x="76" y="592" on="1"/>
        <pt x="76" y="745" on="1"/>
        <pt x="930" y="1126" on="1"/>
        <pt x="930" y="991" on="1"/>
      </contour>
    </TTGlyph>
    <TTGlyph name="lessequal" xMin="76" yMin="67" xMax="930" yMax="1242">
      <component glyphName="less" x="0" y="131" scalex="1.0" scaley="0.985900878906" flags="0x1000"/>
      <component glyphName="minus" x="0" y="-535" flags="0x1000"/>
    </TTGlyph>
    <TTGlyph name="logicalnot" xMin="76" yMin="307" xMax="958" yMax="797">
      <contour>
        <pt x="958" y="307" on="1"/>
        <pt x="838" y="307" on="1"/>
        <pt x="838" y="676" on="1"/>
        <pt x="76" y="676" on="1"/>
        <pt x="76" y="797" on="1"/>
        <pt x="958" y="797" on="1"/>
      </contour>
    </TTGlyph>
    <TTGlyph name="lozenge" xMin="86" yMin="-6" xMax="983" yMax="1354">
      <contour>
        <pt x="532" y="-6" on="1"/>
        <pt x="86" y="676" on="1"/>
        <pt x="535" y="1354" on="1"/>
        <pt x="983" y="676" on="1"/>
      </contour>
      <contour>
        <pt x="532" y="246" on="1"/>
        <pt x="831" y="676" on="1"/>
        <pt x="535" y="1106" on="1"/>
        <pt x="238" y="676" on="1"/>
      </contour>
    </TTGlyph>
    <TTGlyph name="lslash" xMin="-27" yMin="0" xMax="635" yMax="1520">
      <contour>
        <pt x="393" y="0" on="1"/>
        <pt x="233" y="0" on="1"/>
        <pt x="233" y="844" on="1"/>
        <pt x="2" y="776" on="1"/>
        <pt x="-27" y="891" on="1"/>
        <pt x="233" y="969" on="1"/>
        <pt x="233" y="1520" on="1"/>
        <pt x="393" y="1520" on="1"/>
        <pt x="393" y="1016" on="1"/>
        <pt x="606" y="1079" on="1"/>
        <pt x="635" y="963" on="1"/>
        <pt x="393" y="891" on="1"/>
      </contour>
    </TTGlyph>
    <TTGlyph name="m" xMin="195" yMin="0" xMax="1978" yMax="1085">
      <contour>
        <pt x="1765" y="1085" on="0"/>
        <pt x="1978" y="862" on="0"/>
        <pt x="1978" y="666" on="1"/>
        <pt x="1978" y="0" on="1"/>
        <pt x="1819" y="0" on="1"/>
        <pt x="1819" y="623" on="1"/>
        <pt x="1819" y="766" on="0"/>
        <pt x="1659" y="928" on="0"/>
        <pt x="1520" y="928" on="1"/>
        <pt x="1354" y="924" on="0"/>
        <pt x="1167" y="707" on="0"/>
        <pt x="1167" y="530" on="1"/>
        <pt x="1167" y="0" on="1"/>
        <pt x="1006" y="0" on="1"/>
        <pt x="1006" y="623" on="1"/>
        <pt x="1006" y="766" on="0"/>
        <pt x="848" y="928" on="0"/>
        <pt x="707" y="928" on="1"/>
        <pt x="543" y="924" on="0"/>
        <pt x="352" y="707" on="0"/>
        <pt x="352" y="530" on="1"/>
        <pt x="352" y="0" on="1"/>
        <pt x="195" y="0" on="1"/>
        <pt x="195" y="1079" on="1"/>
        <pt x="352" y="1079" on="1"/>
        <pt x="352" y="836" on="1"/>
        <pt x="405" y="959" on="0"/>
        <pt x="614" y="1083" on="0"/>
        <pt x="764" y="1085" on="1"/>
        <pt x="916" y="1085" on="0"/>
        <pt x="1116" y="938" on="0"/>
        <pt x="1151" y="803" on="1"/>
        <pt x="1200" y="944" on="0"/>
        <pt x="1419" y="1083" on="0"/>
        <pt x="1577" y="1085" on="1"/>
      </contour>
    </TTGlyph>
    <TTGlyph name="macron" xMin="113" yMin="1323" xMax="606" yMax="1450">
      <contour>
        <pt x="113" y="1323" on="1"/>
        <pt x="113" y="1450" on="1"/>
        <pt x="606" y="1450" on="1"/>
        <pt x="606" y="1323" on="1"/>
      </contour>
    </TTGlyph>
    <TTGlyph name="minus" xMin="76" yMin="602" xMax="930" yMax="721">
      <contour>
        <pt x="76" y="602" on="1"/>
        <pt x="76" y="721" on="1"/>
        <pt x="930" y="721" on="1"/>
        <pt x="930" y="602" on="1"/>
      </contour>
    </TTGlyph>
    <TTGlyph name="mu" xMin="203" yMin="-397" xMax="1176" yMax="1079">
      <contour>
        <pt x="1176" y="0" on="1"/>
        <pt x="1016" y="0" on="1"/>
        <pt x="1016" y="244" on="1"/>
        <pt x="912" y="-2" on="0"/>
        <pt x="606" y="-6" on="1"/>
        <pt x="461" y="-6" on="0"/>
        <pt x="365" y="59" on="1"/>
        <pt x="365" y="-397" on="1"/>
        <pt x="205" y="-397" on="1"/>
        <pt x="205" y="362" on="1"/>
        <pt x="203" y="378" on="0"/>
        <pt x="203" y="414" on="1"/>
        <pt x="203" y="1079" on="1"/>
        <pt x="365" y="1079" on="1"/>
        <pt x="365" y="414" on="1"/>
        <pt x="377" y="291" on="0"/>
        <pt x="532" y="154" on="0"/>
        <pt x="662" y="154" on="1"/>
        <pt x="828" y="156" on="0"/>
        <pt x="1016" y="375" on="0"/>
        <pt x="1016" y="549" on="1"/>
        <pt x="1016" y="1079" on="1"/>
        <pt x="1176" y="1079" on="1"/>
      </contour>
    </TTGlyph>
    <TTGlyph name="multiply" xMin="164" yMin="315" xMax="844" yMax="1008">
      <contour>
        <pt x="844" y="401" on="1"/>
        <pt x="766" y="315" on="1"/>
        <pt x="504" y="580" on="1"/>
        <pt x="242" y="315" on="1"/>
        <pt x="164" y="401" on="1"/>
        <pt x="422" y="662" on="1"/>
        <pt x="164" y="922" on="1"/>
        <pt x="242" y="1008" on="1"/>
        <pt x="504" y="743" on="1"/>
        <pt x="766" y="1008" on="1"/>
        <pt x="844" y="922" on="1"/>
        <pt x="586" y="662" on="1"/>
      </contour>
    </TTGlyph>
    <TTGlyph name="n" xMin="195" yMin="0" xMax="1182" yMax="1085">
      <contour>
        <pt x="965" y="1085" on="0"/>
        <pt x="1182" y="862" on="0"/>
        <pt x="1182" y="666" on="1"/>
        <pt x="1182" y="0" on="1"/>
        <pt x="1022" y="0" on="1"/>
        <pt x="1022" y="623" on="1"/>
        <pt x="1022" y="766" on="0"/>
        <pt x="860" y="926" on="0"/>
        <pt x="717" y="926" on="1"/>
        <pt x="559" y="924" on="0"/>
        <pt x="369" y="735" on="0"/>
        <pt x="354" y="580" on="1"/>
        <pt x="354" y="0" on="1"/>
        <pt x="195" y="0" on="1"/>
        <pt x="195" y="1079" on="1"/>
        <pt x="354" y="1079" on="1"/>
        <pt x="354" y="842" on="1"/>
        <pt x="465" y="1082" on="0"/>
        <pt x="772" y="1085" on="1"/>
      </contour>
    </TTGlyph>
    <TTGlyph name="nacute" xMin="195" yMin="0" xMax="1182" yMax="1536">
      <component glyphName="n" x="0" y="0" flags="0x1000"/>
      <component glyphName="acute" x="434" y="0" flags="0x1000"/>
    </TTGlyph>
    <TTGlyph name="ncaron" xMin="195" yMin="0" xMax="1182" yMax="1528">
      <component glyphName="n" x="0" y="0" flags="0x1000"/>
      <component glyphName="caron" x="336" y="-4" flags="0x1000"/>
    </TTGlyph>
    <TTGlyph name="ncommaaccent" xMin="195" yMin="-453" xMax="1182" yMax="1085">
      <component glyphName="n" x="0" y="0" flags="0x1000"/>
      <component glyphName="uni0326" x="485" y="0" flags="0x1000"/>
    </TTGlyph>
    <TTGlyph name="nine" xMin="100" yMin="-6" xMax="1144" yMax="1442">
      <component glyphName="six" x="1253" y="1434" scale="-1.0" flags="0x1000"/>
    </TTGlyph>
    <TTGlyph name="nine.dnom" xMin="80" yMin="-4" xMax="727" yMax="846">
      <contour>
        <pt x="297" y="-4" on="0"/>
        <pt x="164" y="29" on="0"/>
        <pt x="109" y="57" on="1"/>
        <pt x="158" y="150" on="1"/>
        <pt x="242" y="97" on="0"/>
        <pt x="354" y="96" on="1"/>
        <pt x="477" y="96" on="0"/>
        <pt x="610" y="258" on="0"/>
        <pt x="610" y="403" on="1"/>
        <pt x="610" y="440" on="0"/>
        <pt x="608" y="459" on="1"/>
        <pt x="585" y="385" on="0"/>
        <pt x="453" y="299" on="0"/>
        <pt x="356" y="299" on="1"/>
        <pt x="229" y="299" on="0"/>
        <pt x="80" y="444" on="0"/>
        <pt x="80" y="567" on="1"/>
        <pt x="80" y="696" on="0"/>
        <pt x="244" y="846" on="0"/>
        <pt x="381" y="846" on="1"/>
        <pt x="545" y="846" on="0"/>
        <pt x="727" y="631" on="0"/>
        <pt x="727" y="436" on="1"/>
        <pt x="727" y="235" on="0"/>
        <pt x="530" y="-4" on="0"/>
        <pt x="362" y="-4" on="1"/>
      </contour>
      <contour>
        <pt x="475" y="397" on="0"/>
        <pt x="586" y="498" on="0"/>
        <pt x="586" y="569" on="1"/>
        <pt x="586" y="635" on="0"/>
        <pt x="485" y="739" on="0"/>
        <pt x="389" y="739" on="1"/>
        <pt x="301" y="739" on="0"/>
        <pt x="195" y="645" on="0"/>
        <pt x="195" y="565" on="1"/>
        <pt x="195" y="487" on="0"/>
        <pt x="295" y="397" on="0"/>
        <pt x="381" y="397" on="1"/>
      </contour>
    </TTGlyph>
    <TTGlyph name="nine.numr" xMin="80" yMin="588" xMax="727" yMax="1438">
      <contour>
        <pt x="297" y="588" on="0"/>
        <pt x="164" y="621" on="0"/>
        <pt x="109" y="649" on="1"/>
        <pt x="158" y="741" on="1"/>
        <pt x="242" y="688" on="0"/>
        <pt x="354" y="688" on="1"/>
        <pt x="477" y="688" on="0"/>
        <pt x="610" y="850" on="0"/>
        <pt x="610" y="995" on="1"/>
        <pt x="610" y="1032" on="0"/>
        <pt x="608" y="1051" on="1"/>
        <pt x="585" y="977" on="0"/>
        <pt x="453" y="891" on="0"/>
        <pt x="356" y="891" on="1"/>
        <pt x="229" y="891" on="0"/>
        <pt x="80" y="1036" on="0"/>
        <pt x="80" y="1157" on="1"/>
        <pt x="80" y="1286" on="0"/>
        <pt x="244" y="1438" on="0"/>
        <pt x="381" y="1438" on="1"/>
        <pt x="545" y="1438" on="0"/>
        <pt x="727" y="1221" on="0"/>
        <pt x="727" y="1028" on="1"/>
        <pt x="727" y="827" on="0"/>
        <pt x="530" y="588" on="0"/>
        <pt x="362" y="588" on="1"/>
      </contour>
      <contour>
        <pt x="475" y="987" on="0"/>
        <pt x="586" y="1087" on="0"/>
        <pt x="586" y="1161" on="1"/>
        <pt x="586" y="1227" on="0"/>
        <pt x="485" y="1331" on="0"/>
        <pt x="389" y="1331" on="1"/>
        <pt x="301" y="1331" on="0"/>
        <pt x="195" y="1237" on="0"/>
        <pt x="195" y="1155" on="1"/>
        <pt x="195" y="1077" on="0"/>
        <pt x="295" y="987" on="0"/>
        <pt x="381" y="987" on="1"/>
      </contour>
    </TTGlyph>
    <TTGlyph name="notequal" xMin="76" yMin="76" xMax="930" yMax="1235">
      <contour>
        <pt x="506" y="510" on="1"/>
        <pt x="930" y="510" on="1"/>
        <pt x="930" y="389" on="1"/>
        <pt x="467" y="389" on="1"/>
        <pt x="369" y="76" on="1"/>
        <pt x="244" y="76" on="1"/>
        <pt x="342" y="389" on="1"/>
        <pt x="76" y="389" on="1"/>
        <pt x="76" y="510" on="1"/>
        <pt x="381" y="510" on="1"/>
        <pt x="477" y="813" on="1"/>
        <pt x="76" y="813" on="1"/>
        <pt x="76" y="934" on="1"/>
        <pt x="516" y="934" on="1"/>
        <pt x="610" y="1235" on="1"/>
        <pt x="735" y="1235" on="1"/>
        <pt x="641" y="934" on="1"/>
        <pt x="930" y="934" on="1"/>
        <pt x="930" y="813" on="1"/>
        <pt x="602" y="813" on="1"/>
      </contour>
    </TTGlyph>
    <TTGlyph name="ntilde" xMin="195" yMin="0" xMax="1182" yMax="1526">
      <component glyphName="n" x="0" y="0" flags="0x1000"/>
      <component glyphName="tilde" x="338" y="0" flags="0x1000"/>
    </TTGlyph>
    <TTGlyph name="numbersign" xMin="72" yMin="0" xMax="1395" yMax="1434">
      <contour>
        <pt x="1036" y="508" on="1"/>
        <pt x="1329" y="508" on="1"/>
        <pt x="1319" y="379" on="1"/>
        <pt x="1022" y="379" on="1"/>
        <pt x="975" y="0" on="1"/>
        <pt x="852" y="0" on="1"/>
        <pt x="899" y="379" on="1"/>
        <pt x="487" y="379" on="1"/>
        <pt x="440" y="0" on="1"/>
        <pt x="317" y="0" on="1"/>
        <pt x="365" y="379" on="1"/>
        <pt x="72" y="379" on="1"/>
        <pt x="82" y="508" on="1"/>
        <pt x="379" y="508" on="1"/>
        <pt x="430" y="913" on="1"/>
        <pt x="137" y="913" on="1"/>
        <pt x="147" y="1042" on="1"/>
        <pt x="446" y="1042" on="1"/>
        <pt x="494" y="1434" on="1"/>
        <pt x="616" y="1434" on="1"/>
        <pt x="569" y="1042" on="1"/>
        <pt x="981" y="1042" on="1"/>
        <pt x="1030" y="1434" on="1"/>
        <pt x="1151" y="1434" on="1"/>
        <pt x="1104" y="1042" on="1"/>
        <pt x="1395" y="1042" on="1"/>
        <pt x="1386" y="913" on="1"/>
        <pt x="1087" y="913" on="1"/>
      </contour>
      <contour>
        <pt x="551" y="913" on="1"/>
        <pt x="502" y="508" on="1"/>
        <pt x="913" y="508" on="1"/>
        <pt x="965" y="913" on="1"/>
      </contour>
    </TTGlyph>
    <TTGlyph name="o" xMin="86" yMin="-6" xMax="1180" yMax="1083">
      <contour>
        <pt x="791" y="1083" on="0"/>
        <pt x="1040" y="946" on="0"/>
        <pt x="1180" y="698" on="0"/>
        <pt x="1180" y="541" on="1"/>
        <pt x="1180" y="381" on="0"/>
        <pt x="1040" y="133" on="0"/>
        <pt x="791" y="-6" on="0"/>
        <pt x="633" y="-6" on="1"/>
        <pt x="475" y="-6" on="0"/>
        <pt x="225" y="133" on="0"/>
        <pt x="86" y="381" on="0"/>
        <pt x="86" y="541" on="1"/>
        <pt x="86" y="699" on="0"/>
        <pt x="225" y="946" on="0"/>
        <pt x="475" y="1083" on="0"/>
        <pt x="633" y="1083" on="1"/>
      </contour>
      <contour>
        <pt x="522" y="938" on="0"/>
        <pt x="344" y="836" on="0"/>
        <pt x="246" y="655" on="0"/>
        <pt x="246" y="539" on="1"/>
        <pt x="246" y="422" on="0"/>
        <pt x="344" y="240" on="0"/>
        <pt x="522" y="137" on="0"/>
        <pt x="633" y="137" on="1"/>
        <pt x="744" y="137" on="0"/>
        <pt x="922" y="240" on="0"/>
        <pt x="1020" y="422" on="0"/>
        <pt x="1020" y="539" on="1"/>
        <pt x="1020" y="656" on="0"/>
        <pt x="922" y="836" on="0"/>
        <pt x="743" y="938" on="0"/>
        <pt x="633" y="938" on="1"/>
      </contour>
    </TTGlyph>
    <TTGlyph name="oacute" xMin="86" yMin="-6" xMax="1180" yMax="1536">
      <component glyphName="o" x="0" y="0" flags="0x1000"/>
      <component glyphName="acute" x="371" y="0" flags="0x1000"/>
    </TTGlyph>
    <TTGlyph name="ocircumflex" xMin="86" yMin="-6" xMax="1180" yMax="1528">
      <component glyphName="o" x="0" y="0" flags="0x1000"/>
      <component glyphName="circumflex" x="274" y="-4" flags="0x1000"/>
    </TTGlyph>
    <TTGlyph name="odieresis" xMin="86" yMin="-6" xMax="1180" yMax="1505">
      <contour>
        <pt x="504" y="1505" on="0"/>
        <pt x="561" y="1446" on="0"/>
        <pt x="561" y="1401" on="1"/>
        <pt x="561" y="1356" on="0"/>
        <pt x="504" y="1294" on="0"/>
        <pt x="463" y="1294" on="1"/>
        <pt x="422" y="1294" on="0"/>
        <pt x="365" y="1356" on="0"/>
        <pt x="365" y="1401" on="1"/>
        <pt x="365" y="1446" on="0"/>
        <pt x="422" y="1505" on="0"/>
        <pt x="463" y="1505" on="1"/>
      </contour>
      <contour>
        <pt x="844" y="1505" on="0"/>
        <pt x="901" y="1446" on="0"/>
        <pt x="901" y="1401" on="1"/>
        <pt x="901" y="1356" on="0"/>
        <pt x="844" y="1294" on="0"/>
        <pt x="803" y="1294" on="1"/>
        <pt x="762" y="1294" on="0"/>
        <pt x="705" y="1356" on="0"/>
        <pt x="705" y="1401" on="1"/>
        <pt x="705" y="1446" on="0"/>
        <pt x="762" y="1505" on="0"/>
        <pt x="803" y="1505" on="1"/>
      </contour>
      <contour>
        <pt x="791" y="1083" on="0"/>
        <pt x="1040" y="946" on="0"/>
        <pt x="1180" y="698" on="0"/>
        <pt x="1180" y="541" on="1"/>
        <pt x="1180" y="381" on="0"/>
        <pt x="1040" y="133" on="0"/>
        <pt x="791" y="-6" on="0"/>
        <pt x="633" y="-6" on="1"/>
        <pt x="475" y="-6" on="0"/>
        <pt x="225" y="133" on="0"/>
        <pt x="86" y="381" on="0"/>
        <pt x="86" y="541" on="1"/>
        <pt x="86" y="699" on="0"/>
        <pt x="225" y="946" on="0"/>
        <pt x="475" y="1083" on="0"/>
        <pt x="633" y="1083" on="1"/>
      </contour>
      <contour>
        <pt x="522" y="938" on="0"/>
        <pt x="344" y="836" on="0"/>
        <pt x="246" y="655" on="0"/>
        <pt x="246" y="539" on="1"/>
        <pt x="246" y="422" on="0"/>
        <pt x="344" y="240" on="0"/>
        <pt x="522" y="137" on="0"/>
        <pt x="633" y="137" on="1"/>
        <pt x="744" y="137" on="0"/>
        <pt x="922" y="240" on="0"/>
        <pt x="1020" y="422" on="0"/>
        <pt x="1020" y="539" on="1"/>
        <pt x="1020" y="656" on="0"/>
        <pt x="922" y="836" on="0"/>
        <pt x="743" y="938" on="0"/>
        <pt x="633" y="938" on="1"/>
      </contour>
    </TTGlyph>
    <TTGlyph name="oe" xMin="86" yMin="-6" xMax="2081" yMax="1083">
      <contour>
        <pt x="1714" y="1083" on="0"/>
        <pt x="1954" y="938" on="0"/>
        <pt x="2081" y="676" on="0"/>
        <pt x="2079" y="506" on="1"/>
        <pt x="1174" y="506" on="1"/>
        <pt x="1186" y="336" on="0"/>
        <pt x="1403" y="133" on="0"/>
        <pt x="1569" y="133" on="1"/>
        <pt x="1669" y="133" on="0"/>
        <pt x="1841" y="203" on="0"/>
        <pt x="1905" y="268" on="1"/>
        <pt x="1993" y="174" on="1"/>
        <pt x="1913" y="88" on="0"/>
        <pt x="1692" y="-6" on="0"/>
        <pt x="1559" y="-6" on="1"/>
        <pt x="1397" y="-6" on="0"/>
        <pt x="1157" y="145" on="0"/>
        <pt x="1098" y="279" on="1"/>
        <pt x="1037" y="146" on="0"/>
        <pt x="793" y="-6" on="0"/>
        <pt x="633" y="-6" on="1"/>
        <pt x="475" y="-6" on="0"/>
        <pt x="225" y="133" on="0"/>
        <pt x="86" y="381" on="0"/>
        <pt x="86" y="541" on="1"/>
        <pt x="86" y="699" on="0"/>
        <pt x="225" y="946" on="0"/>
        <pt x="475" y="1083" on="0"/>
        <pt x="633" y="1083" on="1"/>
        <pt x="795" y="1083" on="0"/>
        <pt x="1036" y="932" on="0"/>
        <pt x="1098" y="799" on="1"/>
        <pt x="1159" y="932" on="0"/>
        <pt x="1397" y="1083" on="0"/>
        <pt x="1554" y="1083" on="1"/>
      </contour>
      <contour>
        <pt x="1909" y="762" on="0"/>
        <pt x="1712" y="956" on="0"/>
        <pt x="1554" y="956" on="1"/>
        <pt x="1400" y="956" on="0"/>
        <pt x="1192" y="762" on="0"/>
        <pt x="1176" y="604" on="1"/>
        <pt x="1919" y="604" on="1"/>
      </contour>
      <contour>
        <pt x="743" y="137" on="0"/>
        <pt x="922" y="240" on="0"/>
        <pt x="1020" y="422" on="0"/>
        <pt x="1020" y="539" on="1"/>
        <pt x="1020" y="656" on="0"/>
        <pt x="922" y="836" on="0"/>
        <pt x="743" y="938" on="0"/>
        <pt x="633" y="938" on="1"/>
        <pt x="522" y="938" on="0"/>
        <pt x="344" y="836" on="0"/>
        <pt x="246" y="655" on="0"/>
        <pt x="246" y="539" on="1"/>
        <pt x="246" y="422" on="0"/>
        <pt x="344" y="240" on="0"/>
        <pt x="522" y="137" on="0"/>
        <pt x="633" y="137" on="1"/>
      </contour>
    </TTGlyph>
    <TTGlyph name="ogonek" xMin="197" yMin="-410" xMax="524" yMax="16">
      <contour>
        <pt x="289" y="-145" on="0"/>
        <pt x="289" y="-233" on="1"/>
        <pt x="289" y="-270" on="0"/>
        <pt x="330" y="-311" on="0"/>
        <pt x="360" y="-311" on="1"/>
        <pt x="413" y="-311" on="0"/>
        <pt x="471" y="-244" on="1"/>
        <pt x="524" y="-305" on="1"/>
        <pt x="489" y="-354" on="0"/>
        <pt x="395" y="-410" on="0"/>
        <pt x="346" y="-410" on="1"/>
        <pt x="283" y="-410" on="0"/>
        <pt x="197" y="-332" on="0"/>
        <pt x="197" y="-258" on="1"/>
        <pt x="197" y="-147" on="0"/>
        <pt x="319" y="16" on="1"/>
        <pt x="410" y="16" on="1"/>
      </contour>
    </TTGlyph>
    <TTGlyph name="ograve" xMin="86" yMin="-6" xMax="1180" yMax="1536">
      <component glyphName="o" x="0" y="0" flags="0x1000"/>
      <component glyphName="grave" x="180" y="0" flags="0x1000"/>
    </TTGlyph>
    <TTGlyph name="ohungarumlaut" xMin="86" yMin="-6" xMax="1180" yMax="1542">
      <component glyphName="o" x="0" y="0" flags="0x1000"/>
      <component glyphName="hungarumlaut" x="324" y="-4" flags="0x1000"/>
    </TTGlyph>
    <TTGlyph name="omacron" xMin="86" yMin="-6" xMax="1180" yMax="1450">
      <component glyphName="o" x="0" y="0" flags="0x1000"/>
      <component glyphName="macron" x="274" y="0" flags="0x1000"/>
    </TTGlyph>
    <TTGlyph name="one" xMin="35" yMin="0" xMax="487" yMax="1434">
      <contour>
        <pt x="326" y="0" on="1"/>
        <pt x="326" y="1278" on="1"/>
        <pt x="35" y="1278" on="1"/>
        <pt x="35" y="1434" on="1"/>
        <pt x="487" y="1434" on="1"/>
        <pt x="487" y="0" on="1"/>
      </contour>
    </TTGlyph>
    <TTGlyph name="one.dnom" xMin="43" yMin="0" xMax="338" yMax="842">
      <contour>
        <pt x="217" y="737" on="1"/>
        <pt x="43" y="737" on="1"/>
        <pt x="43" y="842" on="1"/>
        <pt x="338" y="842" on="1"/>
        <pt x="338" y="0" on="1"/>
        <pt x="217" y="0" on="1"/>
      </contour>
    </TTGlyph>
    <TTGlyph name="one.numr" xMin="43" yMin="592" xMax="338" yMax="1434">
      <contour>
        <pt x="217" y="1327" on="1"/>
        <pt x="43" y="1327" on="1"/>
        <pt x="43" y="1434" on="1"/>
        <pt x="338" y="1434" on="1"/>
        <pt x="338" y="592" on="1"/>
        <pt x="217" y="592" on="1"/>
      </contour>
    </TTGlyph>
    <TTGlyph name="oneeighth" xMin="43" yMin="-4" xMax="1544" yMax="1434">
      <component glyphName="one.numr" x="0" y="0" flags="0x1000"/>
      <component glyphName="fraction" x="649" y="0" flags="0x1000"/>
      <component glyphName="eight.dnom" x="805" y="0" flags="0x1000"/>
    </TTGlyph>
    <TTGlyph name="onehalf" xMin="43" yMin="0" xMax="1550" yMax="1434">
      <component glyphName="one.numr" x="0" y="0" flags="0x1000"/>
      <component glyphName="fraction" x="649" y="0" flags="0x1000"/>
      <component glyphName="two.dnom" x="858" y="0" flags="0x1000"/>
    </TTGlyph>
    <TTGlyph name="onequarter" xMin="43" yMin="0" xMax="1532" yMax="1434">
      <component glyphName="one.numr" x="0" y="0" flags="0x1000"/>
      <component glyphName="fraction" x="649" y="0" flags="0x1000"/>
      <component glyphName="four.dnom" x="809" y="0" flags="0x1000"/>
    </TTGlyph>
    <TTGlyph name="onesuperior" xMin="43" yMin="592" xMax="338" yMax="1434">
      <contour>
        <pt x="217" y="1327" on="1"/>
        <pt x="43" y="1327" on="1"/>
        <pt x="43" y="1434" on="1"/>
        <pt x="338" y="1434" on="1"/>
        <pt x="338" y="592" on="1"/>
        <pt x="217" y="592" on="1"/>
      </contour>
    </TTGlyph>
    <TTGlyph name="ordfeminine" xMin="82" yMin="934" xMax="662" yMax="1579">
      <contour>
        <pt x="545" y="1053" on="1"/>
        <pt x="465" y="934" on="0"/>
        <pt x="299" y="934" on="1"/>
        <pt x="201" y="934" on="0"/>
        <pt x="82" y="1038" on="0"/>
        <pt x="82" y="1124" on="1"/>
        <pt x="82" y="1208" on="0"/>
        <pt x="213" y="1300" on="0"/>
        <pt x="332" y="1300" on="1"/>
        <pt x="545" y="1300" on="1"/>
        <pt x="545" y="1343" on="1"/>
        <pt x="543" y="1409" on="0"/>
        <pt x="457" y="1481" on="0"/>
        <pt x="373" y="1481" on="1"/>
        <pt x="269" y="1481" on="0"/>
        <pt x="152" y="1413" on="1"/>
        <pt x="119" y="1499" on="1"/>
        <pt x="262" y="1579" on="0"/>
        <pt x="397" y="1579" on="1"/>
        <pt x="522" y="1579" on="0"/>
        <pt x="659" y="1460" on="0"/>
        <pt x="659" y="1356" on="1"/>
        <pt x="662" y="938" on="1"/>
        <pt x="545" y="938" on="1"/>
      </contour>
      <contour>
        <pt x="488" y="1018" on="0"/>
        <pt x="545" y="1141" on="1"/>
        <pt x="545" y="1235" on="1"/>
        <pt x="354" y="1235" on="1"/>
        <pt x="276" y="1235" on="0"/>
        <pt x="193" y="1182" on="0"/>
        <pt x="193" y="1133" on="1"/>
        <pt x="193" y="1082" on="0"/>
        <pt x="270" y="1018" on="0"/>
        <pt x="336" y="1018" on="1"/>
      </contour>
    </TTGlyph>
    <TTGlyph name="ordmasculine" xMin="74" yMin="934" xMax="752" yMax="1579">
      <contour>
        <pt x="561" y="1579" on="0"/>
        <pt x="752" y="1401" on="0"/>
        <pt x="752" y="1257" on="1"/>
        <pt x="752" y="1114" on="0"/>
        <pt x="561" y="934" on="0"/>
        <pt x="412" y="934" on="1"/>
        <pt x="260" y="934" on="0"/>
        <pt x="74" y="1114" on="0"/>
        <pt x="74" y="1257" on="1"/>
        <pt x="74" y="1400" on="0"/>
        <pt x="262" y="1579" on="0"/>
        <pt x="412" y="1579" on="1"/>
      </contour>
      <contour>
        <pt x="315" y="1477" on="0"/>
        <pt x="190" y="1354" on="0"/>
        <pt x="190" y="1255" on="1"/>
        <pt x="190" y="1157" on="0"/>
        <pt x="313" y="1034" on="0"/>
        <pt x="412" y="1034" on="1"/>
        <pt x="510" y="1034" on="0"/>
        <pt x="631" y="1157" on="0"/>
        <pt x="631" y="1255" on="1"/>
        <pt x="631" y="1353" on="0"/>
        <pt x="508" y="1477" on="0"/>
        <pt x="412" y="1477" on="1"/>
      </contour>
    </TTGlyph>
    <TTGlyph name="oslash" xMin="86" yMin="-303" xMax="1180" yMax="1354">
      <contour>
        <pt x="995" y="995" on="0"/>
        <pt x="1180" y="725" on="0"/>
        <pt x="1180" y="541" on="1"/>
        <pt x="1180" y="381" on="0"/>
        <pt x="1040" y="133" on="0"/>
        <pt x="791" y="-6" on="0"/>
        <pt x="633" y="-6" on="1"/>
        <pt x="567" y="-6" on="0"/>
        <pt x="502" y="6" on="1"/>
        <pt x="403" y="-303" on="1"/>
        <pt x="322" y="-303" on="1"/>
        <pt x="428" y="29" on="1"/>
        <pt x="270" y="84" on="0"/>
        <pt x="86" y="356" on="0"/>
        <pt x="86" y="541" on="1"/>
        <pt x="86" y="699" on="0"/>
        <pt x="225" y="946" on="0"/>
        <pt x="475" y="1083" on="0"/>
        <pt x="633" y="1083" on="1"/>
        <pt x="701" y="1083" on="0"/>
        <pt x="764" y="1071" on="1"/>
        <pt x="854" y="1354" on="1"/>
        <pt x="934" y="1354" on="1"/>
        <pt x="838" y="1051" on="1"/>
      </contour>
      <contour>
        <pt x="238" y="403" on="0"/>
        <pt x="362" y="203" on="0"/>
        <pt x="469" y="158" on="1"/>
        <pt x="721" y="942" on="1"/>
        <pt x="686" y="950" on="0"/>
        <pt x="633" y="950" on="1"/>
        <pt x="518" y="950" on="0"/>
        <pt x="338" y="846" on="0"/>
        <pt x="238" y="659" on="0"/>
        <pt x="238" y="539" on="1"/>
      </contour>
      <contour>
        <pt x="748" y="125" on="0"/>
        <pt x="928" y="229" on="0"/>
        <pt x="1028" y="418" on="0"/>
        <pt x="1028" y="539" on="1"/>
        <pt x="1028" y="674" on="0"/>
        <pt x="903" y="874" on="0"/>
        <pt x="795" y="920" on="1"/>
        <pt x="543" y="133" on="1"/>
        <pt x="582" y="125" on="0"/>
        <pt x="633" y="125" on="1"/>
      </contour>
    </TTGlyph>
    <TTGlyph name="otilde" xMin="86" yMin="-6" xMax="1180" yMax="1526">
      <component glyphName="o" x="0" y="0" flags="0x1000"/>
      <component glyphName="tilde" x="274" y="0" flags="0x1000"/>
    </TTGlyph>
</ttFont>
